<svg xmlns="http://www.w3.org/2000/svg" xmlns:xlink="http://www.w3.org/1999/xlink" width="250" height="250" version="1.1" style="shape-rendering:geometricPrecision;text-rendering:geometricPrecision;image-rendering:optimizeQuality;fill-rule:evenodd;clip-rule:evenodd"><g><path style="opacity:1" fill="#ef57fd" d="M 24.5,43.5 C 45.6733,43.1694 66.6733,43.5027 87.5,44.5C 86.791,45.404 85.791,45.7373 84.5,45.5C 64.5,44.8333 44.5,44.1667 24.5,43.5 Z"/></g><g><path style="opacity:1" fill="#ed45fd" d="M 23.5,43.5 C 23.8333,43.5 24.1667,43.5 24.5,43.5C 44.5,44.1667 64.5,44.8333 84.5,45.5C 63.8059,46.1549 43.4725,45.4883 23.5,43.5 Z"/></g><g><path style="opacity:1" fill="#e819fb" d="M 23.5,43.5 C 43.4725,45.4883 63.8059,46.1549 84.5,45.5C 85.791,45.7373 86.791,45.404 87.5,44.5C 88.5,44.5 89.5,44.5 90.5,44.5C 91.0444,46.5795 91.8777,48.5795 93,50.5C 93.9707,51.1984 95.1374,51.1984 96.5,50.5C 99.7939,51.9662 99.9606,53.2995 97,54.5C 95.4495,53.9465 93.9495,53.2798 92.5,52.5C 88.2085,54.362 84.2085,56.6954 80.5,59.5C 79.8333,59.1667 79.1667,58.8333 78.5,58.5C 76.0388,61.0917 74.3722,64.0917 73.5,67.5C 71.857,67.5198 70.5237,66.8532 69.5,65.5C 67.5,67.5 65.5,69.5 63.5,71.5C 62.2798,70.2889 61.1131,70.2889 60,71.5C 58.9141,69.153 57.5808,69.153 56,71.5C 53.4838,70.2272 50.9838,70.2272 48.5,71.5C 47.2261,69.15 45.8927,69.3167 44.5,72C 33.8384,71.2753 23.8384,73.442 14.5,78.5C 14.3335,69.1607 14.5002,59.8274 15,50.5C 17.1072,47.2208 19.9406,44.8874 23.5,43.5 Z"/></g><g><path style="opacity:.994" fill="#e31df7" d="M 90.5,44.5 C 96.3276,46.988 101.328,50.6547 105.5,55.5C 105.5,56.8333 105.5,58.1667 105.5,59.5C 106.5,59.5 107.5,59.5 108.5,59.5C 108.733,61.0618 109.4,62.3951 110.5,63.5C 110.5,65.1667 110.5,66.8333 110.5,68.5C 124.135,69.2801 137.802,69.7801 151.5,70C 139.5,70.3333 127.5,70.6667 115.5,71C 114.944,71.3826 114.611,71.8826 114.5,72.5C 110.068,72.4326 105.568,72.0993 101,71.5C 100.261,72.5742 99.2613,73.2409 98,73.5C 93.5574,73.888 89.0574,73.888 84.5,73.5C 83.1667,76.1667 81.8333,76.1667 80.5,73.5C 77.8353,74.8477 75.1687,75.181 72.5,74.5C 60.5707,75.9542 48.5707,76.7875 36.5,77C 31.8914,77.4662 27.3914,78.2996 23,79.5C 22.6667,79.1667 22.3333,78.8333 22,78.5C 19.7429,80.3409 17.2429,81.6742 14.5,82.5C 14.5,81.1667 14.5,79.8333 14.5,78.5C 23.8384,73.442 33.8384,71.2753 44.5,72C 45.8927,69.3167 47.2261,69.15 48.5,71.5C 50.9838,70.2272 53.4838,70.2272 56,71.5C 57.5808,69.153 58.9141,69.153 60,71.5C 61.1131,70.2889 62.2798,70.2889 63.5,71.5C 65.5,69.5 67.5,67.5 69.5,65.5C 70.5237,66.8532 71.857,67.5198 73.5,67.5C 74.3722,64.0917 76.0388,61.0917 78.5,58.5C 79.1667,58.8333 79.8333,59.1667 80.5,59.5C 84.2085,56.6954 88.2085,54.362 92.5,52.5C 93.9495,53.2798 95.4495,53.9465 97,54.5C 99.9606,53.2995 99.7939,51.9662 96.5,50.5C 95.1374,51.1984 93.9707,51.1984 93,50.5C 91.8777,48.5795 91.0444,46.5795 90.5,44.5 Z"/></g><g><path style="opacity:.137" fill="#ee7bfa" d="M 105.5,55.5 C 106.878,56.5451 107.878,57.8784 108.5,59.5C 107.5,59.5 106.5,59.5 105.5,59.5C 105.5,58.1667 105.5,56.8333 105.5,55.5 Z"/></g><g><path style="opacity:1" fill="#e034f3" d="M 110.5,63.5 C 111.643,63.9081 112.643,64.5748 113.5,65.5C 152.942,65.8693 192.275,66.8693 231.5,68.5C 231.999,71.2639 233.665,72.9305 236.5,73.5C 237.301,75.0418 237.634,76.7085 237.5,78.5C 235.813,76.8338 233.813,75.5005 231.5,74.5C 230.737,73.7321 229.737,73.2321 228.5,73C 207.169,72.5 185.836,72.3334 164.5,72.5C 147.833,72.5 131.167,72.5 114.5,72.5C 114.611,71.8826 114.944,71.3826 115.5,71C 127.5,70.6667 139.5,70.3333 151.5,70C 137.802,69.7801 124.135,69.2801 110.5,68.5C 110.5,66.8333 110.5,65.1667 110.5,63.5 Z"/></g><g><path style="opacity:.457" fill="#e777f4" d="M 231.5,68.5 C 234.5,68.8333 236.167,70.5 236.5,73.5C 233.665,72.9305 231.999,71.2639 231.5,68.5 Z"/></g><g><path style="opacity:1" fill="#dd1df1" d="M 114.5,72.5 C 114.5,72.8333 114.5,73.1667 114.5,73.5C 112.62,73.2291 111.287,73.8958 110.5,75.5C 109.167,76.1667 107.833,76.8333 106.5,77.5C 97.585,77.7753 88.7516,78.4419 80,79.5C 77.7574,78.8629 75.4241,78.5296 73,78.5C 59.176,79.2093 45.3426,79.7093 31.5,80C 25.2043,80.8114 19.5376,82.9781 14.5,86.5C 14.5,85.1667 14.5,83.8333 14.5,82.5C 17.2429,81.6742 19.7429,80.3409 22,78.5C 22.3333,78.8333 22.6667,79.1667 23,79.5C 27.3914,78.2996 31.8914,77.4662 36.5,77C 48.5707,76.7875 60.5707,75.9542 72.5,74.5C 75.1687,75.181 77.8353,74.8477 80.5,73.5C 81.8333,76.1667 83.1667,76.1667 84.5,73.5C 89.0574,73.888 93.5574,73.888 98,73.5C 99.2613,73.2409 100.261,72.5742 101,71.5C 105.568,72.0993 110.068,72.4326 114.5,72.5 Z"/></g><g><path style="opacity:1" fill="#f67ffe" d="M 187.5,73.5 C 198.52,73.1679 209.52,73.5012 220.5,74.5C 209.758,75.3683 199.091,76.7016 188.5,78.5C 186.38,77.1285 185.38,77.7952 185.5,80.5C 180.817,83.2698 175.817,85.6031 170.5,87.5C 168.815,89.0175 167.315,90.6841 166,92.5C 165.586,92.0426 165.086,91.7093 164.5,91.5C 161.946,93.944 158.946,95.6107 155.5,96.5C 152.771,98.6628 150.105,100.996 147.5,103.5C 146.833,103.167 146.167,102.833 145.5,102.5C 143.878,103.933 142.545,105.599 141.5,107.5C 140.707,107.069 139.873,106.735 139,106.5C 133.877,111.311 128.044,114.977 121.5,117.5C 120.8,120.015 119.467,120.682 117.5,119.5C 115.787,120.878 114.453,122.545 113.5,124.5C 108.889,126.284 104.389,128.284 100,130.5C 96.1886,134.411 91.8553,137.411 87,139.5C 86.586,139.043 86.086,138.709 85.5,138.5C 84.2888,139.274 84.2888,140.107 85.5,141C 83.4835,141.674 81.8168,142.841 80.5,144.5C 79.8333,144.167 79.1667,143.833 78.5,143.5C 77.1585,145.005 75.4918,145.672 73.5,145.5C 73.67,146.822 73.3366,147.989 72.5,149C 66.1431,151.85 60.1431,155.35 54.5,159.5C 50.2108,159.975 46.8775,161.975 44.5,165.5C 40.1857,167.323 36.1857,169.656 32.5,172.5C 31.8333,172.167 31.1667,171.833 30.5,171.5C 25.4063,175.942 20.073,179.942 14.5,183.5C 14.5,177.167 14.5,170.833 14.5,164.5C 16.7843,163.113 19.2843,162.113 22,161.5C 23.9823,160.279 25.4823,158.612 26.5,156.5C 31.9862,154.286 36.9862,151.286 41.5,147.5C 42.1667,147.833 42.8333,148.167 43.5,148.5C 44.5968,146.771 45.7635,145.104 47,143.5C 47.414,143.957 47.914,144.291 48.5,144.5C 55.871,140.152 62.871,135.319 69.5,130C 71.2072,129.805 72.8739,129.805 74.5,130C 74.0426,129.586 73.7093,129.086 73.5,128.5C 78.4922,126.004 83.1588,123.004 87.5,119.5C 89.0709,120.309 90.7376,120.643 92.5,120.5C 92.2148,118.712 92.5481,117.045 93.5,115.5C 94.1667,115.833 94.8333,116.167 95.5,116.5C 107.118,109.009 118.784,101.342 130.5,93.5C 131.167,93.8333 131.833,94.1667 132.5,94.5C 133.545,92.5995 134.878,90.9328 136.5,89.5C 137.167,89.8333 137.833,90.1667 138.5,90.5C 140.698,88.1399 143.365,86.8066 146.5,86.5C 146.5,85.1667 146.5,83.8333 146.5,82.5C 149.487,81.7422 152.487,80.9089 155.5,80C 154.5,79.6667 153.5,79.3333 152.5,79C 169.121,77.2276 185.788,75.8942 202.5,75C 197.316,74.8261 192.316,74.3261 187.5,73.5 Z"/></g><g><path style="opacity:1" fill="#f579fe" d="M 164.5,72.5 C 185.836,72.3334 207.169,72.5 228.5,73C 229.737,73.2321 230.737,73.7321 231.5,74.5C 225.251,75.6389 218.918,76.9722 212.5,78.5C 198.61,86.2074 184.944,94.2074 171.5,102.5C 170.8,105.015 169.467,105.682 167.5,104.5C 165.739,107.441 163.072,109.108 159.5,109.5C 156.683,112.478 153.683,115.144 150.5,117.5C 148.994,118.747 147.494,118.747 146,117.5C 140.13,121.215 134.63,125.548 129.5,130.5C 127.647,131.76 125.814,131.76 124,130.5C 123.517,131.448 123.351,132.448 123.5,133.5C 117.273,135.286 111.94,138.62 107.5,143.5C 104.611,143.876 102.611,145.376 101.5,148C 100.101,148.595 98.7678,148.428 97.5,147.5C 94.0026,150.083 90.3359,152.416 86.5,154.5C 85.9236,157.124 84.5902,157.791 82.5,156.5C 81.8003,159.015 80.4669,159.682 78.5,158.5C 76.1639,161.177 73.4973,163.51 70.5,165.5C 60.5889,170.298 51.2556,175.965 42.5,182.5C 41.3112,183.429 39.9778,183.762 38.5,183.5C 38.3671,186.896 37.3671,187.229 35.5,184.5C 34.3333,186.167 33.1667,187.833 32,189.5C 31.586,189.043 31.086,188.709 30.5,188.5C 29.5,189.5 28.5,190.5 27.5,191.5C 23.0503,193.039 18.7169,194.705 14.5,196.5C 14.5,192.167 14.5,187.833 14.5,183.5C 20.073,179.942 25.4063,175.942 30.5,171.5C 31.1667,171.833 31.8333,172.167 32.5,172.5C 36.1857,169.656 40.1857,167.323 44.5,165.5C 46.8775,161.975 50.2108,159.975 54.5,159.5C 60.1431,155.35 66.1431,151.85 72.5,149C 73.3366,147.989 73.67,146.822 73.5,145.5C 75.4918,145.672 77.1585,145.005 78.5,143.5C 79.1667,143.833 79.8333,144.167 80.5,144.5C 81.8168,142.841 83.4835,141.674 85.5,141C 84.2888,140.107 84.2888,139.274 85.5,138.5C 86.086,138.709 86.586,139.043 87,139.5C 91.8553,137.411 96.1886,134.411 100,130.5C 104.389,128.284 108.889,126.284 113.5,124.5C 114.453,122.545 115.787,120.878 117.5,119.5C 119.467,120.682 120.8,120.015 121.5,117.5C 128.044,114.977 133.877,111.311 139,106.5C 139.873,106.735 140.707,107.069 141.5,107.5C 142.545,105.599 143.878,103.933 145.5,102.5C 146.167,102.833 146.833,103.167 147.5,103.5C 150.105,100.996 152.771,98.6628 155.5,96.5C 158.946,95.6107 161.946,93.944 164.5,91.5C 165.086,91.7093 165.586,92.0426 166,92.5C 167.315,90.6841 168.815,89.0175 170.5,87.5C 175.817,85.6031 180.817,83.2698 185.5,80.5C 185.38,77.7952 186.38,77.1285 188.5,78.5C 199.091,76.7016 209.758,75.3683 220.5,74.5C 209.52,73.5012 198.52,73.1679 187.5,73.5C 179.648,73.8254 171.982,73.492 164.5,72.5 Z"/></g><g><path style="opacity:1" fill="#f89cfe" d="M 111.5,79.5 C 109.66,81.6689 107.326,83.0023 104.5,83.5C 103.325,83.719 102.325,83.3857 101.5,82.5C 102.993,81.8589 103.993,80.8589 104.5,79.5C 105.167,78.8333 105.833,78.1667 106.5,77.5C 107.833,76.8333 109.167,76.1667 110.5,75.5C 121.787,74.377 133.121,74.2103 144.5,75C 134.187,75.9657 123.854,76.6323 113.5,77C 112.619,77.7083 111.953,78.5416 111.5,79.5 Z"/></g><g><path style="opacity:1" fill="#f893fe" d="M 114.5,73.5 C 135.182,73.367 155.848,73.867 176.5,75C 161.456,75.3682 146.456,76.2015 131.5,77.5C 124.591,76.9603 117.924,77.6269 111.5,79.5C 111.953,78.5416 112.619,77.7083 113.5,77C 123.854,76.6323 134.187,75.9657 144.5,75C 133.121,74.2103 121.787,74.377 110.5,75.5C 111.287,73.8958 112.62,73.2291 114.5,73.5 Z"/></g><g><path style="opacity:1" fill="#f686fe" d="M 114.5,73.5 C 114.5,73.1667 114.5,72.8333 114.5,72.5C 131.167,72.5 147.833,72.5 164.5,72.5C 171.982,73.492 179.648,73.8254 187.5,73.5C 192.316,74.3261 197.316,74.8261 202.5,75C 185.788,75.8942 169.121,77.2276 152.5,79C 153.5,79.3333 154.5,79.6667 155.5,80C 152.487,80.9089 149.487,81.7422 146.5,82.5C 146.5,83.8333 146.5,85.1667 146.5,86.5C 143.365,86.8066 140.698,88.1399 138.5,90.5C 137.833,90.1667 137.167,89.8333 136.5,89.5C 134.878,90.9328 133.545,92.5995 132.5,94.5C 131.833,94.1667 131.167,93.8333 130.5,93.5C 118.784,101.342 107.118,109.009 95.5,116.5C 94.8333,116.167 94.1667,115.833 93.5,115.5C 92.5481,117.045 92.2148,118.712 92.5,120.5C 90.7376,120.643 89.0709,120.309 87.5,119.5C 83.1588,123.004 78.4922,126.004 73.5,128.5C 73.7093,129.086 74.0426,129.586 74.5,130C 72.8739,129.805 71.2072,129.805 69.5,130C 62.871,135.319 55.871,140.152 48.5,144.5C 47.914,144.291 47.414,143.957 47,143.5C 45.7635,145.104 44.5968,146.771 43.5,148.5C 42.8333,148.167 42.1667,147.833 41.5,147.5C 36.9862,151.286 31.9862,154.286 26.5,156.5C 25.4823,158.612 23.9823,160.279 22,161.5C 19.2843,162.113 16.7843,163.113 14.5,164.5C 14.5,158.833 14.5,153.167 14.5,147.5C 18.3557,149.15 20.5224,147.816 21,143.5C 21.414,143.957 21.914,144.291 22.5,144.5C 25.8726,141.822 29.2059,139.156 32.5,136.5C 33.1667,137.167 33.8333,137.833 34.5,138.5C 37.2302,135.618 40.2302,132.951 43.5,130.5C 45.5902,131.791 46.9236,131.124 47.5,128.5C 52.8321,126.503 57.4987,123.503 61.5,119.5C 62.1667,119.833 62.8333,120.167 63.5,120.5C 64.5446,118.599 65.8779,116.933 67.5,115.5C 68.1667,115.833 68.8333,116.167 69.5,116.5C 81.2478,109.12 92.9145,101.454 104.5,93.5C 105.167,93.8333 105.833,94.1667 106.5,94.5C 107.545,92.5995 108.878,90.9328 110.5,89.5C 111.086,89.7093 111.586,90.0426 112,90.5C 116.602,86.2419 121.769,82.7419 127.5,80C 127.167,79.6667 126.833,79.3333 126.5,79C 128.382,78.8019 130.048,78.3019 131.5,77.5C 146.456,76.2015 161.456,75.3682 176.5,75C 155.848,73.867 135.182,73.367 114.5,73.5 Z"/></g><g><path style="opacity:1" fill="#f573fe" d="M 231.5,74.5 C 233.813,75.5005 235.813,76.8338 237.5,78.5C 237.5,79.5 237.5,80.5 237.5,81.5C 235.94,81.4809 234.44,81.1476 233,80.5C 231.606,81.6133 230.439,82.9466 229.5,84.5C 227.286,82.0762 226.286,82.7429 226.5,86.5C 222.748,87.0687 219.915,89.0687 218,92.5C 217.586,92.0426 217.086,91.7093 216.5,91.5C 215.8,94.0149 214.467,94.6816 212.5,93.5C 208.226,96.103 204.226,99.103 200.5,102.5C 199.311,103.429 197.978,103.762 196.5,103.5C 196.367,106.896 195.367,107.229 193.5,104.5C 188.732,109.269 183.399,113.269 177.5,116.5C 176.833,116.167 176.167,115.833 175.5,115.5C 173.022,118.103 170.356,120.436 167.5,122.5C 165.01,124.083 162.343,125.083 159.5,125.5C 159.62,128.205 158.62,128.872 156.5,127.5C 155.147,128.685 153.98,130.019 153,131.5C 152.282,130.549 151.449,130.383 150.5,131C 137.282,140.776 123.282,149.276 108.5,156.5C 107.833,157.833 107.167,159.167 106.5,160.5C 105.833,159.833 105.167,159.167 104.5,158.5C 100.818,161.954 96.8179,164.954 92.5,167.5C 89.143,168.968 85.9763,170.634 83,172.5C 82.6667,172.167 82.3333,171.833 82,171.5C 81.7978,173.256 81.2978,174.922 80.5,176.5C 78.4098,175.209 77.0764,175.876 76.5,178.5C 69.1747,180.19 63.1747,183.857 58.5,189.5C 57.8333,189.167 57.1667,188.833 56.5,188.5C 51.707,190.551 47.707,193.551 44.5,197.5C 37.8407,200.163 31.174,203.496 24.5,207.5C 22.6232,208.803 20.9565,210.303 19.5,212C 20.8333,212.333 22.1667,212.667 23.5,213C 22.944,213.383 22.6107,213.883 22.5,214.5C 22.1667,214.5 21.8333,214.5 21.5,214.5C 18.922,213.587 16.5887,212.254 14.5,210.5C 14.5,205.833 14.5,201.167 14.5,196.5C 18.7169,194.705 23.0503,193.039 27.5,191.5C 28.5,190.5 29.5,189.5 30.5,188.5C 31.086,188.709 31.586,189.043 32,189.5C 33.1667,187.833 34.3333,186.167 35.5,184.5C 37.3671,187.229 38.3671,186.896 38.5,183.5C 39.9778,183.762 41.3112,183.429 42.5,182.5C 51.2556,175.965 60.5889,170.298 70.5,165.5C 73.4973,163.51 76.1639,161.177 78.5,158.5C 80.4669,159.682 81.8003,159.015 82.5,156.5C 84.5902,157.791 85.9236,157.124 86.5,154.5C 90.3359,152.416 94.0026,150.083 97.5,147.5C 98.7678,148.428 100.101,148.595 101.5,148C 102.611,145.376 104.611,143.876 107.5,143.5C 111.94,138.62 117.273,135.286 123.5,133.5C 123.351,132.448 123.517,131.448 124,130.5C 125.814,131.76 127.647,131.76 129.5,130.5C 134.63,125.548 140.13,121.215 146,117.5C 147.494,118.747 148.994,118.747 150.5,117.5C 153.683,115.144 156.683,112.478 159.5,109.5C 163.072,109.108 165.739,107.441 167.5,104.5C 169.467,105.682 170.8,105.015 171.5,102.5C 184.944,94.2074 198.61,86.2074 212.5,78.5C 218.918,76.9722 225.251,75.6389 231.5,74.5 Z"/></g><g><path style="opacity:1" fill="#f78cff" d="M 131.5,77.5 C 130.048,78.3019 128.382,78.8019 126.5,79C 126.833,79.3333 127.167,79.6667 127.5,80C 121.769,82.7419 116.602,86.2419 112,90.5C 111.586,90.0426 111.086,89.7093 110.5,89.5C 108.878,90.9328 107.545,92.5995 106.5,94.5C 105.833,94.1667 105.167,93.8333 104.5,93.5C 92.9145,101.454 81.2478,109.12 69.5,116.5C 68.8333,116.167 68.1667,115.833 67.5,115.5C 65.8779,116.933 64.5446,118.599 63.5,120.5C 62.8333,120.167 62.1667,119.833 61.5,119.5C 57.4987,123.503 52.8321,126.503 47.5,128.5C 46.9236,131.124 45.5902,131.791 43.5,130.5C 40.2302,132.951 37.2302,135.618 34.5,138.5C 33.8333,137.833 33.1667,137.167 32.5,136.5C 29.2059,139.156 25.8726,141.822 22.5,144.5C 21.914,144.291 21.414,143.957 21,143.5C 20.5224,147.816 18.3557,149.15 14.5,147.5C 14.5,142.833 14.5,138.167 14.5,133.5C 17.0026,132.085 19.6693,130.918 22.5,130C 29.2317,125.64 35.565,120.807 41.5,115.5C 43.3671,118.229 44.3671,117.896 44.5,114.5C 50.3049,111.761 55.6383,108.261 60.5,104C 61.549,103.508 62.549,103.674 63.5,104.5C 65.4983,102.666 67.8316,101.666 70.5,101.5C 70.5,100.167 70.5,98.8333 70.5,97.5C 73.9264,97.728 76.593,96.3947 78.5,93.5C 80.6198,94.8715 81.6198,94.2048 81.5,91.5C 84.6457,90.9299 82.6457,90.4299 75.5,90C 80.6835,89.8261 85.6835,89.3261 90.5,88.5C 91.5,88.5 92.5,88.5 93.5,88.5C 98.0446,88.5497 101.711,86.883 104.5,83.5C 107.326,83.0023 109.66,81.6689 111.5,79.5C 117.924,77.6269 124.591,76.9603 131.5,77.5 Z"/></g><g><path style="opacity:1" fill="#d61ce9" d="M 106.5,77.5 C 105.833,78.1667 105.167,78.8333 104.5,79.5C 102.833,80.1667 101.167,80.8333 99.5,81.5C 74.5336,81.088 49.5336,81.588 24.5,83C 22.9419,83.21 21.6085,83.71 20.5,84.5C 20.1667,85.1667 19.8333,85.8333 19.5,86.5C 18.1667,87.1667 17.1667,88.1667 16.5,89.5C 15.8333,89.8333 15.1667,90.1667 14.5,90.5C 14.5,89.1667 14.5,87.8333 14.5,86.5C 19.5376,82.9781 25.2043,80.8114 31.5,80C 45.3426,79.7093 59.176,79.2093 73,78.5C 75.4241,78.5296 77.7574,78.8629 80,79.5C 88.7516,78.4419 97.585,77.7753 106.5,77.5 Z"/></g><g><path style="opacity:1" fill="#f56dff" d="M 237.5,81.5 C 237.5,85.1667 237.5,88.8333 237.5,92.5C 235.952,92.8212 235.285,93.8212 235.5,95.5C 234.022,95.238 232.689,95.5713 231.5,96.5C 227.485,99.5045 223.485,102.505 219.5,105.5C 218.914,105.291 218.414,104.957 218,104.5C 217.685,107.147 216.518,107.813 214.5,106.5C 210.745,108.088 207.745,110.588 205.5,114C 201.664,115.416 198.331,117.583 195.5,120.5C 194.707,120.069 193.873,119.735 193,119.5C 189.001,122.668 184.668,125.335 180,127.5C 179.228,127.355 178.561,127.022 178,126.5C 177.122,129.215 175.622,131.549 173.5,133.5C 172.833,133.167 172.167,132.833 171.5,132.5C 165.695,136.242 160.029,140.242 154.5,144.5C 153.914,144.291 153.414,143.957 153,143.5C 148.999,146.34 145.166,149.34 141.5,152.5C 137.039,154.617 132.539,156.617 128,158.5C 125.678,160.322 123.511,162.322 121.5,164.5C 120.167,163.167 118.833,163.167 117.5,164.5C 113.606,168.45 109.272,171.783 104.5,174.5C 100.534,176.378 96.5338,178.045 92.5,179.5C 92.5,180.833 92.5,182.167 92.5,183.5C 89.3908,183.655 86.3908,184.322 83.5,185.5C 79.1524,188.931 74.8191,192.264 70.5,195.5C 68.2933,196.635 65.9599,197.301 63.5,197.5C 63.5,198.5 63.5,199.5 63.5,200.5C 62.1779,200.67 61.0113,200.337 60,199.5C 59.7699,203.213 58.6032,203.88 56.5,201.5C 50.8981,206.273 44.8981,210.44 38.5,214C 45.5,214.333 52.5,214.667 59.5,215C 47.0911,215.812 34.7577,215.645 22.5,214.5C 22.6107,213.883 22.944,213.383 23.5,213C 22.1667,212.667 20.8333,212.333 19.5,212C 20.9565,210.303 22.6232,208.803 24.5,207.5C 31.174,203.496 37.8407,200.163 44.5,197.5C 47.707,193.551 51.707,190.551 56.5,188.5C 57.1667,188.833 57.8333,189.167 58.5,189.5C 63.1747,183.857 69.1747,180.19 76.5,178.5C 77.0764,175.876 78.4098,175.209 80.5,176.5C 81.2978,174.922 81.7978,173.256 82,171.5C 82.3333,171.833 82.6667,172.167 83,172.5C 85.9763,170.634 89.143,168.968 92.5,167.5C 96.8179,164.954 100.818,161.954 104.5,158.5C 105.167,159.167 105.833,159.833 106.5,160.5C 107.167,159.167 107.833,157.833 108.5,156.5C 123.282,149.276 137.282,140.776 150.5,131C 151.449,130.383 152.282,130.549 153,131.5C 153.98,130.019 155.147,128.685 156.5,127.5C 158.62,128.872 159.62,128.205 159.5,125.5C 162.343,125.083 165.01,124.083 167.5,122.5C 170.356,120.436 173.022,118.103 175.5,115.5C 176.167,115.833 176.833,116.167 177.5,116.5C 183.399,113.269 188.732,109.269 193.5,104.5C 195.367,107.229 196.367,106.896 196.5,103.5C 197.978,103.762 199.311,103.429 200.5,102.5C 204.226,99.103 208.226,96.103 212.5,93.5C 214.467,94.6816 215.8,94.0149 216.5,91.5C 217.086,91.7093 217.586,92.0426 218,92.5C 219.915,89.0687 222.748,87.0687 226.5,86.5C 226.286,82.7429 227.286,82.0762 229.5,84.5C 230.439,82.9466 231.606,81.6133 233,80.5C 234.44,81.1476 235.94,81.4809 237.5,81.5 Z"/></g><g><path style="opacity:1" fill="#cb20dd" d="M 99.5,81.5 C 97.6309,82.1646 95.6309,82.8313 93.5,83.5C 69.1758,84.4997 44.8425,84.8331 20.5,84.5C 21.6085,83.71 22.9419,83.21 24.5,83C 49.5336,81.588 74.5336,81.088 99.5,81.5 Z"/></g><g><path style="opacity:1" fill="#f18ff8" d="M 104.5,79.5 C 103.993,80.8589 102.993,81.8589 101.5,82.5C 102.325,83.3857 103.325,83.719 104.5,83.5C 101.711,86.883 98.0446,88.5497 93.5,88.5C 95.9134,87.3125 98.2467,85.9792 100.5,84.5C 99.6667,84.1667 98.8333,83.8333 98,83.5C 96.1999,84.3784 94.3666,85.045 92.5,85.5C 68.1218,85.1861 43.7884,85.5194 19.5,86.5C 19.8333,85.8333 20.1667,85.1667 20.5,84.5C 44.8425,84.8331 69.1758,84.4997 93.5,83.5C 95.6309,82.8313 97.6309,82.1646 99.5,81.5C 101.167,80.8333 102.833,80.1667 104.5,79.5 Z"/></g><g><path style="opacity:1" fill="#fbb8fe" d="M 92.5,85.5 C 76.8512,86.8219 61.1846,87.8219 45.5,88.5C 38.1591,88.3337 30.8258,88.5003 23.5,89C 21.6608,90.1316 19.6608,90.9649 17.5,91.5C 16.7025,91.0431 16.3691,90.3764 16.5,89.5C 17.1667,88.1667 18.1667,87.1667 19.5,86.5C 43.7884,85.5194 68.1218,85.1861 92.5,85.5 Z"/></g><g><path style="opacity:1" fill="#f9a3fe" d="M 93.5,88.5 C 92.5,88.5 91.5,88.5 90.5,88.5C 83.8333,88.5 77.1667,88.5 70.5,88.5C 62.1667,88.5 53.8333,88.5 45.5,88.5C 61.1846,87.8219 76.8512,86.8219 92.5,85.5C 94.3666,85.045 96.1999,84.3784 98,83.5C 98.8333,83.8333 99.6667,84.1667 100.5,84.5C 98.2467,85.9792 95.9134,87.3125 93.5,88.5 Z"/></g><g><path style="opacity:1" fill="#f898fe" d="M 45.5,88.5 C 53.8333,88.5 62.1667,88.5 70.5,88.5C 63.011,89.329 55.3443,89.829 47.5,90C 50.8333,90.3333 54.1667,90.6667 57.5,91C 51.4504,95.0887 45.4504,99.2554 39.5,103.5C 38.8333,103.167 38.1667,102.833 37.5,102.5C 30.2216,107.965 22.5549,112.632 14.5,116.5C 14.5,107.833 14.5,99.1667 14.5,90.5C 15.1667,90.1667 15.8333,89.8333 16.5,89.5C 16.3691,90.3764 16.7025,91.0431 17.5,91.5C 19.6608,90.9649 21.6608,90.1316 23.5,89C 30.8258,88.5003 38.1591,88.3337 45.5,88.5 Z"/></g><g><path style="opacity:1" fill="#f892ff" d="M 70.5,88.5 C 77.1667,88.5 83.8333,88.5 90.5,88.5C 85.6835,89.3261 80.6835,89.8261 75.5,90C 82.6457,90.4299 84.6457,90.9299 81.5,91.5C 81.6198,94.2048 80.6198,94.8715 78.5,93.5C 76.593,96.3947 73.9264,97.728 70.5,97.5C 70.5,98.8333 70.5,100.167 70.5,101.5C 67.8316,101.666 65.4983,102.666 63.5,104.5C 62.549,103.674 61.549,103.508 60.5,104C 55.6383,108.261 50.3049,111.761 44.5,114.5C 44.3671,117.896 43.3671,118.229 41.5,115.5C 35.565,120.807 29.2317,125.64 22.5,130C 19.6693,130.918 17.0026,132.085 14.5,133.5C 14.5,127.833 14.5,122.167 14.5,116.5C 22.5549,112.632 30.2216,107.965 37.5,102.5C 38.1667,102.833 38.8333,103.167 39.5,103.5C 45.4504,99.2554 51.4504,95.0887 57.5,91C 54.1667,90.6667 50.8333,90.3333 47.5,90C 55.3443,89.829 63.011,89.329 70.5,88.5 Z"/></g><g><path style="opacity:1" fill="#f467fe" d="M 237.5,92.5 C 237.5,97.8333 237.5,103.167 237.5,108.5C 235.553,109.473 233.553,110.473 231.5,111.5C 228.463,113.707 225.796,116.374 223.5,119.5C 221.597,119.306 219.763,119.306 218,119.5C 209.459,125.971 200.626,131.971 191.5,137.5C 189.604,138.466 187.604,138.799 185.5,138.5C 185.5,139.833 185.5,141.167 185.5,142.5C 179.81,143.929 174.476,146.262 169.5,149.5C 165.689,153.24 161.356,156.24 156.5,158.5C 156.081,159.672 155.415,160.672 154.5,161.5C 152.495,158.972 150.829,159.305 149.5,162.5C 145.703,165.089 141.703,167.256 137.5,169C 136.018,170.983 134.351,172.816 132.5,174.5C 129.733,172.884 127.733,173.551 126.5,176.5C 122.243,177.81 118.243,179.477 114.5,181.5C 114.5,182.833 114.5,184.167 114.5,185.5C 112.194,185.993 109.861,186.326 107.5,186.5C 106.859,190.33 105.193,190.996 102.5,188.5C 100.833,190.5 99.1667,192.5 97.5,194.5C 91.3498,198.154 85.0164,201.487 78.5,204.5C 77.6143,205.325 77.281,206.325 77.5,207.5C 75.396,207.201 73.396,207.534 71.5,208.5C 70.3589,210.808 68.6922,212.641 66.5,214C 72.1667,214.333 77.8333,214.667 83.5,215C 78.3165,215.174 73.3165,215.674 68.5,216.5C 53.163,216.667 37.8297,216.5 22.5,216C 21.944,215.617 21.6107,215.117 21.5,214.5C 21.8333,214.5 22.1667,214.5 22.5,214.5C 34.7577,215.645 47.0911,215.812 59.5,215C 52.5,214.667 45.5,214.333 38.5,214C 44.8981,210.44 50.8981,206.273 56.5,201.5C 58.6032,203.88 59.7699,203.213 60,199.5C 61.0113,200.337 62.1779,200.67 63.5,200.5C 63.5,199.5 63.5,198.5 63.5,197.5C 65.9599,197.301 68.2933,196.635 70.5,195.5C 74.8191,192.264 79.1524,188.931 83.5,185.5C 86.3908,184.322 89.3908,183.655 92.5,183.5C 92.5,182.167 92.5,180.833 92.5,179.5C 96.5338,178.045 100.534,176.378 104.5,174.5C 109.272,171.783 113.606,168.45 117.5,164.5C 118.833,163.167 120.167,163.167 121.5,164.5C 123.511,162.322 125.678,160.322 128,158.5C 132.539,156.617 137.039,154.617 141.5,152.5C 145.166,149.34 148.999,146.34 153,143.5C 153.414,143.957 153.914,144.291 154.5,144.5C 160.029,140.242 165.695,136.242 171.5,132.5C 172.167,132.833 172.833,133.167 173.5,133.5C 175.622,131.549 177.122,129.215 178,126.5C 178.561,127.022 179.228,127.355 180,127.5C 184.668,125.335 189.001,122.668 193,119.5C 193.873,119.735 194.707,120.069 195.5,120.5C 198.331,117.583 201.664,115.416 205.5,114C 207.745,110.588 210.745,108.088 214.5,106.5C 216.518,107.813 217.685,107.147 218,104.5C 218.414,104.957 218.914,105.291 219.5,105.5C 223.485,102.505 227.485,99.5045 231.5,96.5C 232.689,95.5713 234.022,95.238 235.5,95.5C 235.285,93.8212 235.952,92.8212 237.5,92.5 Z"/></g><g><path style="opacity:1" fill="#f360fe" d="M 237.5,108.5 C 237.5,114.167 237.5,119.833 237.5,125.5C 226.174,129.348 215.508,134.681 205.5,141.5C 204.924,144.124 203.59,144.791 201.5,143.5C 200.614,144.325 200.281,145.325 200.5,146.5C 198.738,146.357 197.071,146.691 195.5,147.5C 193.01,149.412 191.01,151.745 189.5,154.5C 186.298,155.047 183.298,156.047 180.5,157.5C 179.914,157.291 179.414,156.957 179,156.5C 177.554,160.669 174.887,162.669 171,162.5C 170.692,163.308 170.192,163.975 169.5,164.5C 168.549,163.674 167.549,163.508 166.5,164C 164.117,168.388 160.451,170.721 155.5,171C 151.009,174.081 146.342,176.914 141.5,179.5C 138.77,182.382 135.77,185.049 132.5,187.5C 130.397,185.12 129.23,185.787 129,189.5C 128.586,189.043 128.086,188.709 127.5,188.5C 125.158,191.286 122.158,192.953 118.5,193.5C 115.9,195.283 113.566,197.283 111.5,199.5C 106.697,200.972 102.364,203.305 98.5,206.5C 96.9951,207.842 96.3285,209.508 96.5,211.5C 95.1667,211.5 93.8333,211.5 92.5,211.5C 92.5,212.5 92.5,213.5 92.5,214.5C 95.5184,214.335 98.5184,214.502 101.5,215C 98.3054,215.181 95.3054,215.681 92.5,216.5C 84.5,216.5 76.5,216.5 68.5,216.5C 73.3165,215.674 78.3165,215.174 83.5,215C 77.8333,214.667 72.1667,214.333 66.5,214C 68.6922,212.641 70.3589,210.808 71.5,208.5C 73.396,207.534 75.396,207.201 77.5,207.5C 77.281,206.325 77.6143,205.325 78.5,204.5C 85.0164,201.487 91.3498,198.154 97.5,194.5C 99.1667,192.5 100.833,190.5 102.5,188.5C 105.193,190.996 106.859,190.33 107.5,186.5C 109.861,186.326 112.194,185.993 114.5,185.5C 114.5,184.167 114.5,182.833 114.5,181.5C 118.243,179.477 122.243,177.81 126.5,176.5C 127.733,173.551 129.733,172.884 132.5,174.5C 134.351,172.816 136.018,170.983 137.5,169C 141.703,167.256 145.703,165.089 149.5,162.5C 150.829,159.305 152.495,158.972 154.5,161.5C 155.415,160.672 156.081,159.672 156.5,158.5C 161.356,156.24 165.689,153.24 169.5,149.5C 174.476,146.262 179.81,143.929 185.5,142.5C 185.5,141.167 185.5,139.833 185.5,138.5C 187.604,138.799 189.604,138.466 191.5,137.5C 200.626,131.971 209.459,125.971 218,119.5C 219.763,119.306 221.597,119.306 223.5,119.5C 225.796,116.374 228.463,113.707 231.5,111.5C 233.553,110.473 235.553,109.473 237.5,108.5 Z"/></g><g><path style="opacity:1" fill="#f25afe" d="M 237.5,125.5 C 237.5,128.5 237.5,131.5 237.5,134.5C 236.141,135.007 235.141,136.007 234.5,137.5C 232.898,136.45 232.065,137.117 232,139.5C 229.743,141.046 227.576,142.712 225.5,144.5C 224.167,141.833 222.833,141.833 221.5,144.5C 220.833,144.167 220.167,143.833 219.5,143.5C 218.316,145.046 217.316,146.713 216.5,148.5C 214.5,148.833 212.5,149.167 210.5,149.5C 206.87,151.478 203.87,154.145 201.5,157.5C 199.902,156.515 198.235,156.349 196.5,157C 197.308,157.308 197.975,157.808 198.5,158.5C 193.869,160.26 189.869,162.927 186.5,166.5C 184.898,165.45 184.065,166.117 184,168.5C 183.586,168.043 183.086,167.709 182.5,167.5C 181.646,168.948 180.646,170.281 179.5,171.5C 176.374,171.984 173.707,173.317 171.5,175.5C 168.674,174.129 167.174,175.129 167,178.5C 165.989,177.663 164.822,177.33 163.5,177.5C 163.321,182.358 160.988,184.025 156.5,182.5C 155.167,183.167 154.167,184.167 153.5,185.5C 151.955,186.452 150.288,186.785 148.5,186.5C 147.97,189.37 146.303,191.37 143.5,192.5C 142.833,191.833 142.167,191.167 141.5,190.5C 140.319,192.135 140.319,193.802 141.5,195.5C 139.668,196.248 138.001,197.248 136.5,198.5C 134.533,197.318 133.2,197.985 132.5,200.5C 130.597,200.306 128.763,200.306 127,200.5C 123.996,203.601 120.83,206.601 117.5,209.5C 116.833,208.833 116.167,208.167 115.5,207.5C 114.586,209.664 113.419,211.664 112,213.5C 111.781,212.062 111.281,210.729 110.5,209.5C 109.646,210.948 108.646,212.281 107.5,213.5C 112.651,214.167 117.651,214.834 122.5,215.5C 120.265,215.205 118.265,215.539 116.5,216.5C 108.5,216.5 100.5,216.5 92.5,216.5C 95.3054,215.681 98.3054,215.181 101.5,215C 98.5184,214.502 95.5184,214.335 92.5,214.5C 92.5,213.5 92.5,212.5 92.5,211.5C 93.8333,211.5 95.1667,211.5 96.5,211.5C 96.3285,209.508 96.9951,207.842 98.5,206.5C 102.364,203.305 106.697,200.972 111.5,199.5C 113.566,197.283 115.9,195.283 118.5,193.5C 122.158,192.953 125.158,191.286 127.5,188.5C 128.086,188.709 128.586,189.043 129,189.5C 129.23,185.787 130.397,185.12 132.5,187.5C 135.77,185.049 138.77,182.382 141.5,179.5C 146.342,176.914 151.009,174.081 155.5,171C 160.451,170.721 164.117,168.388 166.5,164C 167.549,163.508 168.549,163.674 169.5,164.5C 170.192,163.975 170.692,163.308 171,162.5C 174.887,162.669 177.554,160.669 179,156.5C 179.414,156.957 179.914,157.291 180.5,157.5C 183.298,156.047 186.298,155.047 189.5,154.5C 191.01,151.745 193.01,149.412 195.5,147.5C 197.071,146.691 198.738,146.357 200.5,146.5C 200.281,145.325 200.614,144.325 201.5,143.5C 203.59,144.791 204.924,144.124 205.5,141.5C 215.508,134.681 226.174,129.348 237.5,125.5 Z"/></g><g><path style="opacity:1" fill="#f354ff" d="M 237.5,134.5 C 237.5,139.5 237.5,144.5 237.5,149.5C 234.241,151.089 231.241,153.089 228.5,155.5C 226.547,156.156 224.547,156.489 222.5,156.5C 222.343,158.818 221.176,160.484 219,161.5C 214.589,163.62 210.089,165.62 205.5,167.5C 200.754,172.553 195.087,176.219 188.5,178.5C 186.562,181.049 184.062,182.716 181,183.5C 180.667,183.167 180.333,182.833 180,182.5C 179.517,183.448 179.351,184.448 179.5,185.5C 176.512,185.329 174.512,186.662 173.5,189.5C 171.409,188.5 169.743,189.167 168.5,191.5C 166.5,192.167 164.5,192.833 162.5,193.5C 156.394,198.589 149.727,202.922 142.5,206.5C 139.025,210.472 134.692,212.972 129.5,214C 134.5,214.333 139.5,214.667 144.5,215C 137.174,215.5 129.841,215.666 122.5,215.5C 117.651,214.834 112.651,214.167 107.5,213.5C 108.646,212.281 109.646,210.948 110.5,209.5C 111.281,210.729 111.781,212.062 112,213.5C 113.419,211.664 114.586,209.664 115.5,207.5C 116.167,208.167 116.833,208.833 117.5,209.5C 120.83,206.601 123.996,203.601 127,200.5C 128.763,200.306 130.597,200.306 132.5,200.5C 133.2,197.985 134.533,197.318 136.5,198.5C 138.001,197.248 139.668,196.248 141.5,195.5C 140.319,193.802 140.319,192.135 141.5,190.5C 142.167,191.167 142.833,191.833 143.5,192.5C 146.303,191.37 147.97,189.37 148.5,186.5C 150.288,186.785 151.955,186.452 153.5,185.5C 154.167,184.167 155.167,183.167 156.5,182.5C 160.988,184.025 163.321,182.358 163.5,177.5C 164.822,177.33 165.989,177.663 167,178.5C 167.174,175.129 168.674,174.129 171.5,175.5C 173.707,173.317 176.374,171.984 179.5,171.5C 180.646,170.281 181.646,168.948 182.5,167.5C 183.086,167.709 183.586,168.043 184,168.5C 184.065,166.117 184.898,165.45 186.5,166.5C 189.869,162.927 193.869,160.26 198.5,158.5C 197.975,157.808 197.308,157.308 196.5,157C 198.235,156.349 199.902,156.515 201.5,157.5C 203.87,154.145 206.87,151.478 210.5,149.5C 212.5,149.167 214.5,148.833 216.5,148.5C 217.316,146.713 218.316,145.046 219.5,143.5C 220.167,143.833 220.833,144.167 221.5,144.5C 222.833,141.833 224.167,141.833 225.5,144.5C 227.576,142.712 229.743,141.046 232,139.5C 232.065,137.117 232.898,136.45 234.5,137.5C 235.141,136.007 236.141,135.007 237.5,134.5 Z"/></g><g><path style="opacity:1" fill="#f24efe" d="M 237.5,149.5 C 237.5,154.5 237.5,159.5 237.5,164.5C 233.814,165.68 230.814,167.847 228.5,171C 227.207,171.49 225.873,171.657 224.5,171.5C 224.62,174.205 223.62,174.872 221.5,173.5C 216.235,177.381 211.069,181.381 206,185.5C 205.127,185.265 204.293,184.931 203.5,184.5C 202.158,186.005 200.492,186.672 198.5,186.5C 198.5,187.833 198.5,189.167 198.5,190.5C 194.842,189.872 192.342,191.206 191,194.5C 190.586,194.043 190.086,193.709 189.5,193.5C 187.654,195.592 185.321,196.926 182.5,197.5C 181.614,198.325 181.281,199.325 181.5,200.5C 179.857,200.48 178.524,201.147 177.5,202.5C 176.833,202.167 176.167,201.833 175.5,201.5C 174.833,202.833 174.167,204.167 173.5,205.5C 172.833,204.833 172.167,204.167 171.5,203.5C 167.433,207.986 162.767,211.486 157.5,214C 159.167,214.333 160.833,214.667 162.5,215C 156.652,215.173 150.985,215.673 145.5,216.5C 135.833,216.5 126.167,216.5 116.5,216.5C 118.265,215.539 120.265,215.205 122.5,215.5C 129.841,215.666 137.174,215.5 144.5,215C 139.5,214.667 134.5,214.333 129.5,214C 134.692,212.972 139.025,210.472 142.5,206.5C 149.727,202.922 156.394,198.589 162.5,193.5C 164.5,192.833 166.5,192.167 168.5,191.5C 169.743,189.167 171.409,188.5 173.5,189.5C 174.512,186.662 176.512,185.329 179.5,185.5C 179.351,184.448 179.517,183.448 180,182.5C 180.333,182.833 180.667,183.167 181,183.5C 184.062,182.716 186.562,181.049 188.5,178.5C 195.087,176.219 200.754,172.553 205.5,167.5C 210.089,165.62 214.589,163.62 219,161.5C 221.176,160.484 222.343,158.818 222.5,156.5C 224.547,156.489 226.547,156.156 228.5,155.5C 231.241,153.089 234.241,151.089 237.5,149.5 Z"/></g><g><path style="opacity:1" fill="#f147fe" d="M 237.5,164.5 C 237.5,169.167 237.5,173.833 237.5,178.5C 235.381,179.738 233.381,181.238 231.5,183C 229.866,183.494 228.199,183.66 226.5,183.5C 226.5,184.5 226.5,185.5 226.5,186.5C 224.345,186.372 222.345,186.872 220.5,188C 217.285,191.088 213.952,193.921 210.5,196.5C 206.898,197.506 203.565,198.839 200.5,200.5C 200.367,203.896 199.367,204.229 197.5,201.5C 191.97,205.43 186.637,209.596 181.5,214C 182.833,214.333 184.167,214.667 185.5,215C 184.584,215.278 183.918,215.778 183.5,216.5C 170.833,216.5 158.167,216.5 145.5,216.5C 150.985,215.673 156.652,215.173 162.5,215C 160.833,214.667 159.167,214.333 157.5,214C 162.767,211.486 167.433,207.986 171.5,203.5C 172.167,204.167 172.833,204.833 173.5,205.5C 174.167,204.167 174.833,202.833 175.5,201.5C 176.167,201.833 176.833,202.167 177.5,202.5C 178.524,201.147 179.857,200.48 181.5,200.5C 181.281,199.325 181.614,198.325 182.5,197.5C 185.321,196.926 187.654,195.592 189.5,193.5C 190.086,193.709 190.586,194.043 191,194.5C 192.342,191.206 194.842,189.872 198.5,190.5C 198.5,189.167 198.5,187.833 198.5,186.5C 200.492,186.672 202.158,186.005 203.5,184.5C 204.293,184.931 205.127,185.265 206,185.5C 211.069,181.381 216.235,177.381 221.5,173.5C 223.62,174.872 224.62,174.205 224.5,171.5C 225.873,171.657 227.207,171.49 228.5,171C 230.814,167.847 233.814,165.68 237.5,164.5 Z"/></g><g><path style="opacity:1" fill="#f041fe" d="M 237.5,178.5 C 237.5,182.833 237.5,187.167 237.5,191.5C 234.971,193.933 231.971,195.599 228.5,196.5C 228.5,197.5 228.5,198.5 228.5,199.5C 223.902,199.302 220.235,200.968 217.5,204.5C 215.604,205.466 213.604,205.799 211.5,205.5C 211.762,206.978 211.429,208.311 210.5,209.5C 208.246,210.124 206.579,211.457 205.5,213.5C 204.833,212.5 204.167,211.5 203.5,210.5C 201.972,211.861 200.305,213.028 198.5,214C 201.675,213.947 204.342,214.78 206.5,216.5C 198.833,216.5 191.167,216.5 183.5,216.5C 183.918,215.778 184.584,215.278 185.5,215C 184.167,214.667 182.833,214.333 181.5,214C 186.637,209.596 191.97,205.43 197.5,201.5C 199.367,204.229 200.367,203.896 200.5,200.5C 203.565,198.839 206.898,197.506 210.5,196.5C 213.952,193.921 217.285,191.088 220.5,188C 222.345,186.872 224.345,186.372 226.5,186.5C 226.5,185.5 226.5,184.5 226.5,183.5C 228.199,183.66 229.866,183.494 231.5,183C 233.381,181.238 235.381,179.738 237.5,178.5 Z"/></g><g><path style="opacity:1" fill="#f03bfe" d="M 237.5,191.5 C 237.5,197.5 237.5,203.5 237.5,209.5C 235.912,210.641 234.579,212.141 233.5,214C 224.674,216.253 215.674,217.087 206.5,216.5C 204.342,214.78 201.675,213.947 198.5,214C 200.305,213.028 201.972,211.861 203.5,210.5C 204.167,211.5 204.833,212.5 205.5,213.5C 206.579,211.457 208.246,210.124 210.5,209.5C 211.429,208.311 211.762,206.978 211.5,205.5C 213.604,205.799 215.604,205.466 217.5,204.5C 220.235,200.968 223.902,199.302 228.5,199.5C 228.5,198.5 228.5,197.5 228.5,196.5C 231.971,195.599 234.971,193.933 237.5,191.5 Z"/></g><g><path style="opacity:.303" fill="#e573f3" d="M 14.5,213.5 C 16.1765,214.183 16.8432,215.517 16.5,217.5C 15.3263,216.486 14.6596,215.153 14.5,213.5 Z"/></g><g><path style="opacity:1" fill="#d836ed" d="M 237.5,209.5 C 237.634,211.292 237.301,212.958 236.5,214.5C 234.628,215.511 232.628,216.345 230.5,217C 223.508,217.5 216.508,217.666 209.5,217.5C 180.833,217.5 152.167,217.5 123.5,217.5C 90.5,217.5 57.5,217.5 24.5,217.5C 24.5,218.5 24.5,219.5 24.5,220.5C 21.4064,220.403 18.7398,219.403 16.5,217.5C 16.8432,215.517 16.1765,214.183 14.5,213.5C 14.5,212.5 14.5,211.5 14.5,210.5C 16.5887,212.254 18.922,213.587 21.5,214.5C 21.6107,215.117 21.944,215.617 22.5,216C 37.8297,216.5 53.163,216.667 68.5,216.5C 76.5,216.5 84.5,216.5 92.5,216.5C 100.5,216.5 108.5,216.5 116.5,216.5C 126.167,216.5 135.833,216.5 145.5,216.5C 158.167,216.5 170.833,216.5 183.5,216.5C 191.167,216.5 198.833,216.5 206.5,216.5C 215.674,217.087 224.674,216.253 233.5,214C 234.579,212.141 235.912,210.641 237.5,209.5 Z"/></g><g><path style="opacity:1" fill="#c828e2" d="M 123.5,217.5 C 152.167,217.5 180.833,217.5 209.5,217.5C 208.198,219.028 206.531,220.028 204.5,220.5C 173.5,220.5 142.5,220.5 111.5,220.5C 115.232,218.869 119.232,217.869 123.5,217.5 Z"/></g><g><path style="opacity:1" fill="#c735df" d="M 236.5,214.5 C 235.988,217.842 233.988,219.676 230.5,220C 221.84,220.5 213.173,220.666 204.5,220.5C 206.531,220.028 208.198,219.028 209.5,217.5C 216.508,217.666 223.508,217.5 230.5,217C 232.628,216.345 234.628,215.511 236.5,214.5 Z"/></g><g><path style="opacity:1" fill="#d024e7" d="M 123.5,217.5 C 119.232,217.869 115.232,218.869 111.5,220.5C 82.5,220.5 53.5,220.5 24.5,220.5C 24.5,219.5 24.5,218.5 24.5,217.5C 57.5,217.5 90.5,217.5 123.5,217.5 Z"/></g></svg>