<?xml version="1.0" encoding="UTF-8"?>
<!DOCTYPE svg PUBLIC "-//W3C//DTD SVG 1.1//EN" "http://www.w3.org/Graphics/SVG/1.1/DTD/svg11.dtd">
<svg xmlns="http://www.w3.org/2000/svg" version="1.1" width="250px" height="250px" style="shape-rendering:geometricPrecision; text-rendering:geometricPrecision; image-rendering:optimizeQuality; fill-rule:evenodd; clip-rule:evenodd" xmlns:xlink="http://www.w3.org/1999/xlink">
<g><path style="opacity:1" fill="#5255fd" d="M 23.5,43.5 C 44.5,43.5 65.5,43.5 86.5,43.5C 66.1937,45.4885 45.527,46.1551 24.5,45.5C 23.6618,45.1583 23.3284,44.4916 23.5,43.5 Z"/></g>
<g><path style="opacity:0.402" fill="#5357fb" d="M 94.5,46.5 C 95.4916,46.3284 96.1583,46.6618 96.5,47.5C 95.3774,48.7574 94.7107,48.4241 94.5,46.5 Z"/></g>
<g><path style="opacity:1" fill="#191dfb" d="M 23.5,43.5 C 23.3284,44.4916 23.6618,45.1583 24.5,45.5C 45.3293,46.3319 66.3293,46.8319 87.5,47C 85.2446,47.4526 83.9112,48.7859 83.5,51C 85.02,51.8787 86.02,53.7121 86.5,56.5C 84.3016,57.0144 82.3016,58.0144 80.5,59.5C 79.8333,59.1667 79.1667,58.8333 78.5,58.5C 76.0388,61.0917 74.3722,64.0917 73.5,67.5C 71.4159,68.2483 69.4159,68.2483 67.5,67.5C 66.1667,68.8333 64.8333,70.1667 63.5,71.5C 62.2798,70.2889 61.1131,70.2889 60,71.5C 59.6924,70.6919 59.1924,70.0253 58.5,69.5C 57.3774,70.5437 56.0441,71.2104 54.5,71.5C 52.5103,70.8373 50.677,70.8373 49,71.5C 47.6998,70.2927 46.1998,69.6261 44.5,69.5C 44.719,68.325 44.3857,67.325 43.5,66.5C 42.1667,68.5 40.8333,70.5 39.5,72.5C 38.8333,72.1667 38.1667,71.8333 37.5,71.5C 34.5,72.1667 31.5,72.8333 28.5,73.5C 27.1667,69.5 25.8333,69.5 24.5,73.5C 22.0987,74.6874 19.7653,76.0207 17.5,77.5C 16.7124,76.2299 15.7124,75.2299 14.5,74.5C 14.3336,66.4931 14.5003,58.4931 15,50.5C 17.1072,47.2208 19.9406,44.8874 23.5,43.5 Z"/></g>
<g><path style="opacity:0.993" fill="#1c21f6" d="M 86.5,43.5 C 87.7079,44.2341 89.0413,44.5674 90.5,44.5C 91.1667,48.5 91.8333,48.5 92.5,44.5C 93.1667,45.1667 93.8333,45.8333 94.5,46.5C 94.7107,48.4241 95.3774,48.7574 96.5,47.5C 99.6731,49.7348 102.34,52.4015 104.5,55.5C 104.197,58.5876 105.53,60.2542 108.5,60.5C 109.167,61.5 109.833,62.5 110.5,63.5C 110.5,65.1667 110.5,66.8333 110.5,68.5C 111.5,68.5 112.5,68.5 113.5,68.5C 113.5,69.8333 113.5,71.1667 113.5,72.5C 112.5,72.8333 111.833,73.5 111.5,74.5C 108.833,75.8333 106.167,77.1667 103.5,78.5C 102.551,77.8476 101.385,77.5143 100,77.5C 89.8031,78.103 79.6364,78.7697 69.5,79.5C 65.5896,75.873 61.5896,75.7063 57.5,79C 45.1625,79.5536 32.9958,79.3869 21,78.5C 18.6926,79.8331 16.8593,81.6664 15.5,84C 16.8825,85.4609 16.5492,86.2942 14.5,86.5C 14.5,82.5 14.5,78.5 14.5,74.5C 15.7124,75.2299 16.7124,76.2299 17.5,77.5C 19.7653,76.0207 22.0987,74.6874 24.5,73.5C 25.8333,69.5 27.1667,69.5 28.5,73.5C 31.5,72.8333 34.5,72.1667 37.5,71.5C 38.1667,71.8333 38.8333,72.1667 39.5,72.5C 40.8333,70.5 42.1667,68.5 43.5,66.5C 44.3857,67.325 44.719,68.325 44.5,69.5C 46.1998,69.6261 47.6998,70.2927 49,71.5C 50.677,70.8373 52.5103,70.8373 54.5,71.5C 56.0441,71.2104 57.3774,70.5437 58.5,69.5C 59.1924,70.0253 59.6924,70.6919 60,71.5C 61.1131,70.2889 62.2798,70.2889 63.5,71.5C 64.8333,70.1667 66.1667,68.8333 67.5,67.5C 69.4159,68.2483 71.4159,68.2483 73.5,67.5C 74.3722,64.0917 76.0388,61.0917 78.5,58.5C 79.1667,58.8333 79.8333,59.1667 80.5,59.5C 82.3016,58.0144 84.3016,57.0144 86.5,56.5C 86.02,53.7121 85.02,51.8787 83.5,51C 83.9112,48.7859 85.2446,47.4526 87.5,47C 66.3293,46.8319 45.3293,46.3319 24.5,45.5C 45.527,46.1551 66.1937,45.4885 86.5,43.5 Z"/></g>
<g><path style="opacity:0.459" fill="#5355fb" d="M 90.5,44.5 C 91.1667,44.5 91.8333,44.5 92.5,44.5C 91.8333,48.5 91.1667,48.5 90.5,44.5 Z"/></g>
<g><path style="opacity:0.2" fill="#6b6df9" d="M 104.5,55.5 C 106.929,56.2648 108.262,57.9315 108.5,60.5C 105.53,60.2542 104.197,58.5876 104.5,55.5 Z"/></g>
<g><path style="opacity:0.391" fill="#343bf2" d="M 137.5,66.5 C 168.185,65.841 198.518,66.5077 228.5,68.5C 222.843,69.1662 217.01,69.4995 211,69.5C 185.836,68.8679 160.669,68.3679 135.5,68C 136.416,67.7216 137.082,67.2216 137.5,66.5 Z"/></g>
<g><path style="opacity:1" fill="#2a30f3" d="M 110.5,63.5 C 111.643,63.9081 112.643,64.5748 113.5,65.5C 121.472,66.4977 129.472,66.831 137.5,66.5C 137.082,67.2216 136.416,67.7216 135.5,68C 160.669,68.3679 185.836,68.8679 211,69.5C 217.01,69.4995 222.843,69.1662 228.5,68.5C 229.5,68.5 230.5,68.5 231.5,68.5C 231.999,71.2639 233.665,72.9305 236.5,73.5C 237.301,75.0418 237.634,76.7085 237.5,78.5C 235.813,76.8338 233.813,75.5005 231.5,74.5C 231.5,73.8333 231.167,73.5 230.5,73.5C 230.389,72.8826 230.056,72.3826 229.5,72C 190.998,71.1688 152.664,71.3355 114.5,72.5C 114.167,72.5 113.833,72.5 113.5,72.5C 113.5,71.1667 113.5,69.8333 113.5,68.5C 112.5,68.5 111.5,68.5 110.5,68.5C 110.5,66.8333 110.5,65.1667 110.5,63.5 Z"/></g>
<g><path style="opacity:0.38" fill="#787bf4" d="M 231.5,68.5 C 234.5,68.8333 236.167,70.5 236.5,73.5C 233.665,72.9305 231.999,71.2639 231.5,68.5 Z"/></g>
<g><path style="opacity:1" fill="#5155f7" d="M 114.5,72.5 C 152.664,71.3355 190.998,71.1688 229.5,72C 230.056,72.3826 230.389,72.8826 230.5,73.5C 219.885,72.5462 209.218,72.2129 198.5,72.5C 170.5,72.5 142.5,72.5 114.5,72.5 Z"/></g>
<g><path style="opacity:1" fill="#7f80fe" d="M 113.5,72.5 C 113.833,72.5 114.167,72.5 114.5,72.5C 142.5,72.5 170.5,72.5 198.5,72.5C 205.678,73.1666 213.011,73.8333 220.5,74.5C 215.533,75.329 210.533,75.829 205.5,76C 204.975,76.6924 204.308,77.1924 203.5,77.5C 197.833,77.5 192.167,77.5 186.5,77.5C 185.614,78.325 185.281,79.325 185.5,80.5C 184.167,80.5 182.833,80.5 181.5,80.5C 181.67,81.8221 181.337,82.9887 180.5,84C 174.495,84.9861 169.661,87.8194 166,92.5C 165.586,92.0426 165.086,91.7093 164.5,91.5C 161.946,93.944 158.946,95.6107 155.5,96.5C 152.771,98.6628 150.105,100.996 147.5,103.5C 146.833,103.167 146.167,102.833 145.5,102.5C 143.878,103.933 142.545,105.599 141.5,107.5C 140.707,107.069 139.873,106.735 139,106.5C 133.877,111.311 128.044,114.977 121.5,117.5C 120.8,120.015 119.467,120.682 117.5,119.5C 115.787,120.878 114.453,122.545 113.5,124.5C 108.889,126.284 104.389,128.284 100,130.5C 96.1886,134.411 91.8553,137.411 87,139.5C 86.586,139.043 86.086,138.709 85.5,138.5C 84.2888,139.274 84.2888,140.107 85.5,141C 83.4835,141.674 81.8168,142.841 80.5,144.5C 79.8333,144.167 79.1667,143.833 78.5,143.5C 77.1585,145.005 75.4918,145.672 73.5,145.5C 73.67,146.822 73.3366,147.989 72.5,149C 66.1431,151.85 60.1431,155.35 54.5,159.5C 50.2108,159.975 46.8775,161.975 44.5,165.5C 40.1857,167.323 36.1857,169.656 32.5,172.5C 31.8333,172.167 31.1667,171.833 30.5,171.5C 25.4063,175.942 20.073,179.942 14.5,183.5C 14.5,177.167 14.5,170.833 14.5,164.5C 16.7843,163.113 19.2843,162.113 22,161.5C 23.9823,160.279 25.4823,158.612 26.5,156.5C 31.9862,154.286 36.9862,151.286 41.5,147.5C 42.1667,148.167 42.8333,148.833 43.5,149.5C 44.4143,147.336 45.581,145.336 47,143.5C 47.414,143.957 47.914,144.291 48.5,144.5C 55.871,140.152 62.871,135.319 69.5,130C 71.2072,129.805 72.8739,129.805 74.5,130C 74.0426,129.586 73.7093,129.086 73.5,128.5C 78.4922,126.004 83.1588,123.004 87.5,119.5C 89.7676,120.544 92.1009,120.711 94.5,120C 92.503,118.847 92.1696,117.347 93.5,115.5C 94.1667,115.833 94.8333,116.167 95.5,116.5C 99.6681,112.92 104.001,109.587 108.5,106.5C 110.603,108.88 111.77,108.213 112,104.5C 112.414,104.957 112.914,105.291 113.5,105.5C 117.176,100.993 121.843,97.9932 127.5,96.5C 128.743,94.1671 130.409,93.5004 132.5,94.5C 133.545,92.5995 134.878,90.9328 136.5,89.5C 137.167,89.8333 137.833,90.1667 138.5,90.5C 140.698,88.1399 143.365,86.8066 146.5,86.5C 146.286,82.7429 147.286,82.0762 149.5,84.5C 150.429,83.3112 150.762,81.9778 150.5,80.5C 152.199,80.6602 153.866,80.4935 155.5,80C 154.5,79.6667 153.5,79.3333 152.5,79C 159.963,78.0296 167.296,77.1963 174.5,76.5C 183.853,76.4209 193.187,75.9209 202.5,75C 180.857,73.6671 159.19,73.1671 137.5,73.5C 128.779,73.2246 120.113,73.5579 111.5,74.5C 111.833,73.5 112.5,72.8333 113.5,72.5 Z"/></g>
<g><path style="opacity:1" fill="#7879fe" d="M 198.5,72.5 C 209.218,72.2129 219.885,72.5462 230.5,73.5C 231.167,73.5 231.5,73.8333 231.5,74.5C 228.763,75.0515 226.096,76.0515 223.5,77.5C 222.393,76.9781 221.226,76.6448 220,76.5C 217.467,78.5477 214.634,79.881 211.5,80.5C 211.714,84.2571 210.714,84.9238 208.5,82.5C 203.757,87.0797 198.59,91.0797 193,94.5C 192.127,94.2645 191.293,93.9312 190.5,93.5C 185.181,97.1583 180.181,101.158 175.5,105.5C 173.533,104.318 172.2,104.985 171.5,107.5C 169.409,106.5 167.743,107.167 166.5,109.5C 163.582,110.87 160.582,111.87 157.5,112.5C 157.762,113.978 157.429,115.311 156.5,116.5C 153.536,114.879 151.536,115.712 150.5,119C 136.554,126.428 123.221,134.928 110.5,144.5C 109.833,144.167 109.167,143.833 108.5,143.5C 101.174,147.517 94.1742,152.183 87.5,157.5C 86.914,157.291 86.414,156.957 86,156.5C 85.2203,159.835 83.3869,161.168 80.5,160.5C 74.2653,164.99 67.932,169.323 61.5,173.5C 60.8076,172.975 60.3076,172.308 60,171.5C 54.2682,176.731 48.1015,181.397 41.5,185.5C 39.3227,184.496 38.9893,185.162 40.5,187.5C 39.6086,188.59 38.6086,188.59 37.5,187.5C 36.7568,188.908 35.9234,190.241 35,191.5C 34.6667,190.5 34.3333,189.5 34,188.5C 30.2573,191.621 26.424,194.621 22.5,197.5C 20.8647,198.681 19.198,198.681 17.5,197.5C 16.8589,198.993 15.8589,199.993 14.5,200.5C 14.5,194.833 14.5,189.167 14.5,183.5C 20.073,179.942 25.4063,175.942 30.5,171.5C 31.1667,171.833 31.8333,172.167 32.5,172.5C 36.1857,169.656 40.1857,167.323 44.5,165.5C 46.8775,161.975 50.2108,159.975 54.5,159.5C 60.1431,155.35 66.1431,151.85 72.5,149C 73.3366,147.989 73.67,146.822 73.5,145.5C 75.4918,145.672 77.1585,145.005 78.5,143.5C 79.1667,143.833 79.8333,144.167 80.5,144.5C 81.8168,142.841 83.4835,141.674 85.5,141C 84.2888,140.107 84.2888,139.274 85.5,138.5C 86.086,138.709 86.586,139.043 87,139.5C 91.8553,137.411 96.1886,134.411 100,130.5C 104.389,128.284 108.889,126.284 113.5,124.5C 114.453,122.545 115.787,120.878 117.5,119.5C 119.467,120.682 120.8,120.015 121.5,117.5C 128.044,114.977 133.877,111.311 139,106.5C 139.873,106.735 140.707,107.069 141.5,107.5C 142.545,105.599 143.878,103.933 145.5,102.5C 146.167,102.833 146.833,103.167 147.5,103.5C 150.105,100.996 152.771,98.6628 155.5,96.5C 158.946,95.6107 161.946,93.944 164.5,91.5C 165.086,91.7093 165.586,92.0426 166,92.5C 169.661,87.8194 174.495,84.9861 180.5,84C 181.337,82.9887 181.67,81.8221 181.5,80.5C 182.833,80.5 184.167,80.5 185.5,80.5C 185.281,79.325 185.614,78.325 186.5,77.5C 192.167,77.5 197.833,77.5 203.5,77.5C 204.308,77.1924 204.975,76.6924 205.5,76C 210.533,75.829 215.533,75.329 220.5,74.5C 213.011,73.8333 205.678,73.1666 198.5,72.5 Z"/></g>
<g><path style="opacity:1" fill="#7372fe" d="M 231.5,74.5 C 233.813,75.5005 235.813,76.8338 237.5,78.5C 237.5,79.5 237.5,80.5 237.5,81.5C 235.952,81.8212 235.285,82.8212 235.5,84.5C 233.436,84.687 231.436,85.187 229.5,86C 226.952,89.7667 223.618,91.6 219.5,91.5C 218.194,92.9122 217.36,94.5789 217,96.5C 216.107,95.9186 215.107,95.5852 214,95.5C 209.988,97.5787 206.488,100.245 203.5,103.5C 202.833,103.167 202.167,102.833 201.5,102.5C 199.679,103.728 198.679,105.394 198.5,107.5C 192.169,108.638 186.836,111.638 182.5,116.5C 180.482,115.187 179.315,115.853 179,118.5C 178.586,118.043 178.086,117.709 177.5,117.5C 176.8,120.015 175.467,120.682 173.5,119.5C 172.833,120.833 172.167,122.167 171.5,123.5C 170.833,122.833 170.167,122.167 169.5,121.5C 164.819,125.842 159.819,129.842 154.5,133.5C 153.914,133.291 153.414,132.957 153,132.5C 150.946,135.364 148.112,137.031 144.5,137.5C 140.774,140.897 136.774,143.897 132.5,146.5C 131.833,146.167 131.167,145.833 130.5,145.5C 124.755,149.577 118.755,153.244 112.5,156.5C 109.109,160.532 104.775,163.032 99.5,164C 100.668,165.406 100.335,166.572 98.5,167.5C 96.604,168.466 94.604,168.799 92.5,168.5C 92.005,171.997 90.1717,172.997 87,171.5C 86.6667,173.167 86.3333,174.833 86,176.5C 84.0823,172.968 82.5823,172.968 81.5,176.5C 79.1851,177.234 77.3518,178.568 76,180.5C 75.586,180.043 75.086,179.709 74.5,179.5C 71.3809,184.73 66.7142,187.397 60.5,187.5C 59.8848,189.116 58.8848,190.449 57.5,191.5C 52.1239,194.693 46.4573,197.026 40.5,198.5C 39.8203,202.322 37.487,203.989 33.5,203.5C 33.5,204.833 33.5,206.167 33.5,207.5C 30.0928,208.716 26.7595,210.216 23.5,212C 23.8333,212.333 24.1667,212.667 24.5,213C 23.5842,213.278 22.9175,213.778 22.5,214.5C 21.5,214.5 20.5,214.5 19.5,214.5C 18.1274,212.793 16.4607,211.46 14.5,210.5C 14.5,207.167 14.5,203.833 14.5,200.5C 15.8589,199.993 16.8589,198.993 17.5,197.5C 19.198,198.681 20.8647,198.681 22.5,197.5C 26.424,194.621 30.2573,191.621 34,188.5C 34.3333,189.5 34.6667,190.5 35,191.5C 35.9234,190.241 36.7568,188.908 37.5,187.5C 38.6086,188.59 39.6086,188.59 40.5,187.5C 38.9893,185.162 39.3227,184.496 41.5,185.5C 48.1015,181.397 54.2682,176.731 60,171.5C 60.3076,172.308 60.8076,172.975 61.5,173.5C 67.932,169.323 74.2653,164.99 80.5,160.5C 83.3869,161.168 85.2203,159.835 86,156.5C 86.414,156.957 86.914,157.291 87.5,157.5C 94.1742,152.183 101.174,147.517 108.5,143.5C 109.167,143.833 109.833,144.167 110.5,144.5C 123.221,134.928 136.554,126.428 150.5,119C 151.536,115.712 153.536,114.879 156.5,116.5C 157.429,115.311 157.762,113.978 157.5,112.5C 160.582,111.87 163.582,110.87 166.5,109.5C 167.743,107.167 169.409,106.5 171.5,107.5C 172.2,104.985 173.533,104.318 175.5,105.5C 180.181,101.158 185.181,97.1583 190.5,93.5C 191.293,93.9312 192.127,94.2645 193,94.5C 198.59,91.0797 203.757,87.0797 208.5,82.5C 210.714,84.9238 211.714,84.2571 211.5,80.5C 214.634,79.881 217.467,78.5477 220,76.5C 221.226,76.6448 222.393,76.9781 223.5,77.5C 226.096,76.0515 228.763,75.0515 231.5,74.5 Z"/></g>
<g><path style="opacity:1" fill="#8686ff" d="M 174.5,76.5 C 167.296,77.1963 159.963,78.0296 152.5,79C 153.5,79.3333 154.5,79.6667 155.5,80C 153.866,80.4935 152.199,80.6602 150.5,80.5C 150.762,81.9778 150.429,83.3112 149.5,84.5C 147.286,82.0762 146.286,82.7429 146.5,86.5C 143.365,86.8066 140.698,88.1399 138.5,90.5C 137.833,90.1667 137.167,89.8333 136.5,89.5C 134.878,90.9328 133.545,92.5995 132.5,94.5C 130.409,93.5004 128.743,94.1671 127.5,96.5C 121.843,97.9932 117.176,100.993 113.5,105.5C 112.914,105.291 112.414,104.957 112,104.5C 111.77,108.213 110.603,108.88 108.5,106.5C 104.001,109.587 99.6681,112.92 95.5,116.5C 94.8333,116.167 94.1667,115.833 93.5,115.5C 92.1696,117.347 92.503,118.847 94.5,120C 92.1009,120.711 89.7676,120.544 87.5,119.5C 83.1588,123.004 78.4922,126.004 73.5,128.5C 73.7093,129.086 74.0426,129.586 74.5,130C 72.8739,129.805 71.2072,129.805 69.5,130C 62.871,135.319 55.871,140.152 48.5,144.5C 47.914,144.291 47.414,143.957 47,143.5C 45.581,145.336 44.4143,147.336 43.5,149.5C 42.8333,148.833 42.1667,148.167 41.5,147.5C 36.9862,151.286 31.9862,154.286 26.5,156.5C 25.4823,158.612 23.9823,160.279 22,161.5C 19.2843,162.113 16.7843,163.113 14.5,164.5C 14.5,160.167 14.5,155.833 14.5,151.5C 16.4338,149.703 18.7671,148.703 21.5,148.5C 21.3802,145.795 22.3802,145.128 24.5,146.5C 28.1725,144.158 31.8392,141.824 35.5,139.5C 36.4478,136.285 37.7811,135.952 39.5,138.5C 41.5,136.5 43.5,134.5 45.5,132.5C 46.086,132.709 46.586,133.043 47,133.5C 48.9327,130.351 51.7661,129.018 55.5,129.5C 55.5,128.167 55.5,126.833 55.5,125.5C 58.6041,126.029 60.9375,125.029 62.5,122.5C 64.813,121.727 67.1463,121.06 69.5,120.5C 74.8649,115.308 80.6982,110.641 87,106.5C 89.411,108.153 90.5777,107.487 90.5,104.5C 91.8734,104.657 93.2068,104.49 94.5,104C 101.823,98.1751 109.823,93.6751 118.5,90.5C 118.5,89.1667 118.5,87.8333 118.5,86.5C 120.5,86.5 122.5,86.5 124.5,86.5C 124.5,85.1667 124.5,83.8333 124.5,82.5C 126.833,82.5 129.167,82.5 131.5,82.5C 131.5,81.5 131.5,80.5 131.5,79.5C 129.801,79.6602 128.134,79.4935 126.5,79C 142.464,77.5018 158.464,76.6684 174.5,76.5 Z"/></g>
<g><path style="opacity:1" fill="#8c8cff" d="M 137.5,73.5 C 159.19,73.1671 180.857,73.6671 202.5,75C 193.187,75.9209 183.853,76.4209 174.5,76.5C 158.464,76.6684 142.464,77.5018 126.5,79C 128.134,79.4935 129.801,79.6602 131.5,79.5C 131.5,80.5 131.5,81.5 131.5,82.5C 129.167,82.5 126.833,82.5 124.5,82.5C 124.5,83.8333 124.5,85.1667 124.5,86.5C 122.5,86.5 120.5,86.5 118.5,86.5C 118.5,87.8333 118.5,89.1667 118.5,90.5C 109.823,93.6751 101.823,98.1751 94.5,104C 93.2068,104.49 91.8734,104.657 90.5,104.5C 90.5777,107.487 89.411,108.153 87,106.5C 80.6982,110.641 74.8649,115.308 69.5,120.5C 67.1463,121.06 64.813,121.727 62.5,122.5C 60.9375,125.029 58.6041,126.029 55.5,125.5C 55.5,126.833 55.5,128.167 55.5,129.5C 51.7661,129.018 48.9327,130.351 47,133.5C 46.586,133.043 46.086,132.709 45.5,132.5C 43.5,134.5 41.5,136.5 39.5,138.5C 37.7811,135.952 36.4478,136.285 35.5,139.5C 31.8392,141.824 28.1725,144.158 24.5,146.5C 22.3802,145.128 21.3802,145.795 21.5,148.5C 18.7671,148.703 16.4338,149.703 14.5,151.5C 14.5,145.5 14.5,139.5 14.5,133.5C 17.0026,132.085 19.6693,130.918 22.5,130C 29.2317,125.64 35.565,120.807 41.5,115.5C 43.3671,118.229 44.3671,117.896 44.5,114.5C 50.3049,111.761 55.6383,108.261 60.5,104C 61.549,103.508 62.549,103.674 63.5,104.5C 65.4983,102.666 67.8316,101.666 70.5,101.5C 70.5,100.167 70.5,98.8333 70.5,97.5C 73.9264,97.728 76.593,96.3947 78.5,93.5C 80.6198,94.8715 81.6198,94.2048 81.5,91.5C 84.6457,90.9299 82.6457,90.4299 75.5,90C 80.6835,89.8261 85.6835,89.3261 90.5,88.5C 99.388,87.3895 107.055,83.5561 113.5,77C 127.497,76.2729 141.497,75.6062 155.5,75C 149.319,74.8276 143.319,74.3276 137.5,73.5 Z"/></g>
<g><path style="opacity:1" fill="#1f22e6" d="M 103.5,78.5 C 102.167,79.8333 100.833,81.1667 99.5,82.5C 98.8333,82.5 98.1667,82.5 97.5,82.5C 95.3453,82.372 93.3453,82.872 91.5,84C 67.8333,84.3333 44.1667,84.6667 20.5,85C 19.944,85.3826 19.6107,85.8826 19.5,86.5C 18.078,87.925 16.4113,88.925 14.5,89.5C 14.5,88.5 14.5,87.5 14.5,86.5C 16.5492,86.2942 16.8825,85.4609 15.5,84C 16.8593,81.6664 18.6926,79.8331 21,78.5C 32.9958,79.3869 45.1625,79.5536 57.5,79C 61.5896,75.7063 65.5896,75.873 69.5,79.5C 79.6364,78.7697 89.8031,78.103 100,77.5C 101.385,77.5143 102.551,77.8476 103.5,78.5 Z"/></g>
<g><path style="opacity:1" fill="#7776f8" d="M 111.5,74.5 C 108.343,78.3826 104.343,81.0492 99.5,82.5C 100.833,81.1667 102.167,79.8333 103.5,78.5C 106.167,77.1667 108.833,75.8333 111.5,74.5 Z"/></g>
<g><path style="opacity:1" fill="#6d6dff" d="M 237.5,81.5 C 237.5,85.1667 237.5,88.8333 237.5,92.5C 235.952,92.8212 235.285,93.8212 235.5,95.5C 234.022,95.238 232.689,95.5713 231.5,96.5C 227.485,99.5045 223.485,102.505 219.5,105.5C 218.914,105.291 218.414,104.957 218,104.5C 217.685,107.147 216.518,107.813 214.5,106.5C 210.745,108.088 207.745,110.588 205.5,114C 201.664,115.416 198.331,117.583 195.5,120.5C 194.707,120.069 193.873,119.735 193,119.5C 189.001,122.668 184.668,125.335 180,127.5C 179.228,127.355 178.561,127.022 178,126.5C 177.122,129.215 175.622,131.549 173.5,133.5C 172.833,133.167 172.167,132.833 171.5,132.5C 165.695,136.242 160.029,140.242 154.5,144.5C 153.914,144.291 153.414,143.957 153,143.5C 148.999,146.34 145.166,149.34 141.5,152.5C 137.039,154.617 132.539,156.617 128,158.5C 125.678,160.322 123.511,162.322 121.5,164.5C 120.167,163.167 118.833,163.167 117.5,164.5C 113.606,168.45 109.272,171.783 104.5,174.5C 100.534,176.378 96.5338,178.045 92.5,179.5C 92.5,180.833 92.5,182.167 92.5,183.5C 89.3908,183.655 86.3908,184.322 83.5,185.5C 79.1524,188.931 74.8191,192.264 70.5,195.5C 68.2933,196.635 65.9599,197.301 63.5,197.5C 63.5,198.5 63.5,199.5 63.5,200.5C 62.1779,200.67 61.0113,200.337 60,199.5C 59.7699,203.213 58.6032,203.88 56.5,201.5C 50.8981,206.273 44.8981,210.44 38.5,214C 45.5,214.333 52.5,214.667 59.5,215C 47.0911,215.812 34.7577,215.645 22.5,214.5C 22.9175,213.778 23.5842,213.278 24.5,213C 24.1667,212.667 23.8333,212.333 23.5,212C 26.7595,210.216 30.0928,208.716 33.5,207.5C 33.5,206.167 33.5,204.833 33.5,203.5C 37.487,203.989 39.8203,202.322 40.5,198.5C 46.4573,197.026 52.1239,194.693 57.5,191.5C 58.8848,190.449 59.8848,189.116 60.5,187.5C 66.7142,187.397 71.3809,184.73 74.5,179.5C 75.086,179.709 75.586,180.043 76,180.5C 77.3518,178.568 79.1851,177.234 81.5,176.5C 82.5823,172.968 84.0823,172.968 86,176.5C 86.3333,174.833 86.6667,173.167 87,171.5C 90.1717,172.997 92.005,171.997 92.5,168.5C 94.604,168.799 96.604,168.466 98.5,167.5C 100.335,166.572 100.668,165.406 99.5,164C 104.775,163.032 109.109,160.532 112.5,156.5C 118.755,153.244 124.755,149.577 130.5,145.5C 131.167,145.833 131.833,146.167 132.5,146.5C 136.774,143.897 140.774,140.897 144.5,137.5C 148.112,137.031 150.946,135.364 153,132.5C 153.414,132.957 153.914,133.291 154.5,133.5C 159.819,129.842 164.819,125.842 169.5,121.5C 170.167,122.167 170.833,122.833 171.5,123.5C 172.167,122.167 172.833,120.833 173.5,119.5C 175.467,120.682 176.8,120.015 177.5,117.5C 178.086,117.709 178.586,118.043 179,118.5C 179.315,115.853 180.482,115.187 182.5,116.5C 186.836,111.638 192.169,108.638 198.5,107.5C 198.679,105.394 199.679,103.728 201.5,102.5C 202.167,102.833 202.833,103.167 203.5,103.5C 206.488,100.245 209.988,97.5787 214,95.5C 215.107,95.5852 216.107,95.9186 217,96.5C 217.36,94.5789 218.194,92.9122 219.5,91.5C 223.618,91.6 226.952,89.7667 229.5,86C 231.436,85.187 233.436,84.687 235.5,84.5C 235.285,82.8212 235.952,81.8212 237.5,81.5 Z"/></g>
<g><path style="opacity:1" fill="#8d8df6" d="M 97.5,82.5 C 97.5,82.8333 97.5,83.1667 97.5,83.5C 94.7847,85.123 91.7847,85.7896 88.5,85.5C 65.7583,85.1778 43.0916,85.5111 20.5,86.5C 20.1667,86.5 19.8333,86.5 19.5,86.5C 19.6107,85.8826 19.944,85.3826 20.5,85C 44.1667,84.6667 67.8333,84.3333 91.5,84C 93.3453,82.872 95.3453,82.372 97.5,82.5 Z"/></g>
<g><path style="opacity:1" fill="#c3c0fe" d="M 88.5,85.5 C 67.0084,86.7218 45.3418,87.5551 23.5,88C 20.4024,90.368 19.4024,89.868 20.5,86.5C 43.0916,85.5111 65.7583,85.1778 88.5,85.5 Z"/></g>
<g><path style="opacity:1" fill="#abaafe" d="M 97.5,83.5 C 98.675,83.281 99.675,83.6143 100.5,84.5C 98.8872,85.4274 97.2205,86.2607 95.5,87C 88.9867,87.1721 82.6534,87.6721 76.5,88.5C 74.5,88.5 72.5,88.5 70.5,88.5C 55.163,88.3334 39.8297,88.5001 24.5,89C 22.5,89.8333 20.5,90.6667 18.5,91.5C 17.3901,93.2004 16.0568,94.5337 14.5,95.5C 14.5,93.5 14.5,91.5 14.5,89.5C 16.4113,88.925 18.078,87.925 19.5,86.5C 19.8333,86.5 20.1667,86.5 20.5,86.5C 19.4024,89.868 20.4024,90.368 23.5,88C 45.3418,87.5551 67.0084,86.7218 88.5,85.5C 91.7847,85.7896 94.7847,85.123 97.5,83.5 Z"/></g>
<g><path style="opacity:1" fill="#9d9cfe" d="M 137.5,73.5 C 143.319,74.3276 149.319,74.8276 155.5,75C 141.497,75.6062 127.497,76.2729 113.5,77C 107.055,83.5561 99.388,87.3895 90.5,88.5C 85.8333,88.5 81.1667,88.5 76.5,88.5C 82.6534,87.6721 88.9867,87.1721 95.5,87C 97.2205,86.2607 98.8872,85.4274 100.5,84.5C 99.675,83.6143 98.675,83.281 97.5,83.5C 97.5,83.1667 97.5,82.8333 97.5,82.5C 98.1667,82.5 98.8333,82.5 99.5,82.5C 104.343,81.0492 108.343,78.3826 111.5,74.5C 120.113,73.5579 128.779,73.2246 137.5,73.5 Z"/></g>
<g><path style="opacity:1" fill="#9998ff" d="M 70.5,88.5 C 63.011,89.329 55.3443,89.829 47.5,90C 50.8333,90.3333 54.1667,90.6667 57.5,91C 51.4504,95.0887 45.4504,99.2554 39.5,103.5C 38.8333,103.167 38.1667,102.833 37.5,102.5C 30.2216,107.965 22.5549,112.632 14.5,116.5C 14.5,109.5 14.5,102.5 14.5,95.5C 16.0568,94.5337 17.3901,93.2004 18.5,91.5C 20.5,90.6667 22.5,89.8333 24.5,89C 39.8297,88.5001 55.163,88.3334 70.5,88.5 Z"/></g>
<g><path style="opacity:1" fill="#9292ff" d="M 70.5,88.5 C 72.5,88.5 74.5,88.5 76.5,88.5C 81.1667,88.5 85.8333,88.5 90.5,88.5C 85.6835,89.3261 80.6835,89.8261 75.5,90C 82.6457,90.4299 84.6457,90.9299 81.5,91.5C 81.6198,94.2048 80.6198,94.8715 78.5,93.5C 76.593,96.3947 73.9264,97.728 70.5,97.5C 70.5,98.8333 70.5,100.167 70.5,101.5C 67.8316,101.666 65.4983,102.666 63.5,104.5C 62.549,103.674 61.549,103.508 60.5,104C 55.6383,108.261 50.3049,111.761 44.5,114.5C 44.3671,117.896 43.3671,118.229 41.5,115.5C 35.565,120.807 29.2317,125.64 22.5,130C 19.6693,130.918 17.0026,132.085 14.5,133.5C 14.5,127.833 14.5,122.167 14.5,116.5C 22.5549,112.632 30.2216,107.965 37.5,102.5C 38.1667,102.833 38.8333,103.167 39.5,103.5C 45.4504,99.2554 51.4504,95.0887 57.5,91C 54.1667,90.6667 50.8333,90.3333 47.5,90C 55.3443,89.829 63.011,89.329 70.5,88.5 Z"/></g>
<g><path style="opacity:1" fill="#6767fe" d="M 237.5,92.5 C 237.5,97.8333 237.5,103.167 237.5,108.5C 235.553,109.473 233.553,110.473 231.5,111.5C 228.463,113.707 225.796,116.374 223.5,119.5C 221.597,119.306 219.763,119.306 218,119.5C 209.459,125.971 200.626,131.971 191.5,137.5C 189.604,138.466 187.604,138.799 185.5,138.5C 185.5,139.833 185.5,141.167 185.5,142.5C 179.81,143.929 174.476,146.262 169.5,149.5C 165.689,153.24 161.356,156.24 156.5,158.5C 156.081,159.672 155.415,160.672 154.5,161.5C 152.495,158.972 150.829,159.305 149.5,162.5C 145.703,165.089 141.703,167.256 137.5,169C 136.018,170.983 134.351,172.816 132.5,174.5C 129.733,172.884 127.733,173.551 126.5,176.5C 122.243,177.81 118.243,179.477 114.5,181.5C 114.5,182.833 114.5,184.167 114.5,185.5C 112.194,185.993 109.861,186.326 107.5,186.5C 106.859,190.33 105.193,190.996 102.5,188.5C 100.833,190.5 99.1667,192.5 97.5,194.5C 91.3498,198.154 85.0164,201.487 78.5,204.5C 77.6143,205.325 77.281,206.325 77.5,207.5C 72.2668,206.97 69.2668,209.303 68.5,214.5C 73.5111,214.334 78.5111,214.501 83.5,215C 79.6437,215.177 75.977,215.677 72.5,216.5C 56.1667,216.5 39.8333,216.5 23.5,216.5C 22.8333,216.5 22.1667,216.5 21.5,216.5C 20.8333,215.833 20.1667,215.167 19.5,214.5C 20.5,214.5 21.5,214.5 22.5,214.5C 34.7577,215.645 47.0911,215.812 59.5,215C 52.5,214.667 45.5,214.333 38.5,214C 44.8981,210.44 50.8981,206.273 56.5,201.5C 58.6032,203.88 59.7699,203.213 60,199.5C 61.0113,200.337 62.1779,200.67 63.5,200.5C 63.5,199.5 63.5,198.5 63.5,197.5C 65.9599,197.301 68.2933,196.635 70.5,195.5C 74.8191,192.264 79.1524,188.931 83.5,185.5C 86.3908,184.322 89.3908,183.655 92.5,183.5C 92.5,182.167 92.5,180.833 92.5,179.5C 96.5338,178.045 100.534,176.378 104.5,174.5C 109.272,171.783 113.606,168.45 117.5,164.5C 118.833,163.167 120.167,163.167 121.5,164.5C 123.511,162.322 125.678,160.322 128,158.5C 132.539,156.617 137.039,154.617 141.5,152.5C 145.166,149.34 148.999,146.34 153,143.5C 153.414,143.957 153.914,144.291 154.5,144.5C 160.029,140.242 165.695,136.242 171.5,132.5C 172.167,132.833 172.833,133.167 173.5,133.5C 175.622,131.549 177.122,129.215 178,126.5C 178.561,127.022 179.228,127.355 180,127.5C 184.668,125.335 189.001,122.668 193,119.5C 193.873,119.735 194.707,120.069 195.5,120.5C 198.331,117.583 201.664,115.416 205.5,114C 207.745,110.588 210.745,108.088 214.5,106.5C 216.518,107.813 217.685,107.147 218,104.5C 218.414,104.957 218.914,105.291 219.5,105.5C 223.485,102.505 227.485,99.5045 231.5,96.5C 232.689,95.5713 234.022,95.238 235.5,95.5C 235.285,93.8212 235.952,92.8212 237.5,92.5 Z"/></g>
<g><path style="opacity:1" fill="#6061fe" d="M 237.5,108.5 C 237.5,114.167 237.5,119.833 237.5,125.5C 234.082,125.577 231.749,127.243 230.5,130.5C 226.281,131.609 222.281,133.275 218.5,135.5C 218.833,136.167 219.167,136.833 219.5,137.5C 214.703,138.962 210.369,141.296 206.5,144.5C 205.914,144.291 205.414,143.957 205,143.5C 204.355,144.646 203.522,145.646 202.5,146.5C 198.5,148.5 194.5,150.5 190.5,152.5C 187.384,155.232 184.051,157.732 180.5,160C 178,160.375 175.667,161.208 173.5,162.5C 171.104,165.235 168.437,167.568 165.5,169.5C 157.06,173.682 148.893,178.349 141,183.5C 139.56,184.148 138.06,184.481 136.5,184.5C 136.881,186.942 136.214,187.609 134.5,186.5C 133.833,187.5 133.167,188.5 132.5,189.5C 126.697,191.484 121.53,194.484 117,198.5C 116.228,198.355 115.561,198.022 115,197.5C 114.716,199.886 113.716,200.552 112,199.5C 108.406,201.424 105.406,204.09 103,207.5C 101.442,206.655 100.442,207.321 100,209.5C 99.586,209.043 99.086,208.709 98.5,208.5C 97.0488,210.559 95.0488,211.559 92.5,211.5C 92.5,212.5 92.5,213.5 92.5,214.5C 95.5184,214.335 98.5184,214.502 101.5,215C 98.3054,215.181 95.3054,215.681 92.5,216.5C 85.8333,216.5 79.1667,216.5 72.5,216.5C 75.977,215.677 79.6437,215.177 83.5,215C 78.5111,214.501 73.5111,214.334 68.5,214.5C 69.2668,209.303 72.2668,206.97 77.5,207.5C 77.281,206.325 77.6143,205.325 78.5,204.5C 85.0164,201.487 91.3498,198.154 97.5,194.5C 99.1667,192.5 100.833,190.5 102.5,188.5C 105.193,190.996 106.859,190.33 107.5,186.5C 109.861,186.326 112.194,185.993 114.5,185.5C 114.5,184.167 114.5,182.833 114.5,181.5C 118.243,179.477 122.243,177.81 126.5,176.5C 127.733,173.551 129.733,172.884 132.5,174.5C 134.351,172.816 136.018,170.983 137.5,169C 141.703,167.256 145.703,165.089 149.5,162.5C 150.829,159.305 152.495,158.972 154.5,161.5C 155.415,160.672 156.081,159.672 156.5,158.5C 161.356,156.24 165.689,153.24 169.5,149.5C 174.476,146.262 179.81,143.929 185.5,142.5C 185.5,141.167 185.5,139.833 185.5,138.5C 187.604,138.799 189.604,138.466 191.5,137.5C 200.626,131.971 209.459,125.971 218,119.5C 219.763,119.306 221.597,119.306 223.5,119.5C 225.796,116.374 228.463,113.707 231.5,111.5C 233.553,110.473 235.553,109.473 237.5,108.5 Z"/></g>
<g><path style="opacity:1" fill="#595afe" d="M 237.5,125.5 C 237.5,131.167 237.5,136.833 237.5,142.5C 236.265,142.721 235.265,143.388 234.5,144.5C 233.833,143.833 233.167,143.167 232.5,142.5C 231.5,143.833 230.5,145.167 229.5,146.5C 228.833,146.167 228.167,145.833 227.5,145.5C 221.408,149.673 215.408,154.007 209.5,158.5C 206.609,159.678 203.609,160.345 200.5,160.5C 200.5,161.833 200.5,163.167 200.5,164.5C 197.657,164.917 194.99,165.917 192.5,167.5C 184.154,172.842 175.821,178.175 167.5,183.5C 166.264,184.246 164.93,184.579 163.5,184.5C 163.62,187.205 162.62,187.872 160.5,186.5C 154.483,190.192 148.483,193.859 142.5,197.5C 140.926,198.984 139.593,200.651 138.5,202.5C 137.833,202.167 137.167,201.833 136.5,201.5C 129.441,205.152 122.775,209.319 116.5,214C 118.708,214.191 120.708,214.691 122.5,215.5C 121.508,215.328 120.842,215.662 120.5,216.5C 111.167,216.5 101.833,216.5 92.5,216.5C 95.3054,215.681 98.3054,215.181 101.5,215C 98.5184,214.502 95.5184,214.335 92.5,214.5C 92.5,213.5 92.5,212.5 92.5,211.5C 95.0488,211.559 97.0488,210.559 98.5,208.5C 99.086,208.709 99.586,209.043 100,209.5C 100.442,207.321 101.442,206.655 103,207.5C 105.406,204.09 108.406,201.424 112,199.5C 113.716,200.552 114.716,199.886 115,197.5C 115.561,198.022 116.228,198.355 117,198.5C 121.53,194.484 126.697,191.484 132.5,189.5C 133.167,188.5 133.833,187.5 134.5,186.5C 136.214,187.609 136.881,186.942 136.5,184.5C 138.06,184.481 139.56,184.148 141,183.5C 148.893,178.349 157.06,173.682 165.5,169.5C 168.437,167.568 171.104,165.235 173.5,162.5C 175.667,161.208 178,160.375 180.5,160C 184.051,157.732 187.384,155.232 190.5,152.5C 194.5,150.5 198.5,148.5 202.5,146.5C 203.522,145.646 204.355,144.646 205,143.5C 205.414,143.957 205.914,144.291 206.5,144.5C 210.369,141.296 214.703,138.962 219.5,137.5C 219.167,136.833 218.833,136.167 218.5,135.5C 222.281,133.275 226.281,131.609 230.5,130.5C 231.749,127.243 234.082,125.577 237.5,125.5 Z"/></g>
<g><path style="opacity:1" fill="#5353ff" d="M 237.5,142.5 C 237.5,145.5 237.5,148.5 237.5,151.5C 234.621,152.436 232.288,154.103 230.5,156.5C 228.604,157.466 226.604,157.799 224.5,157.5C 224.5,158.5 224.5,159.5 224.5,160.5C 219.441,162.527 214.441,164.861 209.5,167.5C 202.899,171.809 196.232,176.142 189.5,180.5C 187.01,182.083 184.343,183.083 181.5,183.5C 181.762,184.978 181.429,186.311 180.5,187.5C 179.914,187.291 179.414,186.957 179,186.5C 178.685,189.147 177.518,189.813 175.5,188.5C 172.661,190.42 169.661,192.087 166.5,193.5C 163.914,195.814 161.248,198.147 158.5,200.5C 155.833,199.167 155.167,199.833 156.5,202.5C 154.993,203.739 153.826,203.405 153,201.5C 149.758,204.205 146.258,206.539 142.5,208.5C 140.926,209.984 139.593,211.651 138.5,213.5C 137.391,212.41 136.391,212.41 135.5,213.5C 138.447,214.321 141.447,214.821 144.5,215C 137.174,215.5 129.841,215.666 122.5,215.5C 120.708,214.691 118.708,214.191 116.5,214C 122.775,209.319 129.441,205.152 136.5,201.5C 137.167,201.833 137.833,202.167 138.5,202.5C 139.593,200.651 140.926,198.984 142.5,197.5C 148.483,193.859 154.483,190.192 160.5,186.5C 162.62,187.872 163.62,187.205 163.5,184.5C 164.93,184.579 166.264,184.246 167.5,183.5C 175.821,178.175 184.154,172.842 192.5,167.5C 194.99,165.917 197.657,164.917 200.5,164.5C 200.5,163.167 200.5,161.833 200.5,160.5C 203.609,160.345 206.609,159.678 209.5,158.5C 215.408,154.007 221.408,149.673 227.5,145.5C 228.167,145.833 228.833,146.167 229.5,146.5C 230.5,145.167 231.5,143.833 232.5,142.5C 233.167,143.167 233.833,143.833 234.5,144.5C 235.265,143.388 236.265,142.721 237.5,142.5 Z"/></g>
<g><path style="opacity:1" fill="#4c4efe" d="M 237.5,151.5 C 237.5,157.833 237.5,164.167 237.5,170.5C 233.837,169.995 231.503,171.495 230.5,175C 228.324,175.163 226.491,175.996 225,177.5C 224.692,176.692 224.192,176.025 223.5,175.5C 222.571,176.689 222.238,178.022 222.5,179.5C 214.096,181.537 207.096,185.87 201.5,192.5C 200.497,190.458 199.163,190.125 197.5,191.5C 196.455,193.401 195.122,195.067 193.5,196.5C 192.914,196.291 192.414,195.957 192,195.5C 189.151,197.744 186.317,200.078 183.5,202.5C 179.859,202.795 177.025,204.461 175,207.5C 174.586,207.043 174.086,206.709 173.5,206.5C 172.946,210.428 170.946,211.761 167.5,210.5C 166.614,211.325 166.281,212.325 166.5,213.5C 164.876,213.64 163.71,212.973 163,211.5C 162.51,212.793 162.343,214.127 162.5,215.5C 158.298,215.183 154.298,215.517 150.5,216.5C 140.5,216.5 130.5,216.5 120.5,216.5C 120.842,215.662 121.508,215.328 122.5,215.5C 129.841,215.666 137.174,215.5 144.5,215C 141.447,214.821 138.447,214.321 135.5,213.5C 136.391,212.41 137.391,212.41 138.5,213.5C 139.593,211.651 140.926,209.984 142.5,208.5C 146.258,206.539 149.758,204.205 153,201.5C 153.826,203.405 154.993,203.739 156.5,202.5C 155.167,199.833 155.833,199.167 158.5,200.5C 161.248,198.147 163.914,195.814 166.5,193.5C 169.661,192.087 172.661,190.42 175.5,188.5C 177.518,189.813 178.685,189.147 179,186.5C 179.414,186.957 179.914,187.291 180.5,187.5C 181.429,186.311 181.762,184.978 181.5,183.5C 184.343,183.083 187.01,182.083 189.5,180.5C 196.232,176.142 202.899,171.809 209.5,167.5C 214.441,164.861 219.441,162.527 224.5,160.5C 224.5,159.5 224.5,158.5 224.5,157.5C 226.604,157.799 228.604,157.466 230.5,156.5C 232.288,154.103 234.621,152.436 237.5,151.5 Z"/></g>
<g><path style="opacity:1" fill="#4445fe" d="M 237.5,170.5 C 237.5,177.5 237.5,184.5 237.5,191.5C 234.971,193.933 231.971,195.599 228.5,196.5C 228.5,197.5 228.5,198.5 228.5,199.5C 223.902,199.302 220.235,200.968 217.5,204.5C 215.604,205.466 213.604,205.799 211.5,205.5C 211.762,206.978 211.429,208.311 210.5,209.5C 208.246,210.124 206.579,211.457 205.5,213.5C 204.833,212.5 204.167,211.5 203.5,210.5C 201.972,211.861 200.305,213.028 198.5,214C 201.675,213.947 204.342,214.78 206.5,216.5C 187.833,216.5 169.167,216.5 150.5,216.5C 154.298,215.517 158.298,215.183 162.5,215.5C 162.343,214.127 162.51,212.793 163,211.5C 163.71,212.973 164.876,213.64 166.5,213.5C 166.281,212.325 166.614,211.325 167.5,210.5C 170.946,211.761 172.946,210.428 173.5,206.5C 174.086,206.709 174.586,207.043 175,207.5C 177.025,204.461 179.859,202.795 183.5,202.5C 186.317,200.078 189.151,197.744 192,195.5C 192.414,195.957 192.914,196.291 193.5,196.5C 195.122,195.067 196.455,193.401 197.5,191.5C 199.163,190.125 200.497,190.458 201.5,192.5C 207.096,185.87 214.096,181.537 222.5,179.5C 222.238,178.022 222.571,176.689 223.5,175.5C 224.192,176.025 224.692,176.692 225,177.5C 226.491,175.996 228.324,175.163 230.5,175C 231.503,171.495 233.837,169.995 237.5,170.5 Z"/></g>
<g><path style="opacity:1" fill="#3b3cfe" d="M 237.5,191.5 C 237.5,197.833 237.5,204.167 237.5,210.5C 235.4,212.906 232.734,214.573 229.5,215.5C 221.862,216.497 214.196,216.831 206.5,216.5C 204.342,214.78 201.675,213.947 198.5,214C 200.305,213.028 201.972,211.861 203.5,210.5C 204.167,211.5 204.833,212.5 205.5,213.5C 206.579,211.457 208.246,210.124 210.5,209.5C 211.429,208.311 211.762,206.978 211.5,205.5C 213.604,205.799 215.604,205.466 217.5,204.5C 220.235,200.968 223.902,199.302 228.5,199.5C 228.5,198.5 228.5,197.5 228.5,196.5C 231.971,195.599 234.971,193.933 237.5,191.5 Z"/></g>
<g><path style="opacity:0.303" fill="#7479f3" d="M 14.5,213.5 C 16.1765,214.183 16.8432,215.517 16.5,217.5C 15.3263,216.486 14.6596,215.153 14.5,213.5 Z"/></g>
<g><path style="opacity:0.424" fill="#4854e2" d="M 236.5,214.5 C 236.167,217.5 234.5,219.167 231.5,219.5C 231.527,217.801 232.194,216.467 233.5,215.5C 234.391,214.89 235.391,214.557 236.5,214.5 Z"/></g>
<g><path style="opacity:1" fill="#3a40ef" d="M 14.5,210.5 C 16.4607,211.46 18.1274,212.793 19.5,214.5C 20.1667,215.167 20.8333,215.833 21.5,216.5C 20.8902,217.391 20.5569,218.391 20.5,219.5C 18.8007,219.473 17.4674,218.806 16.5,217.5C 16.8432,215.517 16.1765,214.183 14.5,213.5C 14.5,212.5 14.5,211.5 14.5,210.5 Z"/></g>
<g><path style="opacity:1" fill="#242fe7" d="M 21.5,216.5 C 22.1667,216.5 22.8333,216.5 23.5,216.5C 56.6642,217.332 89.9975,217.832 123.5,218C 119.113,218.226 114.779,218.726 110.5,219.5C 108.775,217.908 107.775,218.242 107.5,220.5C 78.4262,220.825 49.4262,220.491 20.5,219.5C 20.5569,218.391 20.8902,217.391 21.5,216.5 Z"/></g>
<g><path style="opacity:1" fill="#2e38e6" d="M 237.5,210.5 C 237.567,211.959 237.234,213.292 236.5,214.5C 235.391,214.557 234.391,214.89 233.5,215.5C 225.626,216.966 217.626,217.966 209.5,218.5C 207.709,219.17 206.042,219.837 204.5,220.5C 172.167,220.5 139.833,220.5 107.5,220.5C 107.775,218.242 108.775,217.908 110.5,219.5C 114.779,218.726 119.113,218.226 123.5,218C 89.9975,217.832 56.6642,217.332 23.5,216.5C 39.8333,216.5 56.1667,216.5 72.5,216.5C 79.1667,216.5 85.8333,216.5 92.5,216.5C 101.833,216.5 111.167,216.5 120.5,216.5C 130.5,216.5 140.5,216.5 150.5,216.5C 169.167,216.5 187.833,216.5 206.5,216.5C 214.196,216.831 221.862,216.497 229.5,215.5C 232.734,214.573 235.4,212.906 237.5,210.5 Z"/></g>
<g><path style="opacity:1" fill="#323dde" d="M 233.5,215.5 C 232.194,216.467 231.527,217.801 231.5,219.5C 222.584,220.471 213.584,220.804 204.5,220.5C 206.042,219.837 207.709,219.17 209.5,218.5C 217.626,217.966 225.626,216.966 233.5,215.5 Z"/></g>
</svg>
