<?xml version="1.0" encoding="UTF-8"?>
<!DOCTYPE svg PUBLIC "-//W3C//DTD SVG 1.1//EN" "http://www.w3.org/Graphics/SVG/1.1/DTD/svg11.dtd">
<svg xmlns="http://www.w3.org/2000/svg" version="1.1" width="250px" height="250px" style="shape-rendering:geometricPrecision; text-rendering:geometricPrecision; image-rendering:optimizeQuality; fill-rule:evenodd; clip-rule:evenodd" xmlns:xlink="http://www.w3.org/1999/xlink">
<g><path style="opacity:1" fill="#19fbc2" d="M 23.5,43.5 C 33.6447,44.8321 44.1447,45.4987 55,45.5C 65.8553,45.4987 76.3553,44.8321 86.5,43.5C 87.7079,44.2341 89.0413,44.5674 90.5,44.5C 90.5,45.5 90.5,46.5 90.5,47.5C 91.791,47.2627 92.791,47.596 93.5,48.5C 92.647,51.2933 93.647,51.9599 96.5,50.5C 99.7939,51.9662 99.9606,53.2995 97,54.5C 95.4495,53.9465 93.9495,53.2798 92.5,52.5C 88.2085,54.362 84.2085,56.6954 80.5,59.5C 79.8333,59.1667 79.1667,58.8333 78.5,58.5C 76.0388,61.0917 74.3722,64.0917 73.5,67.5C 71.857,67.5198 70.5237,66.8532 69.5,65.5C 67.5,67.5 65.5,69.5 63.5,71.5C 62.2798,70.2889 61.1131,70.2889 60,71.5C 58.9141,69.153 57.5808,69.153 56,71.5C 54.1886,70.9221 52.3553,70.4221 50.5,70C 48.9996,66.9886 48.1663,67.4886 48,71.5C 47.043,69.2908 45.8764,69.4575 44.5,72C 33.8384,71.2753 23.8384,73.442 14.5,78.5C 14.3335,69.1607 14.5002,59.8274 15,50.5C 17.1072,47.2208 19.9406,44.8874 23.5,43.5 Z"/></g>
<g><path style="opacity:1" fill="#52fdd2" d="M 23.5,43.5 C 44.5,43.5 65.5,43.5 86.5,43.5C 76.3553,44.8321 65.8553,45.4987 55,45.5C 44.1447,45.4987 33.6447,44.8321 23.5,43.5 Z"/></g>
<g><path style="opacity:0.929" fill="#42facc" d="M 90.5,44.5 C 92.7844,45.0292 94.7844,46.0292 96.5,47.5C 95.791,48.404 94.791,48.7373 93.5,48.5C 92.791,47.596 91.791,47.2627 90.5,47.5C 90.5,46.5 90.5,45.5 90.5,44.5 Z"/></g>
<g><path style="opacity:0.994" fill="#1cf6be" d="M 96.5,47.5 C 98.8818,49.215 100.882,51.215 102.5,53.5C 103.142,57.1327 105.142,59.4661 108.5,60.5C 109.167,61.5 109.833,62.5 110.5,63.5C 109.965,66.2385 110.965,68.0718 113.5,69C 152.002,69.8312 190.336,69.6645 228.5,68.5C 229.167,68.5 229.833,68.5 230.5,68.5C 230.649,69.552 230.483,70.552 230,71.5C 191.905,70.3372 153.738,70.1705 115.5,71C 114.944,71.3826 114.611,71.8826 114.5,72.5C 113.833,72.5 113.167,72.5 112.5,72.5C 109.956,72.1043 107.789,72.771 106,74.5C 98.3072,73.5075 90.4739,73.8408 82.5,75.5C 81.8333,75.1667 81.1667,74.8333 80.5,74.5C 65.8793,75.6043 51.2127,76.4376 36.5,77C 32.181,77.7599 27.8477,78.4265 23.5,79C 19.934,79.6691 16.934,81.1691 14.5,83.5C 14.5,81.8333 14.5,80.1667 14.5,78.5C 23.8384,73.442 33.8384,71.2753 44.5,72C 45.8764,69.4575 47.043,69.2908 48,71.5C 48.1663,67.4886 48.9996,66.9886 50.5,70C 52.3553,70.4221 54.1886,70.9221 56,71.5C 57.5808,69.153 58.9141,69.153 60,71.5C 61.1131,70.2889 62.2798,70.2889 63.5,71.5C 65.5,69.5 67.5,67.5 69.5,65.5C 70.5237,66.8532 71.857,67.5198 73.5,67.5C 74.3722,64.0917 76.0388,61.0917 78.5,58.5C 79.1667,58.8333 79.8333,59.1667 80.5,59.5C 84.2085,56.6954 88.2085,54.362 92.5,52.5C 93.9495,53.2798 95.4495,53.9465 97,54.5C 99.9606,53.2995 99.7939,51.9662 96.5,50.5C 93.647,51.9599 92.647,51.2933 93.5,48.5C 94.791,48.7373 95.791,48.404 96.5,47.5 Z"/></g>
<g><path style="opacity:0.145" fill="#50f9cc" d="M 102.5,53.5 C 104.5,54.1667 105.833,55.5 106.5,57.5C 106.5,58.8333 107.167,59.5 108.5,59.5C 108.5,59.8333 108.5,60.1667 108.5,60.5C 105.142,59.4661 103.142,57.1327 102.5,53.5 Z"/></g>
<g><path style="opacity:0.137" fill="#81fadb" d="M 106.5,57.5 C 107.833,57.5 108.5,58.1667 108.5,59.5C 108.5,58.1667 107.833,57.5 106.5,57.5 Z"/></g>
<g><path style="opacity:0.391" fill="#34f3c0" d="M 110.5,63.5 C 111.643,63.9081 112.643,64.5748 113.5,65.5C 152.175,65.8364 190.509,66.8364 228.5,68.5C 190.336,69.6645 152.002,69.8312 113.5,69C 110.965,68.0718 109.965,66.2385 110.5,63.5 Z"/></g>
<g><path style="opacity:1" fill="#3df4c4" d="M 230.5,68.5 C 231.167,68.5 231.833,68.5 232.5,68.5C 232.369,71.3667 233.703,73.0334 236.5,73.5C 237.341,75.3792 237.675,77.3792 237.5,79.5C 235.722,77.6684 233.722,76.0018 231.5,74.5C 231.389,73.8826 231.056,73.3826 230.5,73C 207.502,72.5 184.502,72.3334 161.5,72.5C 145.833,72.5 130.167,72.5 114.5,72.5C 114.611,71.8826 114.944,71.3826 115.5,71C 153.738,70.1705 191.905,70.3372 230,71.5C 230.483,70.552 230.649,69.552 230.5,68.5 Z"/></g>
<g><path style="opacity:0.276" fill="#7af4d4" d="M 232.5,68.5 C 234.929,69.2648 236.262,70.9315 236.5,73.5C 233.703,73.0334 232.369,71.3667 232.5,68.5 Z"/></g>
<g><path style="opacity:1" fill="#7ffee1" d="M 187.5,73.5 C 198.518,73.5565 209.518,74.0565 220.5,75C 209.727,75.373 199.06,76.5397 188.5,78.5C 186.38,77.1285 185.38,77.7952 185.5,80.5C 180.817,83.2698 175.817,85.6031 170.5,87.5C 168.815,89.0175 167.315,90.6841 166,92.5C 165.586,92.0426 165.086,91.7093 164.5,91.5C 161.946,93.944 158.946,95.6107 155.5,96.5C 152.771,98.6628 150.105,100.996 147.5,103.5C 146.833,103.167 146.167,102.833 145.5,102.5C 143.878,103.933 142.545,105.599 141.5,107.5C 140.707,107.069 139.873,106.735 139,106.5C 133.877,111.311 128.044,114.977 121.5,117.5C 120.8,120.015 119.467,120.682 117.5,119.5C 115.787,120.878 114.453,122.545 113.5,124.5C 108.889,126.284 104.389,128.284 100,130.5C 96.1886,134.411 91.8553,137.411 87,139.5C 86.586,139.043 86.086,138.709 85.5,138.5C 84.2888,139.274 84.2888,140.107 85.5,141C 83.4835,141.674 81.8168,142.841 80.5,144.5C 79.8333,144.167 79.1667,143.833 78.5,143.5C 77.1585,145.005 75.4918,145.672 73.5,145.5C 73.67,146.822 73.3366,147.989 72.5,149C 66.1431,151.85 60.1431,155.35 54.5,159.5C 50.2108,159.975 46.8775,161.975 44.5,165.5C 40.1857,167.323 36.1857,169.656 32.5,172.5C 31.8333,172.167 31.1667,171.833 30.5,171.5C 25.4063,175.942 20.073,179.942 14.5,183.5C 14.5,177.167 14.5,170.833 14.5,164.5C 16.7843,163.113 19.2843,162.113 22,161.5C 23.9823,160.279 25.4823,158.612 26.5,156.5C 31.9862,154.286 36.9862,151.286 41.5,147.5C 42.1667,147.833 42.8333,148.167 43.5,148.5C 44.5968,146.771 45.7635,145.104 47,143.5C 47.414,143.957 47.914,144.291 48.5,144.5C 55.871,140.152 62.871,135.319 69.5,130C 71.2072,129.805 72.8739,129.805 74.5,130C 74.0426,129.586 73.7093,129.086 73.5,128.5C 78.4922,126.004 83.1588,123.004 87.5,119.5C 89.0709,120.309 90.7376,120.643 92.5,120.5C 92.2148,118.712 92.5481,117.045 93.5,115.5C 94.1667,115.833 94.8333,116.167 95.5,116.5C 107.118,109.009 118.784,101.342 130.5,93.5C 131.167,93.8333 131.833,94.1667 132.5,94.5C 133.545,92.5995 134.878,90.9328 136.5,89.5C 137.167,89.8333 137.833,90.1667 138.5,90.5C 140.698,88.1399 143.365,86.8066 146.5,86.5C 146.5,85.1667 146.5,83.8333 146.5,82.5C 149.487,81.7422 152.487,80.9089 155.5,80C 154.5,79.6667 153.5,79.3333 152.5,79C 169.121,77.2276 185.788,75.8942 202.5,75C 197.316,74.8261 192.316,74.3261 187.5,73.5 Z"/></g>
<g><path style="opacity:1" fill="#1cf0ba" d="M 112.5,72.5 C 111.833,73.5 111.167,74.5 110.5,75.5C 108.847,75.6596 107.514,76.3263 106.5,77.5C 81.4142,78.8342 56.4142,79.6676 31.5,80C 27.386,80.115 23.7193,81.2817 20.5,83.5C 19.6618,83.8417 19.3284,84.5084 19.5,85.5C 19.5,85.8333 19.5,86.1667 19.5,86.5C 18.1667,87.1667 17.1667,88.1667 16.5,89.5C 15.8333,89.5 15.1667,89.5 14.5,89.5C 14.5,87.5 14.5,85.5 14.5,83.5C 16.934,81.1691 19.934,79.6691 23.5,79C 27.8477,78.4265 32.181,77.7599 36.5,77C 51.2127,76.4376 65.8793,75.6043 80.5,74.5C 81.1667,74.8333 81.8333,75.1667 82.5,75.5C 90.4739,73.8408 98.3072,73.5075 106,74.5C 107.789,72.771 109.956,72.1043 112.5,72.5 Z"/></g>
<g><path style="opacity:1" fill="#86fee3" d="M 112.5,72.5 C 113.167,72.5 113.833,72.5 114.5,72.5C 130.167,72.5 145.833,72.5 161.5,72.5C 169.984,73.493 178.651,73.8264 187.5,73.5C 192.316,74.3261 197.316,74.8261 202.5,75C 185.788,75.8942 169.121,77.2276 152.5,79C 153.5,79.3333 154.5,79.6667 155.5,80C 152.487,80.9089 149.487,81.7422 146.5,82.5C 146.5,83.8333 146.5,85.1667 146.5,86.5C 143.365,86.8066 140.698,88.1399 138.5,90.5C 137.833,90.1667 137.167,89.8333 136.5,89.5C 134.878,90.9328 133.545,92.5995 132.5,94.5C 131.833,94.1667 131.167,93.8333 130.5,93.5C 118.784,101.342 107.118,109.009 95.5,116.5C 94.8333,116.167 94.1667,115.833 93.5,115.5C 92.5481,117.045 92.2148,118.712 92.5,120.5C 90.7376,120.643 89.0709,120.309 87.5,119.5C 83.1588,123.004 78.4922,126.004 73.5,128.5C 73.7093,129.086 74.0426,129.586 74.5,130C 72.8739,129.805 71.2072,129.805 69.5,130C 62.871,135.319 55.871,140.152 48.5,144.5C 47.914,144.291 47.414,143.957 47,143.5C 45.7635,145.104 44.5968,146.771 43.5,148.5C 42.8333,148.167 42.1667,147.833 41.5,147.5C 36.9862,151.286 31.9862,154.286 26.5,156.5C 25.4823,158.612 23.9823,160.279 22,161.5C 19.2843,162.113 16.7843,163.113 14.5,164.5C 14.5,158.833 14.5,153.167 14.5,147.5C 18.3557,149.15 20.5224,147.816 21,143.5C 21.414,143.957 21.914,144.291 22.5,144.5C 25.8726,141.822 29.2059,139.156 32.5,136.5C 33.1667,137.167 33.8333,137.833 34.5,138.5C 37.2302,135.618 40.2302,132.951 43.5,130.5C 45.5902,131.791 46.9236,131.124 47.5,128.5C 52.8321,126.503 57.4987,123.503 61.5,119.5C 62.1667,119.833 62.8333,120.167 63.5,120.5C 64.5446,118.599 65.8779,116.933 67.5,115.5C 68.1667,115.833 68.8333,116.167 69.5,116.5C 81.2478,109.12 92.9145,101.454 104.5,93.5C 105.167,93.8333 105.833,94.1667 106.5,94.5C 107.545,92.5995 108.878,90.9328 110.5,89.5C 111.086,89.7093 111.586,90.0426 112,90.5C 116.602,86.2419 121.769,82.7419 127.5,80C 127.167,79.6667 126.833,79.3333 126.5,79C 128.382,78.8019 130.048,78.3019 131.5,77.5C 144.325,76.3732 157.325,75.5399 170.5,75C 151.348,73.4205 132.348,73.2539 113.5,74.5C 112.609,75.1098 111.609,75.4431 110.5,75.5C 111.167,74.5 111.833,73.5 112.5,72.5 Z"/></g>
<g><path style="opacity:1" fill="#79fedf" d="M 161.5,72.5 C 184.502,72.3334 207.502,72.5 230.5,73C 231.056,73.3826 231.389,73.8826 231.5,74.5C 225.806,76.4704 219.806,77.637 213.5,78C 206.53,82.6507 199.196,86.4841 191.5,89.5C 191.714,93.2571 190.714,93.9238 188.5,91.5C 183.66,96.4214 177.994,100.088 171.5,102.5C 170.614,103.325 170.281,104.325 170.5,105.5C 167.066,106.983 163.399,108.316 159.5,109.5C 156.117,112.969 152.45,115.969 148.5,118.5C 147.558,118.392 146.725,118.059 146,117.5C 140.13,121.215 134.63,125.548 129.5,130.5C 127.647,131.76 125.814,131.76 124,130.5C 123.517,131.448 123.351,132.448 123.5,133.5C 117.273,135.286 111.94,138.62 107.5,143.5C 104.611,143.876 102.611,145.376 101.5,148C 100.101,148.595 98.7678,148.428 97.5,147.5C 94.0026,150.083 90.3359,152.416 86.5,154.5C 85.9236,157.124 84.5902,157.791 82.5,156.5C 81.8003,159.015 80.4669,159.682 78.5,158.5C 76.1639,161.177 73.4973,163.51 70.5,165.5C 60.5889,170.298 51.2556,175.965 42.5,182.5C 41.3112,183.429 39.9778,183.762 38.5,183.5C 38.4041,188.11 37.4041,188.444 35.5,184.5C 34.3333,186.167 33.1667,187.833 32,189.5C 31.586,189.043 31.086,188.709 30.5,188.5C 29.5,189.5 28.5,190.5 27.5,191.5C 23.0503,193.039 18.7169,194.705 14.5,196.5C 14.5,192.167 14.5,187.833 14.5,183.5C 20.073,179.942 25.4063,175.942 30.5,171.5C 31.1667,171.833 31.8333,172.167 32.5,172.5C 36.1857,169.656 40.1857,167.323 44.5,165.5C 46.8775,161.975 50.2108,159.975 54.5,159.5C 60.1431,155.35 66.1431,151.85 72.5,149C 73.3366,147.989 73.67,146.822 73.5,145.5C 75.4918,145.672 77.1585,145.005 78.5,143.5C 79.1667,143.833 79.8333,144.167 80.5,144.5C 81.8168,142.841 83.4835,141.674 85.5,141C 84.2888,140.107 84.2888,139.274 85.5,138.5C 86.086,138.709 86.586,139.043 87,139.5C 91.8553,137.411 96.1886,134.411 100,130.5C 104.389,128.284 108.889,126.284 113.5,124.5C 114.453,122.545 115.787,120.878 117.5,119.5C 119.467,120.682 120.8,120.015 121.5,117.5C 128.044,114.977 133.877,111.311 139,106.5C 139.873,106.735 140.707,107.069 141.5,107.5C 142.545,105.599 143.878,103.933 145.5,102.5C 146.167,102.833 146.833,103.167 147.5,103.5C 150.105,100.996 152.771,98.6628 155.5,96.5C 158.946,95.6107 161.946,93.944 164.5,91.5C 165.086,91.7093 165.586,92.0426 166,92.5C 167.315,90.6841 168.815,89.0175 170.5,87.5C 175.817,85.6031 180.817,83.2698 185.5,80.5C 185.38,77.7952 186.38,77.1285 188.5,78.5C 199.06,76.5397 209.727,75.373 220.5,75C 209.518,74.0565 198.518,73.5565 187.5,73.5C 178.651,73.8264 169.984,73.493 161.5,72.5 Z"/></g>
<g><path style="opacity:1" fill="#73fede" d="M 231.5,74.5 C 233.722,76.0018 235.722,77.6684 237.5,79.5C 237.5,80.1667 237.5,80.8333 237.5,81.5C 235.94,81.4809 234.44,81.1476 233,80.5C 231.606,81.6133 230.439,82.9466 229.5,84.5C 227.286,82.0762 226.286,82.7429 226.5,86.5C 222.748,87.0687 219.915,89.0687 218,92.5C 217.586,92.0426 217.086,91.7093 216.5,91.5C 215.8,94.0149 214.467,94.6816 212.5,93.5C 208.226,96.103 204.226,99.103 200.5,102.5C 199.311,103.429 197.978,103.762 196.5,103.5C 196.367,106.896 195.367,107.229 193.5,104.5C 188.732,109.269 183.399,113.269 177.5,116.5C 176.833,116.167 176.167,115.833 175.5,115.5C 173.022,118.103 170.356,120.436 167.5,122.5C 165.01,124.083 162.343,125.083 159.5,125.5C 159.62,128.205 158.62,128.872 156.5,127.5C 155.147,128.685 153.98,130.019 153,131.5C 152.282,130.549 151.449,130.383 150.5,131C 137.282,140.776 123.282,149.276 108.5,156.5C 107.833,157.833 107.167,159.167 106.5,160.5C 105.833,159.833 105.167,159.167 104.5,158.5C 100.818,161.954 96.8179,164.954 92.5,167.5C 89.143,168.968 85.9763,170.634 83,172.5C 82.6667,172.167 82.3333,171.833 82,171.5C 81.7978,173.256 81.2978,174.922 80.5,176.5C 78.4098,175.209 77.0764,175.876 76.5,178.5C 69.1747,180.19 63.1747,183.857 58.5,189.5C 57.8333,189.167 57.1667,188.833 56.5,188.5C 51.707,190.551 47.707,193.551 44.5,197.5C 37.8407,200.163 31.174,203.496 24.5,207.5C 22.6232,208.803 20.9565,210.303 19.5,212C 20.8333,212.333 22.1667,212.667 23.5,213C 22.944,213.383 22.6107,213.883 22.5,214.5C 21.5,214.5 20.5,214.5 19.5,214.5C 18.8333,214.5 18.5,214.167 18.5,213.5C 17.4549,212.122 16.1216,211.122 14.5,210.5C 14.5,205.833 14.5,201.167 14.5,196.5C 18.7169,194.705 23.0503,193.039 27.5,191.5C 28.5,190.5 29.5,189.5 30.5,188.5C 31.086,188.709 31.586,189.043 32,189.5C 33.1667,187.833 34.3333,186.167 35.5,184.5C 37.4041,188.444 38.4041,188.11 38.5,183.5C 39.9778,183.762 41.3112,183.429 42.5,182.5C 51.2556,175.965 60.5889,170.298 70.5,165.5C 73.4973,163.51 76.1639,161.177 78.5,158.5C 80.4669,159.682 81.8003,159.015 82.5,156.5C 84.5902,157.791 85.9236,157.124 86.5,154.5C 90.3359,152.416 94.0026,150.083 97.5,147.5C 98.7678,148.428 100.101,148.595 101.5,148C 102.611,145.376 104.611,143.876 107.5,143.5C 111.94,138.62 117.273,135.286 123.5,133.5C 123.351,132.448 123.517,131.448 124,130.5C 125.814,131.76 127.647,131.76 129.5,130.5C 134.63,125.548 140.13,121.215 146,117.5C 146.725,118.059 147.558,118.392 148.5,118.5C 152.45,115.969 156.117,112.969 159.5,109.5C 163.399,108.316 167.066,106.983 170.5,105.5C 170.281,104.325 170.614,103.325 171.5,102.5C 177.994,100.088 183.66,96.4214 188.5,91.5C 190.714,93.9238 191.714,93.2571 191.5,89.5C 199.196,86.4841 206.53,82.6507 213.5,78C 219.806,77.637 225.806,76.4704 231.5,74.5 Z"/></g>
<g><path style="opacity:1" fill="#70f9d7" d="M 110.5,75.5 C 109.564,76.9744 108.23,77.9744 106.5,78.5C 106.5,78.1667 106.5,77.8333 106.5,77.5C 107.514,76.3263 108.847,75.6596 110.5,75.5 Z"/></g>
<g><path style="opacity:1" fill="#a4feea" d="M 113.5,74.5 C 121.507,74.3336 129.507,74.5003 137.5,75C 130.5,75.3333 123.5,75.6667 116.5,76C 113.279,77.104 110.612,78.9374 108.5,81.5C 104.829,83.6686 101.162,85.8353 97.5,88C 95.1902,88.4966 92.8568,88.6633 90.5,88.5C 83.8333,88.5 77.1667,88.5 70.5,88.5C 54.5,88.5 38.5,88.5 22.5,88.5C 44.8355,87.5571 67.1688,86.5571 89.5,85.5C 93.268,85.1902 96.9347,84.3569 100.5,83C 102.319,82.2597 103.652,81.0931 104.5,79.5C 104.842,78.6618 105.508,78.3284 106.5,78.5C 108.23,77.9744 109.564,76.9744 110.5,75.5C 111.609,75.4431 112.609,75.1098 113.5,74.5 Z"/></g>
<g><path style="opacity:1" fill="#94fee6" d="M 113.5,74.5 C 132.348,73.2539 151.348,73.4205 170.5,75C 157.325,75.5399 144.325,76.3732 131.5,77.5C 125.824,77.3339 120.157,77.5006 114.5,78C 112.609,79.4424 110.609,80.6091 108.5,81.5C 110.612,78.9374 113.279,77.104 116.5,76C 123.5,75.6667 130.5,75.3333 137.5,75C 129.507,74.5003 121.507,74.3336 113.5,74.5 Z"/></g>
<g><path style="opacity:1" fill="#8cffe4" d="M 131.5,77.5 C 130.048,78.3019 128.382,78.8019 126.5,79C 126.833,79.3333 127.167,79.6667 127.5,80C 121.769,82.7419 116.602,86.2419 112,90.5C 111.586,90.0426 111.086,89.7093 110.5,89.5C 108.878,90.9328 107.545,92.5995 106.5,94.5C 105.833,94.1667 105.167,93.8333 104.5,93.5C 92.9145,101.454 81.2478,109.12 69.5,116.5C 68.8333,116.167 68.1667,115.833 67.5,115.5C 65.8779,116.933 64.5446,118.599 63.5,120.5C 62.8333,120.167 62.1667,119.833 61.5,119.5C 57.4987,123.503 52.8321,126.503 47.5,128.5C 46.9236,131.124 45.5902,131.791 43.5,130.5C 40.2302,132.951 37.2302,135.618 34.5,138.5C 33.8333,137.833 33.1667,137.167 32.5,136.5C 29.2059,139.156 25.8726,141.822 22.5,144.5C 21.914,144.291 21.414,143.957 21,143.5C 20.5224,147.816 18.3557,149.15 14.5,147.5C 14.5,142.833 14.5,138.167 14.5,133.5C 17.0026,132.085 19.6693,130.918 22.5,130C 29.2317,125.64 35.565,120.807 41.5,115.5C 43.3671,118.229 44.3671,117.896 44.5,114.5C 50.3049,111.761 55.6383,108.261 60.5,104C 61.549,103.508 62.549,103.674 63.5,104.5C 65.4983,102.666 67.8316,101.666 70.5,101.5C 70.5,100.167 70.5,98.8333 70.5,97.5C 73.9264,97.728 76.593,96.3947 78.5,93.5C 80.6198,94.8715 81.6198,94.2048 81.5,91.5C 84.6457,90.9299 82.6457,90.4299 75.5,90C 80.6835,89.8261 85.6835,89.3261 90.5,88.5C 92.8568,88.6633 95.1902,88.4966 97.5,88C 101.162,85.8353 104.829,83.6686 108.5,81.5C 110.609,80.6091 112.609,79.4424 114.5,78C 120.157,77.5006 125.824,77.3339 131.5,77.5 Z"/></g>
<g><path style="opacity:1" fill="#1ce9b5" d="M 106.5,77.5 C 106.5,77.8333 106.5,78.1667 106.5,78.5C 105.508,78.3284 104.842,78.6618 104.5,79.5C 102.833,80.1667 101.167,80.8333 99.5,81.5C 94.044,80.8106 88.544,80.144 83,79.5C 81.7753,79.8623 80.6086,80.3623 79.5,81C 61.8333,81.3333 44.1667,81.6667 26.5,82C 25.2625,82.2321 24.2625,82.7321 23.5,83.5C 22.5,83.5 21.5,83.5 20.5,83.5C 23.7193,81.2817 27.386,80.115 31.5,80C 56.4142,79.6676 81.4142,78.8342 106.5,77.5 Z"/></g>
<g><path style="opacity:1" fill="#6dffdd" d="M 237.5,81.5 C 237.5,85.1667 237.5,88.8333 237.5,92.5C 235.952,92.8212 235.285,93.8212 235.5,95.5C 234.022,95.238 232.689,95.5713 231.5,96.5C 227.485,99.5045 223.485,102.505 219.5,105.5C 218.914,105.291 218.414,104.957 218,104.5C 217.685,107.147 216.518,107.813 214.5,106.5C 210.745,108.088 207.745,110.588 205.5,114C 201.664,115.416 198.331,117.583 195.5,120.5C 194.707,120.069 193.873,119.735 193,119.5C 189.001,122.668 184.668,125.335 180,127.5C 179.228,127.355 178.561,127.022 178,126.5C 177.122,129.215 175.622,131.549 173.5,133.5C 172.833,133.167 172.167,132.833 171.5,132.5C 165.695,136.242 160.029,140.242 154.5,144.5C 153.914,144.291 153.414,143.957 153,143.5C 148.999,146.34 145.166,149.34 141.5,152.5C 137.039,154.617 132.539,156.617 128,158.5C 125.678,160.322 123.511,162.322 121.5,164.5C 120.167,163.167 118.833,163.167 117.5,164.5C 113.606,168.45 109.272,171.783 104.5,174.5C 100.534,176.378 96.5338,178.045 92.5,179.5C 92.5,180.833 92.5,182.167 92.5,183.5C 89.3908,183.655 86.3908,184.322 83.5,185.5C 79.1524,188.931 74.8191,192.264 70.5,195.5C 68.2933,196.635 65.9599,197.301 63.5,197.5C 63.5,198.5 63.5,199.5 63.5,200.5C 62.1779,200.67 61.0113,200.337 60,199.5C 59.7699,203.213 58.6032,203.88 56.5,201.5C 50.8981,206.273 44.8981,210.44 38.5,214C 45.5,214.333 52.5,214.667 59.5,215C 47.0911,215.812 34.7577,215.645 22.5,214.5C 22.6107,213.883 22.944,213.383 23.5,213C 22.1667,212.667 20.8333,212.333 19.5,212C 20.9565,210.303 22.6232,208.803 24.5,207.5C 31.174,203.496 37.8407,200.163 44.5,197.5C 47.707,193.551 51.707,190.551 56.5,188.5C 57.1667,188.833 57.8333,189.167 58.5,189.5C 63.1747,183.857 69.1747,180.19 76.5,178.5C 77.0764,175.876 78.4098,175.209 80.5,176.5C 81.2978,174.922 81.7978,173.256 82,171.5C 82.3333,171.833 82.6667,172.167 83,172.5C 85.9763,170.634 89.143,168.968 92.5,167.5C 96.8179,164.954 100.818,161.954 104.5,158.5C 105.167,159.167 105.833,159.833 106.5,160.5C 107.167,159.167 107.833,157.833 108.5,156.5C 123.282,149.276 137.282,140.776 150.5,131C 151.449,130.383 152.282,130.549 153,131.5C 153.98,130.019 155.147,128.685 156.5,127.5C 158.62,128.872 159.62,128.205 159.5,125.5C 162.343,125.083 165.01,124.083 167.5,122.5C 170.356,120.436 173.022,118.103 175.5,115.5C 176.167,115.833 176.833,116.167 177.5,116.5C 183.399,113.269 188.732,109.269 193.5,104.5C 195.367,107.229 196.367,106.896 196.5,103.5C 197.978,103.762 199.311,103.429 200.5,102.5C 204.226,99.103 208.226,96.103 212.5,93.5C 214.467,94.6816 215.8,94.0149 216.5,91.5C 217.086,91.7093 217.586,92.0426 218,92.5C 219.915,89.0687 222.748,87.0687 226.5,86.5C 226.286,82.7429 227.286,82.0762 229.5,84.5C 230.439,82.9466 231.606,81.6133 233,80.5C 234.44,81.1476 235.94,81.4809 237.5,81.5 Z"/></g>
<g><path style="opacity:1" fill="#16dfab" d="M 99.5,81.5 C 97.5,82.1667 95.5,82.8333 93.5,83.5C 70.1667,83.5 46.8333,83.5 23.5,83.5C 24.2625,82.7321 25.2625,82.2321 26.5,82C 44.1667,81.6667 61.8333,81.3333 79.5,81C 80.6086,80.3623 81.7753,79.8623 83,79.5C 88.544,80.144 94.044,80.8106 99.5,81.5 Z"/></g>
<g><path style="opacity:1" fill="#39e1b7" d="M 20.5,83.5 C 21.5,83.5 22.5,83.5 23.5,83.5C 46.8333,83.5 70.1667,83.5 93.5,83.5C 68.9311,84.1758 44.2645,84.8424 19.5,85.5C 19.3284,84.5084 19.6618,83.8417 20.5,83.5 Z"/></g>
<g><path style="opacity:1" fill="#8ef7de" d="M 104.5,79.5 C 103.652,81.0931 102.319,82.2597 100.5,83C 96.9347,84.3569 93.268,85.1902 89.5,85.5C 66.1215,85.187 42.7882,85.5203 19.5,86.5C 19.5,86.1667 19.5,85.8333 19.5,85.5C 44.2645,84.8424 68.9311,84.1758 93.5,83.5C 95.5,82.8333 97.5,82.1667 99.5,81.5C 101.167,80.8333 102.833,80.1667 104.5,79.5 Z"/></g>
<g><path style="opacity:1" fill="#bbfef1" d="M 89.5,85.5 C 67.1688,86.5571 44.8355,87.5571 22.5,88.5C 19.5019,90.5009 16.8352,92.8343 14.5,95.5C 14.5,94.1667 14.5,92.8333 14.5,91.5C 15.8333,91.5 16.5,90.8333 16.5,89.5C 17.1667,88.1667 18.1667,87.1667 19.5,86.5C 42.7882,85.5203 66.1215,85.187 89.5,85.5 Z"/></g>
<g><path style="opacity:1" fill="#93ffe6" d="M 70.5,88.5 C 77.1667,88.5 83.8333,88.5 90.5,88.5C 85.6835,89.3261 80.6835,89.8261 75.5,90C 82.6457,90.4299 84.6457,90.9299 81.5,91.5C 81.6198,94.2048 80.6198,94.8715 78.5,93.5C 76.593,96.3947 73.9264,97.728 70.5,97.5C 70.5,98.8333 70.5,100.167 70.5,101.5C 67.8316,101.666 65.4983,102.666 63.5,104.5C 62.549,103.674 61.549,103.508 60.5,104C 55.6383,108.261 50.3049,111.761 44.5,114.5C 44.3671,117.896 43.3671,118.229 41.5,115.5C 35.565,120.807 29.2317,125.64 22.5,130C 19.6693,130.918 17.0026,132.085 14.5,133.5C 14.5,125.833 14.5,118.167 14.5,110.5C 15.7348,110.721 16.7348,111.388 17.5,112.5C 18.2485,110.668 19.2485,109.001 20.5,107.5C 23.6093,105.612 26.9427,104.279 30.5,103.5C 36.7128,99.1151 43.0461,94.9484 49.5,91C 47.1667,90.6667 44.8333,90.3333 42.5,90C 52.009,89.8299 61.3423,89.3299 70.5,88.5 Z"/></g>
<g><path style="opacity:1" fill="#9affe8" d="M 22.5,88.5 C 38.5,88.5 54.5,88.5 70.5,88.5C 61.3423,89.3299 52.009,89.8299 42.5,90C 44.8333,90.3333 47.1667,90.6667 49.5,91C 43.0461,94.9484 36.7128,99.1151 30.5,103.5C 26.9427,104.279 23.6093,105.612 20.5,107.5C 19.2485,109.001 18.2485,110.668 17.5,112.5C 16.7348,111.388 15.7348,110.721 14.5,110.5C 14.5,105.5 14.5,100.5 14.5,95.5C 16.8352,92.8343 19.5019,90.5009 22.5,88.5 Z"/></g>
<g><path style="opacity:1" fill="#83f6da" d="M 14.5,89.5 C 15.1667,89.5 15.8333,89.5 16.5,89.5C 16.5,90.8333 15.8333,91.5 14.5,91.5C 14.5,90.8333 14.5,90.1667 14.5,89.5 Z"/></g>
<g><path style="opacity:1" fill="#67fedb" d="M 237.5,92.5 C 237.5,97.8333 237.5,103.167 237.5,108.5C 235.553,109.473 233.553,110.473 231.5,111.5C 228.463,113.707 225.796,116.374 223.5,119.5C 221.597,119.306 219.763,119.306 218,119.5C 209.459,125.971 200.626,131.971 191.5,137.5C 189.604,138.466 187.604,138.799 185.5,138.5C 185.5,139.833 185.5,141.167 185.5,142.5C 179.81,143.929 174.476,146.262 169.5,149.5C 165.689,153.24 161.356,156.24 156.5,158.5C 156.081,159.672 155.415,160.672 154.5,161.5C 152.495,158.972 150.829,159.305 149.5,162.5C 145.703,165.089 141.703,167.256 137.5,169C 136.018,170.983 134.351,172.816 132.5,174.5C 129.733,172.884 127.733,173.551 126.5,176.5C 122.243,177.81 118.243,179.477 114.5,181.5C 114.5,182.833 114.5,184.167 114.5,185.5C 112.194,185.993 109.861,186.326 107.5,186.5C 106.859,190.33 105.193,190.996 102.5,188.5C 100.833,190.5 99.1667,192.5 97.5,194.5C 91.3498,198.154 85.0164,201.487 78.5,204.5C 77.6143,205.325 77.281,206.325 77.5,207.5C 75.396,207.201 73.396,207.534 71.5,208.5C 70.3589,210.808 68.6922,212.641 66.5,214C 72.4908,214.499 78.4908,214.666 84.5,214.5C 90.1764,214.334 95.8431,214.501 101.5,215C 90.3257,215.17 79.3257,215.67 68.5,216.5C 53.8333,216.5 39.1667,216.5 24.5,216.5C 22.597,216.204 20.9303,215.537 19.5,214.5C 20.5,214.5 21.5,214.5 22.5,214.5C 34.7577,215.645 47.0911,215.812 59.5,215C 52.5,214.667 45.5,214.333 38.5,214C 44.8981,210.44 50.8981,206.273 56.5,201.5C 58.6032,203.88 59.7699,203.213 60,199.5C 61.0113,200.337 62.1779,200.67 63.5,200.5C 63.5,199.5 63.5,198.5 63.5,197.5C 65.9599,197.301 68.2933,196.635 70.5,195.5C 74.8191,192.264 79.1524,188.931 83.5,185.5C 86.3908,184.322 89.3908,183.655 92.5,183.5C 92.5,182.167 92.5,180.833 92.5,179.5C 96.5338,178.045 100.534,176.378 104.5,174.5C 109.272,171.783 113.606,168.45 117.5,164.5C 118.833,163.167 120.167,163.167 121.5,164.5C 123.511,162.322 125.678,160.322 128,158.5C 132.539,156.617 137.039,154.617 141.5,152.5C 145.166,149.34 148.999,146.34 153,143.5C 153.414,143.957 153.914,144.291 154.5,144.5C 160.029,140.242 165.695,136.242 171.5,132.5C 172.167,132.833 172.833,133.167 173.5,133.5C 175.622,131.549 177.122,129.215 178,126.5C 178.561,127.022 179.228,127.355 180,127.5C 184.668,125.335 189.001,122.668 193,119.5C 193.873,119.735 194.707,120.069 195.5,120.5C 198.331,117.583 201.664,115.416 205.5,114C 207.745,110.588 210.745,108.088 214.5,106.5C 216.518,107.813 217.685,107.147 218,104.5C 218.414,104.957 218.914,105.291 219.5,105.5C 223.485,102.505 227.485,99.5045 231.5,96.5C 232.689,95.5713 234.022,95.238 235.5,95.5C 235.285,93.8212 235.952,92.8212 237.5,92.5 Z"/></g>
<g><path style="opacity:1" fill="#60ffd9" d="M 237.5,108.5 C 237.5,113.5 237.5,118.5 237.5,123.5C 234.204,123.696 231.871,125.362 230.5,128.5C 220.306,131.968 211.306,137.301 203.5,144.5C 201.38,143.128 200.38,143.795 200.5,146.5C 198.738,146.357 197.071,146.691 195.5,147.5C 191.053,152.709 185.72,155.709 179.5,156.5C 177.311,159.176 174.811,161.509 172,163.5C 171.667,163.167 171.333,162.833 171,162.5C 170.692,163.308 170.192,163.975 169.5,164.5C 168.549,163.674 167.549,163.508 166.5,164C 164.117,168.388 160.451,170.721 155.5,171C 151.009,174.081 146.342,176.914 141.5,179.5C 138.77,182.382 135.77,185.049 132.5,187.5C 130.397,185.12 129.23,185.787 129,189.5C 128.586,189.043 128.086,188.709 127.5,188.5C 125.158,191.286 122.158,192.953 118.5,193.5C 115.9,195.283 113.566,197.283 111.5,199.5C 103.976,202.907 96.9756,207.24 90.5,212.5C 88.9936,213.747 87.4936,213.747 86,212.5C 85.2828,213.044 84.7828,213.711 84.5,214.5C 78.4908,214.666 72.4908,214.499 66.5,214C 68.6922,212.641 70.3589,210.808 71.5,208.5C 73.396,207.534 75.396,207.201 77.5,207.5C 77.281,206.325 77.6143,205.325 78.5,204.5C 85.0164,201.487 91.3498,198.154 97.5,194.5C 99.1667,192.5 100.833,190.5 102.5,188.5C 105.193,190.996 106.859,190.33 107.5,186.5C 109.861,186.326 112.194,185.993 114.5,185.5C 114.5,184.167 114.5,182.833 114.5,181.5C 118.243,179.477 122.243,177.81 126.5,176.5C 127.733,173.551 129.733,172.884 132.5,174.5C 134.351,172.816 136.018,170.983 137.5,169C 141.703,167.256 145.703,165.089 149.5,162.5C 150.829,159.305 152.495,158.972 154.5,161.5C 155.415,160.672 156.081,159.672 156.5,158.5C 161.356,156.24 165.689,153.24 169.5,149.5C 174.476,146.262 179.81,143.929 185.5,142.5C 185.5,141.167 185.5,139.833 185.5,138.5C 187.604,138.799 189.604,138.466 191.5,137.5C 200.626,131.971 209.459,125.971 218,119.5C 219.763,119.306 221.597,119.306 223.5,119.5C 225.796,116.374 228.463,113.707 231.5,111.5C 233.553,110.473 235.553,109.473 237.5,108.5 Z"/></g>
<g><path style="opacity:1" fill="#5afed8" d="M 237.5,123.5 C 237.5,127.833 237.5,132.167 237.5,136.5C 233.264,138.723 229.264,141.389 225.5,144.5C 224.833,144.167 224.167,143.833 223.5,143.5C 221.878,144.933 220.545,146.599 219.5,148.5C 218.914,148.291 218.414,147.957 218,147.5C 211.798,151.517 205.298,154.851 198.5,157.5C 198.895,160.523 197.895,161.523 195.5,160.5C 186.834,166.503 177.834,171.836 168.5,176.5C 163.49,181.572 157.49,185.072 150.5,187C 147.816,190.187 144.483,192.353 140.5,193.5C 140.833,194.167 141.167,194.833 141.5,195.5C 139.668,196.248 138.001,197.248 136.5,198.5C 135.833,198.167 135.167,197.833 134.5,197.5C 133.455,199.401 132.122,201.067 130.5,202.5C 129.232,201.572 127.899,201.405 126.5,202C 120.933,207.28 114.6,211.28 107.5,214C 113.348,214.173 119.015,214.673 124.5,215.5C 121.615,215.194 118.948,215.527 116.5,216.5C 100.5,216.5 84.5,216.5 68.5,216.5C 79.3257,215.67 90.3257,215.17 101.5,215C 95.8431,214.501 90.1764,214.334 84.5,214.5C 84.7828,213.711 85.2828,213.044 86,212.5C 87.4936,213.747 88.9936,213.747 90.5,212.5C 96.9756,207.24 103.976,202.907 111.5,199.5C 113.566,197.283 115.9,195.283 118.5,193.5C 122.158,192.953 125.158,191.286 127.5,188.5C 128.086,188.709 128.586,189.043 129,189.5C 129.23,185.787 130.397,185.12 132.5,187.5C 135.77,185.049 138.77,182.382 141.5,179.5C 146.342,176.914 151.009,174.081 155.5,171C 160.451,170.721 164.117,168.388 166.5,164C 167.549,163.508 168.549,163.674 169.5,164.5C 170.192,163.975 170.692,163.308 171,162.5C 171.333,162.833 171.667,163.167 172,163.5C 174.811,161.509 177.311,159.176 179.5,156.5C 185.72,155.709 191.053,152.709 195.5,147.5C 197.071,146.691 198.738,146.357 200.5,146.5C 200.38,143.795 201.38,143.128 203.5,144.5C 211.306,137.301 220.306,131.968 230.5,128.5C 231.871,125.362 234.204,123.696 237.5,123.5 Z"/></g>
<g><path style="opacity:1" fill="#54ffd7" d="M 237.5,136.5 C 237.5,140.833 237.5,145.167 237.5,149.5C 234.241,151.089 231.241,153.089 228.5,155.5C 226.547,156.156 224.547,156.489 222.5,156.5C 222.343,158.818 221.176,160.484 219,161.5C 214.589,163.62 210.089,165.62 205.5,167.5C 200.754,172.553 195.087,176.219 188.5,178.5C 186.562,181.049 184.062,182.716 181,183.5C 180.667,183.167 180.333,182.833 180,182.5C 179.517,183.448 179.351,184.448 179.5,185.5C 176.512,185.329 174.512,186.662 173.5,189.5C 171.409,188.5 169.743,189.167 168.5,191.5C 166.5,192.167 164.5,192.833 162.5,193.5C 156.394,198.589 149.727,202.922 142.5,206.5C 139.025,210.472 134.692,212.972 129.5,214C 134.5,214.333 139.5,214.667 144.5,215C 137.842,215.5 131.175,215.666 124.5,215.5C 119.015,214.673 113.348,214.173 107.5,214C 114.6,211.28 120.933,207.28 126.5,202C 127.899,201.405 129.232,201.572 130.5,202.5C 132.122,201.067 133.455,199.401 134.5,197.5C 135.167,197.833 135.833,198.167 136.5,198.5C 138.001,197.248 139.668,196.248 141.5,195.5C 141.167,194.833 140.833,194.167 140.5,193.5C 144.483,192.353 147.816,190.187 150.5,187C 157.49,185.072 163.49,181.572 168.5,176.5C 177.834,171.836 186.834,166.503 195.5,160.5C 197.895,161.523 198.895,160.523 198.5,157.5C 205.298,154.851 211.798,151.517 218,147.5C 218.414,147.957 218.914,148.291 219.5,148.5C 220.545,146.599 221.878,144.933 223.5,143.5C 224.167,143.833 224.833,144.167 225.5,144.5C 229.264,141.389 233.264,138.723 237.5,136.5 Z"/></g>
<g><path style="opacity:1" fill="#4dfed5" d="M 237.5,149.5 C 237.5,154.5 237.5,159.5 237.5,164.5C 233.814,165.68 230.814,167.847 228.5,171C 227.207,171.49 225.873,171.657 224.5,171.5C 224.62,174.205 223.62,174.872 221.5,173.5C 216.235,177.381 211.069,181.381 206,185.5C 205.127,185.265 204.293,184.931 203.5,184.5C 202.158,186.005 200.492,186.672 198.5,186.5C 198.5,187.833 198.5,189.167 198.5,190.5C 194.842,189.872 192.342,191.206 191,194.5C 190.586,194.043 190.086,193.709 189.5,193.5C 187.654,195.592 185.321,196.926 182.5,197.5C 181.614,198.325 181.281,199.325 181.5,200.5C 179.857,200.48 178.524,201.147 177.5,202.5C 176.833,202.167 176.167,201.833 175.5,201.5C 174.833,202.833 174.167,204.167 173.5,205.5C 172.833,204.833 172.167,204.167 171.5,203.5C 167.433,207.986 162.767,211.486 157.5,214C 165.493,214.5 173.493,214.666 181.5,214.5C 182.873,214.343 184.207,214.51 185.5,215C 179.652,215.173 173.985,215.673 168.5,216.5C 151.167,216.5 133.833,216.5 116.5,216.5C 118.948,215.527 121.615,215.194 124.5,215.5C 131.175,215.666 137.842,215.5 144.5,215C 139.5,214.667 134.5,214.333 129.5,214C 134.692,212.972 139.025,210.472 142.5,206.5C 149.727,202.922 156.394,198.589 162.5,193.5C 164.5,192.833 166.5,192.167 168.5,191.5C 169.743,189.167 171.409,188.5 173.5,189.5C 174.512,186.662 176.512,185.329 179.5,185.5C 179.351,184.448 179.517,183.448 180,182.5C 180.333,182.833 180.667,183.167 181,183.5C 184.062,182.716 186.562,181.049 188.5,178.5C 195.087,176.219 200.754,172.553 205.5,167.5C 210.089,165.62 214.589,163.62 219,161.5C 221.176,160.484 222.343,158.818 222.5,156.5C 224.547,156.489 226.547,156.156 228.5,155.5C 231.241,153.089 234.241,151.089 237.5,149.5 Z"/></g>
<g><path style="opacity:1" fill="#47ffd3" d="M 237.5,164.5 C 237.5,169.167 237.5,173.833 237.5,178.5C 235.381,179.738 233.381,181.238 231.5,183C 229.866,183.494 228.199,183.66 226.5,183.5C 226.5,184.5 226.5,185.5 226.5,186.5C 224.345,186.372 222.345,186.872 220.5,188C 217.285,191.088 213.952,193.921 210.5,196.5C 206.898,197.506 203.565,198.839 200.5,200.5C 200.367,203.896 199.367,204.229 197.5,201.5C 191.714,205.377 186.381,209.711 181.5,214.5C 173.493,214.666 165.493,214.5 157.5,214C 162.767,211.486 167.433,207.986 171.5,203.5C 172.167,204.167 172.833,204.833 173.5,205.5C 174.167,204.167 174.833,202.833 175.5,201.5C 176.167,201.833 176.833,202.167 177.5,202.5C 178.524,201.147 179.857,200.48 181.5,200.5C 181.281,199.325 181.614,198.325 182.5,197.5C 185.321,196.926 187.654,195.592 189.5,193.5C 190.086,193.709 190.586,194.043 191,194.5C 192.342,191.206 194.842,189.872 198.5,190.5C 198.5,189.167 198.5,187.833 198.5,186.5C 200.492,186.672 202.158,186.005 203.5,184.5C 204.293,184.931 205.127,185.265 206,185.5C 211.069,181.381 216.235,177.381 221.5,173.5C 223.62,174.872 224.62,174.205 224.5,171.5C 225.873,171.657 227.207,171.49 228.5,171C 230.814,167.847 233.814,165.68 237.5,164.5 Z"/></g>
<g><path style="opacity:1" fill="#41fed1" d="M 237.5,178.5 C 237.5,182.833 237.5,187.167 237.5,191.5C 234.971,193.933 231.971,195.599 228.5,196.5C 228.5,197.5 228.5,198.5 228.5,199.5C 223.902,199.302 220.235,200.968 217.5,204.5C 215.604,205.466 213.604,205.799 211.5,205.5C 211.762,206.978 211.429,208.311 210.5,209.5C 208.246,210.124 206.579,211.457 205.5,213.5C 204.833,212.5 204.167,211.5 203.5,210.5C 201.972,211.861 200.305,213.028 198.5,214C 202.833,214.333 207.167,214.667 211.5,215C 206.316,215.174 201.316,215.674 196.5,216.5C 187.167,216.5 177.833,216.5 168.5,216.5C 173.985,215.673 179.652,215.173 185.5,215C 184.207,214.51 182.873,214.343 181.5,214.5C 186.381,209.711 191.714,205.377 197.5,201.5C 199.367,204.229 200.367,203.896 200.5,200.5C 203.565,198.839 206.898,197.506 210.5,196.5C 213.952,193.921 217.285,191.088 220.5,188C 222.345,186.872 224.345,186.372 226.5,186.5C 226.5,185.5 226.5,184.5 226.5,183.5C 228.199,183.66 229.866,183.494 231.5,183C 233.381,181.238 235.381,179.738 237.5,178.5 Z"/></g>
<g><path style="opacity:1" fill="#3bfed0" d="M 237.5,191.5 C 237.5,197.833 237.5,204.167 237.5,210.5C 235.833,211.5 234.5,212.833 233.5,214.5C 231.571,214.231 229.905,214.731 228.5,216C 217.839,216.5 207.172,216.667 196.5,216.5C 201.316,215.674 206.316,215.174 211.5,215C 207.167,214.667 202.833,214.333 198.5,214C 200.305,213.028 201.972,211.861 203.5,210.5C 204.167,211.5 204.833,212.5 205.5,213.5C 206.579,211.457 208.246,210.124 210.5,209.5C 211.429,208.311 211.762,206.978 211.5,205.5C 213.604,205.799 215.604,205.466 217.5,204.5C 220.235,200.968 223.902,199.302 228.5,199.5C 228.5,198.5 228.5,197.5 228.5,196.5C 231.971,195.599 234.971,193.933 237.5,191.5 Z"/></g>
<g><path style="opacity:1" fill="#36edbb" d="M 233.5,214.5 C 232.192,215.232 230.858,216.066 229.5,217C 209.836,217.5 190.169,217.667 170.5,217.5C 121.664,217.832 72.9971,217.499 24.5,216.5C 39.1667,216.5 53.8333,216.5 68.5,216.5C 84.5,216.5 100.5,216.5 116.5,216.5C 133.833,216.5 151.167,216.5 168.5,216.5C 177.833,216.5 187.167,216.5 196.5,216.5C 207.172,216.667 217.839,216.5 228.5,216C 229.905,214.731 231.571,214.231 233.5,214.5 Z"/></g>
<g><path style="opacity:0.171" fill="#51f0c4" d="M 14.5,210.5 C 16.1216,211.122 17.4549,212.122 18.5,213.5C 17.6236,213.369 16.9569,213.702 16.5,214.5C 18.4039,215.766 19.7372,217.433 20.5,219.5C 15.7855,218.423 13.7855,215.423 14.5,210.5 Z"/></g>
<g><path style="opacity:1" fill="#26e6ae" d="M 18.5,213.5 C 18.5,214.167 18.8333,214.5 19.5,214.5C 20.9303,215.537 22.597,216.204 24.5,216.5C 72.9971,217.499 121.664,217.832 170.5,217.5C 171.52,218.954 172.687,219.287 174,218.5C 175.948,219.109 177.782,219.776 179.5,220.5C 126.428,220.829 73.4284,220.495 20.5,219.5C 19.7372,217.433 18.4039,215.766 16.5,214.5C 16.9569,213.702 17.6236,213.369 18.5,213.5 Z"/></g>
<g><path style="opacity:1" fill="#2edfa9" d="M 237.5,210.5 C 237.698,215.627 235.364,218.793 230.5,220C 213.503,220.5 196.503,220.667 179.5,220.5C 177.782,219.776 175.948,219.109 174,218.5C 172.687,219.287 171.52,218.954 170.5,217.5C 190.169,217.667 209.836,217.5 229.5,217C 230.858,216.066 232.192,215.232 233.5,214.5C 234.5,212.833 235.833,211.5 237.5,210.5 Z"/></g>
</svg>
