<svg xmlns="http://www.w3.org/2000/svg" xmlns:xlink="http://www.w3.org/1999/xlink" width="250" height="250" version="1.1" style="shape-rendering:geometricPrecision;text-rendering:geometricPrecision;image-rendering:optimizeQuality;fill-rule:evenodd;clip-rule:evenodd"><g><path style="opacity:1" fill="#fb2d19" d="M 23.5,43.5 C 33.6447,44.8321 44.1447,45.4987 55,45.5C 65.8553,45.4987 76.3553,44.8321 86.5,43.5C 87.7079,44.2341 89.0413,44.5674 90.5,44.5C 90.5,45.5 90.5,46.5 90.5,47.5C 92.1998,47.6261 93.6998,48.2927 95,49.5C 96.0299,49.1639 96.5299,48.4972 96.5,47.5C 98.1667,48.5 99.5,49.8333 100.5,51.5C 100.66,53.1992 100.494,54.8659 100,56.5C 97.7459,54.8567 95.2459,53.5233 92.5,52.5C 88.2085,54.362 84.2085,56.6954 80.5,59.5C 79.8333,59.1667 79.1667,58.8333 78.5,58.5C 76.0388,61.0917 74.3722,64.0917 73.5,67.5C 71.857,67.5198 70.5237,66.8532 69.5,65.5C 67.5,67.5 65.5,69.5 63.5,71.5C 62.2798,70.2889 61.1131,70.2889 60,71.5C 58.9141,69.153 57.5808,69.153 56,71.5C 53.4838,70.2272 50.9838,70.2272 48.5,71.5C 47.2261,69.15 45.8927,69.3167 44.5,72C 33.8384,71.2753 23.8384,73.442 14.5,78.5C 14.3335,69.1607 14.5002,59.8274 15,50.5C 17.1072,47.2208 19.9406,44.8874 23.5,43.5 Z"/></g><g><path style="opacity:1" fill="#fd6051" d="M 23.5,43.5 C 44.5,43.5 65.5,43.5 86.5,43.5C 76.3553,44.8321 65.8553,45.4987 55,45.5C 44.1447,45.4987 33.6447,44.8321 23.5,43.5 Z"/></g><g><path style="opacity:.929" fill="#fb4f3d" d="M 90.5,44.5 C 92.7844,45.0292 94.7844,46.0292 96.5,47.5C 96.5299,48.4972 96.0299,49.1639 95,49.5C 93.6998,48.2927 92.1998,47.6261 90.5,47.5C 90.5,46.5 90.5,45.5 90.5,44.5 Z"/></g><g><path style="opacity:.998" fill="#f62d1c" d="M 100.5,51.5 C 102.5,52.1667 103.833,53.5 104.5,55.5C 104.197,58.5876 105.53,60.2542 108.5,60.5C 109.167,61.5 109.833,62.5 110.5,63.5C 109.965,66.2385 110.965,68.0718 113.5,69C 151.167,69.3333 188.833,69.6667 226.5,70C 188.487,69.838 150.82,70.6713 113.5,72.5C 110.635,72.0548 108.135,72.7215 106,74.5C 98.3072,73.5075 90.4739,73.8408 82.5,75.5C 81.8333,75.1667 81.1667,74.8333 80.5,74.5C 65.8793,75.6043 51.2127,76.4376 36.5,77C 30.0836,77.8443 23.7502,79.0109 17.5,80.5C 17.5,81.5 17.5,82.5 17.5,83.5C 16.5,83.5 15.5,83.5 14.5,83.5C 14.5,81.8333 14.5,80.1667 14.5,78.5C 23.8384,73.442 33.8384,71.2753 44.5,72C 45.8927,69.3167 47.2261,69.15 48.5,71.5C 50.9838,70.2272 53.4838,70.2272 56,71.5C 57.5808,69.153 58.9141,69.153 60,71.5C 61.1131,70.2889 62.2798,70.2889 63.5,71.5C 65.5,69.5 67.5,67.5 69.5,65.5C 70.5237,66.8532 71.857,67.5198 73.5,67.5C 74.3722,64.0917 76.0388,61.0917 78.5,58.5C 79.1667,58.8333 79.8333,59.1667 80.5,59.5C 84.2085,56.6954 88.2085,54.362 92.5,52.5C 95.2459,53.5233 97.7459,54.8567 100,56.5C 100.494,54.8659 100.66,53.1992 100.5,51.5 Z"/></g><g><path style="opacity:.2" fill="#fa7569" d="M 104.5,55.5 C 106.929,56.2648 108.262,57.9315 108.5,60.5C 105.53,60.2542 104.197,58.5876 104.5,55.5 Z"/></g><g><path style="opacity:1" fill="#f44536" d="M 110.5,63.5 C 111.643,63.9081 112.643,64.5748 113.5,65.5C 152.942,65.8693 192.275,66.8693 231.5,68.5C 231.999,71.2639 233.665,72.9305 236.5,73.5C 237.301,75.0418 237.634,76.7085 237.5,78.5C 235.813,76.8338 233.813,75.5005 231.5,74.5C 208.524,72.5101 185.191,71.8435 161.5,72.5C 145.5,72.5 129.5,72.5 113.5,72.5C 150.82,70.6713 188.487,69.838 226.5,70C 188.833,69.6667 151.167,69.3333 113.5,69C 110.965,68.0718 109.965,66.2385 110.5,63.5 Z"/></g><g><path style="opacity:.557" fill="#f48177" d="M 231.5,68.5 C 234.5,68.8333 236.167,70.5 236.5,73.5C 233.665,72.9305 231.999,71.2639 231.5,68.5 Z"/></g><g><path style="opacity:1" fill="#f02d1c" d="M 113.5,72.5 C 112.833,73.1667 112.167,73.8333 111.5,74.5C 109.833,75.1667 108.167,75.8333 106.5,76.5C 86.6255,78.7992 67.1255,79.4659 48,78.5C 40.2052,79.2158 32.3719,80.0492 24.5,81C 22.4556,81.4983 21.1223,82.665 20.5,84.5C 20.1667,85.1667 19.8333,85.8333 19.5,86.5C 18.1667,87.1667 17.1667,88.1667 16.5,89.5C 15.8333,89.5 15.1667,89.5 14.5,89.5C 14.5,87.5 14.5,85.5 14.5,83.5C 15.5,83.5 16.5,83.5 17.5,83.5C 17.5,82.5 17.5,81.5 17.5,80.5C 23.7502,79.0109 30.0836,77.8443 36.5,77C 51.2127,76.4376 65.8793,75.6043 80.5,74.5C 81.1667,74.8333 81.8333,75.1667 82.5,75.5C 90.4739,73.8408 98.3072,73.5075 106,74.5C 108.135,72.7215 110.635,72.0548 113.5,72.5 Z"/></g><g><path style="opacity:1" fill="#fe8779" d="M 161.5,72.5 C 185.191,71.8435 208.524,72.5101 231.5,74.5C 228.655,75.3438 225.655,76.0104 222.5,76.5C 219.432,76.5467 216.432,77.0467 213.5,78C 204.972,83.097 196.305,87.9303 187.5,92.5C 182.815,96.8439 177.482,100.177 171.5,102.5C 170.8,105.015 169.467,105.682 167.5,104.5C 165.739,107.441 163.072,109.108 159.5,109.5C 156.683,112.478 153.683,115.144 150.5,117.5C 148.994,118.747 147.494,118.747 146,117.5C 140.13,121.215 134.63,125.548 129.5,130.5C 127.647,131.76 125.814,131.76 124,130.5C 123.517,131.448 123.351,132.448 123.5,133.5C 117.273,135.286 111.94,138.62 107.5,143.5C 104.611,143.876 102.611,145.376 101.5,148C 100.101,148.595 98.7678,148.428 97.5,147.5C 94.0026,150.083 90.3359,152.416 86.5,154.5C 85.9236,157.124 84.5902,157.791 82.5,156.5C 81.8003,159.015 80.4669,159.682 78.5,158.5C 76.1639,161.177 73.4973,163.51 70.5,165.5C 60.5889,170.298 51.2556,175.965 42.5,182.5C 41.3112,183.429 39.9778,183.762 38.5,183.5C 38.3671,186.896 37.3671,187.229 35.5,184.5C 34.3333,186.167 33.1667,187.833 32,189.5C 31.586,189.043 31.086,188.709 30.5,188.5C 29.5,189.5 28.5,190.5 27.5,191.5C 23.0503,193.039 18.7169,194.705 14.5,196.5C 14.5,192.167 14.5,187.833 14.5,183.5C 20.073,179.942 25.4063,175.942 30.5,171.5C 31.1667,171.833 31.8333,172.167 32.5,172.5C 36.1857,169.656 40.1857,167.323 44.5,165.5C 46.8775,161.975 50.2108,159.975 54.5,159.5C 60.1431,155.35 66.1431,151.85 72.5,149C 73.3366,147.989 73.67,146.822 73.5,145.5C 75.4918,145.672 77.1585,145.005 78.5,143.5C 79.1667,143.833 79.8333,144.167 80.5,144.5C 81.8168,142.841 83.4835,141.674 85.5,141C 84.2888,140.107 84.2888,139.274 85.5,138.5C 86.086,138.709 86.586,139.043 87,139.5C 91.8553,137.411 96.1886,134.411 100,130.5C 104.389,128.284 108.889,126.284 113.5,124.5C 114.635,121.293 116.635,119.959 119.5,120.5C 121.212,117.407 123.879,115.741 127.5,115.5C 131.783,113.048 135.616,110.048 139,106.5C 139.873,106.735 140.707,107.069 141.5,107.5C 142.545,105.599 143.878,103.933 145.5,102.5C 146.167,102.833 146.833,103.167 147.5,103.5C 150.105,100.996 152.771,98.6628 155.5,96.5C 158.946,95.6107 161.946,93.944 164.5,91.5C 165.086,91.7093 165.586,92.0426 166,92.5C 167.315,90.6841 168.815,89.0175 170.5,87.5C 175.817,85.6031 180.817,83.2698 185.5,80.5C 185.38,77.7952 186.38,77.1285 188.5,78.5C 199.06,76.5397 209.727,75.373 220.5,75C 202.855,73.7637 185.189,73.2637 167.5,73.5C 165.265,73.7947 163.265,73.4614 161.5,72.5 Z"/></g><g><path style="opacity:1" fill="#fe8d7f" d="M 167.5,73.5 C 185.189,73.2637 202.855,73.7637 220.5,75C 209.727,75.373 199.06,76.5397 188.5,78.5C 186.38,77.1285 185.38,77.7952 185.5,80.5C 180.817,83.2698 175.817,85.6031 170.5,87.5C 168.815,89.0175 167.315,90.6841 166,92.5C 165.586,92.0426 165.086,91.7093 164.5,91.5C 161.946,93.944 158.946,95.6107 155.5,96.5C 152.771,98.6628 150.105,100.996 147.5,103.5C 146.833,103.167 146.167,102.833 145.5,102.5C 143.878,103.933 142.545,105.599 141.5,107.5C 140.707,107.069 139.873,106.735 139,106.5C 135.616,110.048 131.783,113.048 127.5,115.5C 123.879,115.741 121.212,117.407 119.5,120.5C 116.635,119.959 114.635,121.293 113.5,124.5C 108.889,126.284 104.389,128.284 100,130.5C 96.1886,134.411 91.8553,137.411 87,139.5C 86.586,139.043 86.086,138.709 85.5,138.5C 84.2888,139.274 84.2888,140.107 85.5,141C 83.4835,141.674 81.8168,142.841 80.5,144.5C 79.8333,144.167 79.1667,143.833 78.5,143.5C 77.1585,145.005 75.4918,145.672 73.5,145.5C 73.67,146.822 73.3366,147.989 72.5,149C 66.1431,151.85 60.1431,155.35 54.5,159.5C 50.2108,159.975 46.8775,161.975 44.5,165.5C 40.1857,167.323 36.1857,169.656 32.5,172.5C 31.8333,172.167 31.1667,171.833 30.5,171.5C 25.4063,175.942 20.073,179.942 14.5,183.5C 14.5,177.833 14.5,172.167 14.5,166.5C 15.7348,166.279 16.7348,165.612 17.5,164.5C 19.7136,166.924 20.7136,166.257 20.5,162.5C 22.143,162.52 23.4763,161.853 24.5,160.5C 26.3671,163.229 27.3671,162.896 27.5,159.5C 28.8333,159.5 30.1667,159.5 31.5,159.5C 31.238,158.022 31.5713,156.689 32.5,155.5C 33.1924,156.025 33.6924,156.692 34,157.5C 37.0771,154.591 39.5771,151.258 41.5,147.5C 44.3517,146.897 47.0184,147.564 49.5,149.5C 51.8912,148.809 51.8912,147.809 49.5,146.5C 49.8333,146.167 50.1667,145.833 50.5,145.5C 54.3402,143.295 58.3402,141.628 62.5,140.5C 62.5,139.167 62.5,137.833 62.5,136.5C 67.7846,135.26 72.7846,133.26 77.5,130.5C 83.1667,125.722 89.3334,121.722 96,118.5C 97.2613,118.759 98.2613,119.426 99,120.5C 101.886,116.131 105.719,112.798 110.5,110.5C 111.281,109.271 111.781,107.938 112,106.5C 112.308,107.308 112.808,107.975 113.5,108.5C 115.5,107.167 117.5,105.833 119.5,104.5C 120.167,105.167 120.833,105.833 121.5,106.5C 122.876,104.167 124.043,101.834 125,99.5C 125.308,100.308 125.808,100.975 126.5,101.5C 128.635,100.119 130.968,99.1189 133.5,98.5C 131.193,96.6724 131.526,95.0057 134.5,93.5C 136.62,94.8715 137.62,94.2048 137.5,91.5C 139.677,91.4139 141.677,90.7472 143.5,89.5C 144.167,90.1667 144.833,90.8333 145.5,91.5C 146.759,88.23 149.092,86.5633 152.5,86.5C 152.343,85.1266 152.51,83.7932 153,82.5C 153.308,83.3081 153.808,83.9747 154.5,84.5C 155.331,81.6629 156.998,79.4962 159.5,78C 173.862,77.4081 188.195,76.4081 202.5,75C 191.839,74.5002 181.172,74.3335 170.5,74.5C 169.209,74.7373 168.209,74.404 167.5,73.5 Z"/></g><g><path style="opacity:1" fill="#fe8172" d="M 231.5,74.5 C 233.813,75.5005 235.813,76.8338 237.5,78.5C 237.5,79.5 237.5,80.5 237.5,81.5C 235.94,81.4809 234.44,81.1476 233,80.5C 231.606,81.6133 230.439,82.9466 229.5,84.5C 227.286,82.0762 226.286,82.7429 226.5,86.5C 222.748,87.0687 219.915,89.0687 218,92.5C 217.586,92.0426 217.086,91.7093 216.5,91.5C 215.8,94.0149 214.467,94.6816 212.5,93.5C 208.226,96.103 204.226,99.103 200.5,102.5C 199.311,103.429 197.978,103.762 196.5,103.5C 196.367,106.896 195.367,107.229 193.5,104.5C 188.732,109.269 183.399,113.269 177.5,116.5C 176.833,116.167 176.167,115.833 175.5,115.5C 173.022,118.103 170.356,120.436 167.5,122.5C 165.01,124.083 162.343,125.083 159.5,125.5C 159.62,128.205 158.62,128.872 156.5,127.5C 155.147,128.685 153.98,130.019 153,131.5C 152.282,130.549 151.449,130.383 150.5,131C 137.282,140.776 123.282,149.276 108.5,156.5C 107.833,157.833 107.167,159.167 106.5,160.5C 105.833,159.833 105.167,159.167 104.5,158.5C 100.818,161.954 96.8179,164.954 92.5,167.5C 89.143,168.968 85.9763,170.634 83,172.5C 82.6667,172.167 82.3333,171.833 82,171.5C 81.7978,173.256 81.2978,174.922 80.5,176.5C 78.4098,175.209 77.0764,175.876 76.5,178.5C 69.1747,180.19 63.1747,183.857 58.5,189.5C 57.8333,189.167 57.1667,188.833 56.5,188.5C 51.707,190.551 47.707,193.551 44.5,197.5C 36.4148,200.943 28.4148,205.277 20.5,210.5C 19.45,212.102 20.1167,212.935 22.5,213C 21.2068,213.49 19.8734,213.657 18.5,213.5C 17.4549,212.122 16.1216,211.122 14.5,210.5C 14.5,208.167 14.5,205.833 14.5,203.5C 16.6155,201.938 18.9489,200.604 21.5,199.5C 22.086,199.709 22.586,200.043 23,200.5C 23.49,199.207 23.6567,197.873 23.5,196.5C 25.604,196.799 27.604,196.466 29.5,195.5C 31.0454,193.56 33.0454,192.394 35.5,192C 36.0712,190.795 36.7379,189.628 37.5,188.5C 39.6198,189.872 40.6198,189.205 40.5,186.5C 41.8734,186.657 43.2068,186.49 44.5,186C 50.5399,182.652 56.2066,178.819 61.5,174.5C 62.1667,174.833 62.8333,175.167 63.5,175.5C 70.197,169.829 77.197,164.662 84.5,160C 88.1138,158.68 91.7805,157.513 95.5,156.5C 96.3857,155.675 96.719,154.675 96.5,153.5C 102.575,150.29 108.575,146.79 114.5,143C 116.473,142.505 118.473,142.338 120.5,142.5C 120.328,140.508 120.995,138.842 122.5,137.5C 125.601,136.393 128.601,135.06 131.5,133.5C 136.464,130.675 141.131,127.342 145.5,123.5C 146.192,124.025 146.692,124.692 147,125.5C 147.674,123.483 148.841,121.817 150.5,120.5C 158.513,116.478 166.513,112.478 174.5,108.5C 174.5,107.167 174.5,105.833 174.5,104.5C 178.361,103.709 182.361,102.709 186.5,101.5C 187.429,100.311 187.762,98.9778 187.5,97.5C 190.767,96.8871 193.767,95.5538 196.5,93.5C 197.554,93.6799 198.554,94.0133 199.5,94.5C 200.7,92.2354 202.367,90.4021 204.5,89C 211.02,85.4877 217.02,81.321 222.5,76.5C 225.655,76.0104 228.655,75.3438 231.5,74.5 Z"/></g><g><path style="opacity:1" fill="#ff9385" d="M 170.5,74.5 C 181.172,74.3335 191.839,74.5002 202.5,75C 188.195,76.4081 173.862,77.4081 159.5,78C 156.998,79.4962 155.331,81.6629 154.5,84.5C 153.808,83.9747 153.308,83.3081 153,82.5C 152.51,83.7932 152.343,85.1266 152.5,86.5C 149.092,86.5633 146.759,88.23 145.5,91.5C 144.833,90.8333 144.167,90.1667 143.5,89.5C 141.677,90.7472 139.677,91.4139 137.5,91.5C 137.62,94.2048 136.62,94.8715 134.5,93.5C 131.526,95.0057 131.193,96.6724 133.5,98.5C 130.968,99.1189 128.635,100.119 126.5,101.5C 125.808,100.975 125.308,100.308 125,99.5C 124.043,101.834 122.876,104.167 121.5,106.5C 120.833,105.833 120.167,105.167 119.5,104.5C 117.5,105.833 115.5,107.167 113.5,108.5C 112.808,107.975 112.308,107.308 112,106.5C 111.781,107.938 111.281,109.271 110.5,110.5C 105.719,112.798 101.886,116.131 99,120.5C 98.2613,119.426 97.2613,118.759 96,118.5C 89.3334,121.722 83.1667,125.722 77.5,130.5C 72.7846,133.26 67.7846,135.26 62.5,136.5C 62.5,137.833 62.5,139.167 62.5,140.5C 58.3402,141.628 54.3402,143.295 50.5,145.5C 50.1667,145.833 49.8333,146.167 49.5,146.5C 51.8912,147.809 51.8912,148.809 49.5,149.5C 47.0184,147.564 44.3517,146.897 41.5,147.5C 39.5771,151.258 37.0771,154.591 34,157.5C 33.6924,156.692 33.1924,156.025 32.5,155.5C 31.5713,156.689 31.238,158.022 31.5,159.5C 30.1667,159.5 28.8333,159.5 27.5,159.5C 27.3671,162.896 26.3671,163.229 24.5,160.5C 23.4763,161.853 22.143,162.52 20.5,162.5C 20.7136,166.257 19.7136,166.924 17.5,164.5C 16.7348,165.612 15.7348,166.279 14.5,166.5C 14.5,160.167 14.5,153.833 14.5,147.5C 18.3557,149.15 20.5224,147.816 21,143.5C 21.414,143.957 21.914,144.291 22.5,144.5C 25.5398,141.99 28.5398,139.49 31.5,137C 32.7425,136.689 33.7425,137.189 34.5,138.5C 37.2302,135.618 40.2302,132.951 43.5,130.5C 45.5902,131.791 46.9236,131.124 47.5,128.5C 52.8321,126.503 57.4987,123.503 61.5,119.5C 62.1667,119.833 62.8333,120.167 63.5,120.5C 64.5446,118.599 65.8779,116.933 67.5,115.5C 68.1667,115.833 68.8333,116.167 69.5,116.5C 81.2478,109.12 92.9145,101.454 104.5,93.5C 105.167,93.8333 105.833,94.1667 106.5,94.5C 107.545,92.5995 108.878,90.9328 110.5,89.5C 111.086,89.7093 111.586,90.0426 112,90.5C 116.602,86.2419 121.769,82.7419 127.5,80C 127.167,79.6667 126.833,79.3333 126.5,79C 141.203,76.7043 155.87,75.2043 170.5,74.5 Z"/></g><g><path style="opacity:1" fill="#ff8475" d="M 222.5,76.5 C 217.02,81.321 211.02,85.4877 204.5,89C 202.367,90.4021 200.7,92.2354 199.5,94.5C 198.554,94.0133 197.554,93.6799 196.5,93.5C 193.767,95.5538 190.767,96.8871 187.5,97.5C 187.762,98.9778 187.429,100.311 186.5,101.5C 182.361,102.709 178.361,103.709 174.5,104.5C 174.5,105.833 174.5,107.167 174.5,108.5C 166.513,112.478 158.513,116.478 150.5,120.5C 148.841,121.817 147.674,123.483 147,125.5C 146.692,124.692 146.192,124.025 145.5,123.5C 141.131,127.342 136.464,130.675 131.5,133.5C 128.601,135.06 125.601,136.393 122.5,137.5C 120.995,138.842 120.328,140.508 120.5,142.5C 118.473,142.338 116.473,142.505 114.5,143C 108.575,146.79 102.575,150.29 96.5,153.5C 96.719,154.675 96.3857,155.675 95.5,156.5C 91.7805,157.513 88.1138,158.68 84.5,160C 77.197,164.662 70.197,169.829 63.5,175.5C 62.8333,175.167 62.1667,174.833 61.5,174.5C 56.2066,178.819 50.5399,182.652 44.5,186C 43.2068,186.49 41.8734,186.657 40.5,186.5C 40.6198,189.205 39.6198,189.872 37.5,188.5C 36.7379,189.628 36.0712,190.795 35.5,192C 33.0454,192.394 31.0454,193.56 29.5,195.5C 27.604,196.466 25.604,196.799 23.5,196.5C 23.6567,197.873 23.49,199.207 23,200.5C 22.586,200.043 22.086,199.709 21.5,199.5C 18.9489,200.604 16.6155,201.938 14.5,203.5C 14.5,201.167 14.5,198.833 14.5,196.5C 18.7169,194.705 23.0503,193.039 27.5,191.5C 28.5,190.5 29.5,189.5 30.5,188.5C 31.086,188.709 31.586,189.043 32,189.5C 33.1667,187.833 34.3333,186.167 35.5,184.5C 37.3671,187.229 38.3671,186.896 38.5,183.5C 39.9778,183.762 41.3112,183.429 42.5,182.5C 51.2556,175.965 60.5889,170.298 70.5,165.5C 73.4973,163.51 76.1639,161.177 78.5,158.5C 80.4669,159.682 81.8003,159.015 82.5,156.5C 84.5902,157.791 85.9236,157.124 86.5,154.5C 90.3359,152.416 94.0026,150.083 97.5,147.5C 98.7678,148.428 100.101,148.595 101.5,148C 102.611,145.376 104.611,143.876 107.5,143.5C 111.94,138.62 117.273,135.286 123.5,133.5C 123.351,132.448 123.517,131.448 124,130.5C 125.814,131.76 127.647,131.76 129.5,130.5C 134.63,125.548 140.13,121.215 146,117.5C 147.494,118.747 148.994,118.747 150.5,117.5C 153.683,115.144 156.683,112.478 159.5,109.5C 163.072,109.108 165.739,107.441 167.5,104.5C 169.467,105.682 170.8,105.015 171.5,102.5C 177.482,100.177 182.815,96.8439 187.5,92.5C 196.305,87.9303 204.972,83.097 213.5,78C 216.432,77.0467 219.432,76.5467 222.5,76.5 Z"/></g><g><path style="opacity:1" fill="#e52f1e" d="M 106.5,76.5 C 104.281,78.7548 101.948,80.7548 99.5,82.5C 73.2401,84.3883 46.9067,85.055 20.5,84.5C 21.1223,82.665 22.4556,81.4983 24.5,81C 32.3719,80.0492 40.2052,79.2158 48,78.5C 67.1255,79.4659 86.6255,78.7992 106.5,76.5 Z"/></g><g><path style="opacity:1" fill="#fe998c" d="M 113.5,72.5 C 129.5,72.5 145.5,72.5 161.5,72.5C 163.265,73.4614 165.265,73.7947 167.5,73.5C 168.209,74.404 169.209,74.7373 170.5,74.5C 155.87,75.2043 141.203,76.7043 126.5,79C 126.833,79.3333 127.167,79.6667 127.5,80C 121.769,82.7419 116.602,86.2419 112,90.5C 111.586,90.0426 111.086,89.7093 110.5,89.5C 108.878,90.9328 107.545,92.5995 106.5,94.5C 105.833,94.1667 105.167,93.8333 104.5,93.5C 92.9145,101.454 81.2478,109.12 69.5,116.5C 68.8333,116.167 68.1667,115.833 67.5,115.5C 65.8779,116.933 64.5446,118.599 63.5,120.5C 62.8333,120.167 62.1667,119.833 61.5,119.5C 57.4987,123.503 52.8321,126.503 47.5,128.5C 46.9236,131.124 45.5902,131.791 43.5,130.5C 40.2302,132.951 37.2302,135.618 34.5,138.5C 33.7425,137.189 32.7425,136.689 31.5,137C 28.5398,139.49 25.5398,141.99 22.5,144.5C 21.914,144.291 21.414,143.957 21,143.5C 20.5224,147.816 18.3557,149.15 14.5,147.5C 14.5,142.833 14.5,138.167 14.5,133.5C 17.0026,132.085 19.6693,130.918 22.5,130C 29.2317,125.64 35.565,120.807 41.5,115.5C 43.3671,118.229 44.3671,117.896 44.5,114.5C 50.3049,111.761 55.6383,108.261 60.5,104C 61.549,103.508 62.549,103.674 63.5,104.5C 65.4983,102.666 67.8316,101.666 70.5,101.5C 70.5,100.167 70.5,98.8333 70.5,97.5C 73.9264,97.728 76.593,96.3947 78.5,93.5C 80.6198,94.8715 81.6198,94.2048 81.5,91.5C 84.6457,90.9299 82.6457,90.4299 75.5,90C 82.8679,89.6866 90.2012,89.02 97.5,88C 99.4913,87.6264 101.158,86.793 102.5,85.5C 106.736,81.7752 111.403,78.6085 116.5,76C 123.5,75.6667 130.5,75.3333 137.5,75C 128.84,74.5002 120.173,74.3336 111.5,74.5C 112.167,73.8333 112.833,73.1667 113.5,72.5 Z"/></g><g><path style="opacity:1" fill="#f88275" d="M 111.5,74.5 C 108.914,77.8907 105.581,80.224 101.5,81.5C 100.833,81.8333 100.167,82.1667 99.5,82.5C 101.948,80.7548 104.281,78.7548 106.5,76.5C 108.167,75.8333 109.833,75.1667 111.5,74.5 Z"/></g><g><path style="opacity:1" fill="#fe7e6e" d="M 237.5,81.5 C 237.5,83.1667 237.5,84.8333 237.5,86.5C 236.057,87.3351 235.057,88.6684 234.5,90.5C 233.833,89.8333 233.167,89.1667 232.5,88.5C 231.646,89.5217 230.646,90.3551 229.5,91C 230.711,91.8928 230.711,92.7261 229.5,93.5C 227.672,91.1927 226.006,91.526 224.5,94.5C 222.604,95.4656 220.604,95.7989 218.5,95.5C 218.657,96.8734 218.49,98.2068 218,99.5C 216.869,98.3961 216.035,98.7295 215.5,100.5C 213.01,102.083 210.343,103.083 207.5,103.5C 207.5,104.5 207.5,105.5 207.5,106.5C 205.712,106.215 204.045,106.548 202.5,107.5C 200.255,109.587 197.588,110.921 194.5,111.5C 193.115,112.551 192.115,113.884 191.5,115.5C 190.311,116.429 188.978,116.762 187.5,116.5C 187.5,117.5 187.5,118.5 187.5,119.5C 183.807,118.944 181.14,120.278 179.5,123.5C 178.833,122.833 178.167,122.167 177.5,121.5C 175.671,123.156 174.337,125.156 173.5,127.5C 172.833,126.833 172.167,126.167 171.5,125.5C 164.002,130.093 157.002,135.427 150.5,141.5C 145.407,142.604 141.407,145.271 138.5,149.5C 137.833,148.833 137.167,148.167 136.5,147.5C 129.419,153.22 121.752,158.22 113.5,162.5C 112.808,161.975 112.308,161.308 112,160.5C 109.919,163.748 107.086,166.081 103.5,167.5C 101.415,169.082 99.9146,171.082 99,173.5C 95.0623,172.53 91.5623,173.53 88.5,176.5C 89.1667,177.167 89.8333,177.833 90.5,178.5C 88.2573,179.474 85.924,179.808 83.5,179.5C 83.7136,183.257 82.7136,183.924 80.5,181.5C 76.2095,183.651 72.2095,186.318 68.5,189.5C 65.4119,190.079 62.7452,191.413 60.5,193.5C 61.5384,196.788 60.8718,197.121 58.5,194.5C 55.4936,197.822 51.8269,199.822 47.5,200.5C 47.5,201.5 47.5,202.5 47.5,203.5C 41.2359,205.965 35.2359,208.965 29.5,212.5C 32.1934,214.27 35.1934,214.937 38.5,214.5C 42.8333,214.5 47.1667,214.5 51.5,214.5C 53.7354,214.205 55.7354,214.539 57.5,215.5C 44.8032,215.754 32.1365,215.421 19.5,214.5C 18.8333,214.5 18.5,214.167 18.5,213.5C 19.8734,213.657 21.2068,213.49 22.5,213C 20.1167,212.935 19.45,212.102 20.5,210.5C 28.4148,205.277 36.4148,200.943 44.5,197.5C 47.707,193.551 51.707,190.551 56.5,188.5C 57.1667,188.833 57.8333,189.167 58.5,189.5C 63.1747,183.857 69.1747,180.19 76.5,178.5C 77.0764,175.876 78.4098,175.209 80.5,176.5C 81.2978,174.922 81.7978,173.256 82,171.5C 82.3333,171.833 82.6667,172.167 83,172.5C 85.9763,170.634 89.143,168.968 92.5,167.5C 96.8179,164.954 100.818,161.954 104.5,158.5C 105.167,159.167 105.833,159.833 106.5,160.5C 107.167,159.167 107.833,157.833 108.5,156.5C 123.282,149.276 137.282,140.776 150.5,131C 151.449,130.383 152.282,130.549 153,131.5C 153.98,130.019 155.147,128.685 156.5,127.5C 158.62,128.872 159.62,128.205 159.5,125.5C 162.343,125.083 165.01,124.083 167.5,122.5C 170.356,120.436 173.022,118.103 175.5,115.5C 176.167,115.833 176.833,116.167 177.5,116.5C 183.399,113.269 188.732,109.269 193.5,104.5C 195.367,107.229 196.367,106.896 196.5,103.5C 197.978,103.762 199.311,103.429 200.5,102.5C 204.226,99.103 208.226,96.103 212.5,93.5C 214.467,94.6816 215.8,94.0149 216.5,91.5C 217.086,91.7093 217.586,92.0426 218,92.5C 219.915,89.0687 222.748,87.0687 226.5,86.5C 226.286,82.7429 227.286,82.0762 229.5,84.5C 230.439,82.9466 231.606,81.6133 233,80.5C 234.44,81.1476 235.94,81.4809 237.5,81.5 Z"/></g><g><path style="opacity:1" fill="#f7998f" d="M 101.5,81.5 C 98.0714,83.9768 94.0714,85.3101 89.5,85.5C 66.1215,85.187 42.7882,85.5203 19.5,86.5C 19.8333,85.8333 20.1667,85.1667 20.5,84.5C 46.9067,85.055 73.2401,84.3883 99.5,82.5C 100.167,82.1667 100.833,81.8333 101.5,81.5 Z"/></g><g><path style="opacity:1" fill="#fec7bd" d="M 89.5,85.5 C 67.5015,86.5392 45.5015,87.5392 23.5,88.5C 21.78,89.8641 19.78,90.8641 17.5,91.5C 16.7025,91.0431 16.3691,90.3764 16.5,89.5C 17.1667,88.1667 18.1667,87.1667 19.5,86.5C 42.7882,85.5203 66.1215,85.187 89.5,85.5 Z"/></g><g><path style="opacity:1" fill="#ff7b6b" d="M 237.5,86.5 C 237.5,88.5 237.5,90.5 237.5,92.5C 235.952,92.8212 235.285,93.8212 235.5,95.5C 234.022,95.238 232.689,95.5713 231.5,96.5C 227.485,99.5045 223.485,102.505 219.5,105.5C 218.914,105.291 218.414,104.957 218,104.5C 217.685,107.147 216.518,107.813 214.5,106.5C 210.745,108.088 207.745,110.588 205.5,114C 201.664,115.416 198.331,117.583 195.5,120.5C 194.707,120.069 193.873,119.735 193,119.5C 189.001,122.668 184.668,125.335 180,127.5C 179.228,127.355 178.561,127.022 178,126.5C 177.122,129.215 175.622,131.549 173.5,133.5C 172.833,133.167 172.167,132.833 171.5,132.5C 165.695,136.242 160.029,140.242 154.5,144.5C 153.914,144.291 153.414,143.957 153,143.5C 148.999,146.34 145.166,149.34 141.5,152.5C 137.039,154.617 132.539,156.617 128,158.5C 125.678,160.322 123.511,162.322 121.5,164.5C 120.167,163.167 118.833,163.167 117.5,164.5C 113.606,168.45 109.272,171.783 104.5,174.5C 100.534,176.378 96.5338,178.045 92.5,179.5C 92.5,180.833 92.5,182.167 92.5,183.5C 89.3908,183.655 86.3908,184.322 83.5,185.5C 79.1524,188.931 74.8191,192.264 70.5,195.5C 68.2933,196.635 65.9599,197.301 63.5,197.5C 63.5,198.5 63.5,199.5 63.5,200.5C 62.1779,200.67 61.0113,200.337 60,199.5C 59.7699,203.213 58.6032,203.88 56.5,201.5C 50.7219,206.299 44.7219,210.632 38.5,214.5C 35.1934,214.937 32.1934,214.27 29.5,212.5C 35.2359,208.965 41.2359,205.965 47.5,203.5C 47.5,202.5 47.5,201.5 47.5,200.5C 51.8269,199.822 55.4936,197.822 58.5,194.5C 60.8718,197.121 61.5384,196.788 60.5,193.5C 62.7452,191.413 65.4119,190.079 68.5,189.5C 72.2095,186.318 76.2095,183.651 80.5,181.5C 82.7136,183.924 83.7136,183.257 83.5,179.5C 85.924,179.808 88.2573,179.474 90.5,178.5C 89.8333,177.833 89.1667,177.167 88.5,176.5C 91.5623,173.53 95.0623,172.53 99,173.5C 99.9146,171.082 101.415,169.082 103.5,167.5C 107.086,166.081 109.919,163.748 112,160.5C 112.308,161.308 112.808,161.975 113.5,162.5C 121.752,158.22 129.419,153.22 136.5,147.5C 137.167,148.167 137.833,148.833 138.5,149.5C 141.407,145.271 145.407,142.604 150.5,141.5C 157.002,135.427 164.002,130.093 171.5,125.5C 172.167,126.167 172.833,126.833 173.5,127.5C 174.337,125.156 175.671,123.156 177.5,121.5C 178.167,122.167 178.833,122.833 179.5,123.5C 181.14,120.278 183.807,118.944 187.5,119.5C 187.5,118.5 187.5,117.5 187.5,116.5C 188.978,116.762 190.311,116.429 191.5,115.5C 192.115,113.884 193.115,112.551 194.5,111.5C 197.588,110.921 200.255,109.587 202.5,107.5C 204.045,106.548 205.712,106.215 207.5,106.5C 207.5,105.5 207.5,104.5 207.5,103.5C 210.343,103.083 213.01,102.083 215.5,100.5C 216.035,98.7295 216.869,98.3961 218,99.5C 218.49,98.2068 218.657,96.8734 218.5,95.5C 220.604,95.7989 222.604,95.4656 224.5,94.5C 226.006,91.526 227.672,91.1927 229.5,93.5C 230.711,92.7261 230.711,91.8928 229.5,91C 230.646,90.3551 231.646,89.5217 232.5,88.5C 233.167,89.1667 233.833,89.8333 234.5,90.5C 235.057,88.6684 236.057,87.3351 237.5,86.5 Z"/></g><g><path style="opacity:1" fill="#ffb0a6" d="M 111.5,74.5 C 120.173,74.3336 128.84,74.5002 137.5,75C 130.5,75.3333 123.5,75.6667 116.5,76C 111.403,78.6085 106.736,81.7752 102.5,85.5C 97.2572,86.8055 91.9238,87.6388 86.5,88C 71.8371,88.4999 57.1705,88.6666 42.5,88.5C 36.1667,88.5 29.8333,88.5 23.5,88.5C 45.5015,87.5392 67.5015,86.5392 89.5,85.5C 94.0714,85.3101 98.0714,83.9768 101.5,81.5C 105.581,80.224 108.914,77.8907 111.5,74.5 Z"/></g><g><path style="opacity:1" fill="#ff9f93" d="M 102.5,85.5 C 101.158,86.793 99.4913,87.6264 97.5,88C 90.2012,89.02 82.8679,89.6866 75.5,90C 82.6457,90.4299 84.6457,90.9299 81.5,91.5C 81.6198,94.2048 80.6198,94.8715 78.5,93.5C 76.593,96.3947 73.9264,97.728 70.5,97.5C 70.5,98.8333 70.5,100.167 70.5,101.5C 67.8316,101.666 65.4983,102.666 63.5,104.5C 62.549,103.674 61.549,103.508 60.5,104C 55.6383,108.261 50.3049,111.761 44.5,114.5C 44.3671,117.896 43.3671,118.229 41.5,115.5C 35.565,120.807 29.2317,125.64 22.5,130C 19.6693,130.918 17.0026,132.085 14.5,133.5C 14.5,125.833 14.5,118.167 14.5,110.5C 15.7348,110.721 16.7348,111.388 17.5,112.5C 18.1667,111.167 18.8333,109.833 19.5,108.5C 21.8718,111.121 22.5384,110.788 21.5,107.5C 23.3325,106.752 24.9991,105.752 26.5,104.5C 27.1667,104.833 27.8333,105.167 28.5,105.5C 34.9892,101.182 41.1559,96.515 47,91.5C 47.8928,92.7112 48.7261,92.7112 49.5,91.5C 46.7051,91.0615 44.3717,90.0615 42.5,88.5C 57.1705,88.6666 71.8371,88.4999 86.5,88C 91.9238,87.6388 97.2572,86.8055 102.5,85.5 Z"/></g><g><path style="opacity:1" fill="#fea59a" d="M 23.5,88.5 C 29.8333,88.5 36.1667,88.5 42.5,88.5C 44.3717,90.0615 46.7051,91.0615 49.5,91.5C 48.7261,92.7112 47.8928,92.7112 47,91.5C 41.1559,96.515 34.9892,101.182 28.5,105.5C 27.8333,105.167 27.1667,104.833 26.5,104.5C 24.9991,105.752 23.3325,106.752 21.5,107.5C 22.5384,110.788 21.8718,111.121 19.5,108.5C 18.8333,109.833 18.1667,111.167 17.5,112.5C 16.7348,111.388 15.7348,110.721 14.5,110.5C 14.5,103.5 14.5,96.5 14.5,89.5C 15.1667,89.5 15.8333,89.5 16.5,89.5C 16.3691,90.3764 16.7025,91.0431 17.5,91.5C 19.78,90.8641 21.78,89.8641 23.5,88.5 Z"/></g><g><path style="opacity:1" fill="#ff7868" d="M 237.5,92.5 C 237.5,96.1667 237.5,99.8333 237.5,103.5C 236.417,103.461 235.417,103.127 234.5,102.5C 226.875,107.324 219.542,112.657 212.5,118.5C 211.833,118.167 211.167,117.833 210.5,117.5C 208.833,119.167 207.167,120.833 205.5,122.5C 197.456,126.854 189.456,131.187 181.5,135.5C 177.774,138.897 173.774,141.897 169.5,144.5C 168.833,144.167 168.167,143.833 167.5,143.5C 163.08,148.425 157.747,151.925 151.5,154C 150.019,154.98 148.685,156.147 147.5,157.5C 146.914,157.291 146.414,156.957 146,156.5C 141.817,160.509 136.984,163.509 131.5,165.5C 126.877,170.791 121.21,174.458 114.5,176.5C 110.244,179.877 105.744,182.877 101,185.5C 99.9887,184.663 98.8221,184.33 97.5,184.5C 97.5,185.5 97.5,186.5 97.5,187.5C 91.9114,187.751 87.9114,190.418 85.5,195.5C 82.0402,197.431 78.3735,198.764 74.5,199.5C 73.5853,200.328 72.9186,201.328 72.5,202.5C 65.591,206.784 58.591,210.784 51.5,214.5C 47.1667,214.5 42.8333,214.5 38.5,214.5C 44.7219,210.632 50.7219,206.299 56.5,201.5C 58.6032,203.88 59.7699,203.213 60,199.5C 61.0113,200.337 62.1779,200.67 63.5,200.5C 63.5,199.5 63.5,198.5 63.5,197.5C 65.9599,197.301 68.2933,196.635 70.5,195.5C 74.8191,192.264 79.1524,188.931 83.5,185.5C 86.3908,184.322 89.3908,183.655 92.5,183.5C 92.5,182.167 92.5,180.833 92.5,179.5C 96.5338,178.045 100.534,176.378 104.5,174.5C 109.272,171.783 113.606,168.45 117.5,164.5C 118.833,163.167 120.167,163.167 121.5,164.5C 123.511,162.322 125.678,160.322 128,158.5C 132.539,156.617 137.039,154.617 141.5,152.5C 145.166,149.34 148.999,146.34 153,143.5C 153.414,143.957 153.914,144.291 154.5,144.5C 160.029,140.242 165.695,136.242 171.5,132.5C 172.167,132.833 172.833,133.167 173.5,133.5C 175.622,131.549 177.122,129.215 178,126.5C 178.561,127.022 179.228,127.355 180,127.5C 184.668,125.335 189.001,122.668 193,119.5C 193.873,119.735 194.707,120.069 195.5,120.5C 198.331,117.583 201.664,115.416 205.5,114C 207.745,110.588 210.745,108.088 214.5,106.5C 216.518,107.813 217.685,107.147 218,104.5C 218.414,104.957 218.914,105.291 219.5,105.5C 223.485,102.505 227.485,99.5045 231.5,96.5C 232.689,95.5713 234.022,95.238 235.5,95.5C 235.285,93.8212 235.952,92.8212 237.5,92.5 Z"/></g><g><path style="opacity:1" fill="#ff7565" d="M 237.5,103.5 C 237.5,105.167 237.5,106.833 237.5,108.5C 235.553,109.473 233.553,110.473 231.5,111.5C 228.463,113.707 225.796,116.374 223.5,119.5C 221.597,119.306 219.763,119.306 218,119.5C 209.459,125.971 200.626,131.971 191.5,137.5C 189.604,138.466 187.604,138.799 185.5,138.5C 185.5,139.833 185.5,141.167 185.5,142.5C 179.81,143.929 174.476,146.262 169.5,149.5C 165.689,153.24 161.356,156.24 156.5,158.5C 156.081,159.672 155.415,160.672 154.5,161.5C 152.495,158.972 150.829,159.305 149.5,162.5C 145.703,165.089 141.703,167.256 137.5,169C 136.018,170.983 134.351,172.816 132.5,174.5C 129.733,172.884 127.733,173.551 126.5,176.5C 122.243,177.81 118.243,179.477 114.5,181.5C 114.5,182.833 114.5,184.167 114.5,185.5C 112.194,185.993 109.861,186.326 107.5,186.5C 106.859,190.33 105.193,190.996 102.5,188.5C 100.833,190.5 99.1667,192.5 97.5,194.5C 91.3498,198.154 85.0164,201.487 78.5,204.5C 77.6143,205.325 77.281,206.325 77.5,207.5C 75.396,207.201 73.396,207.534 71.5,208.5C 70.3589,210.808 68.6922,212.641 66.5,214C 72.4908,214.499 78.4908,214.666 84.5,214.5C 90.1667,214.5 95.8333,214.5 101.5,214.5C 87.0095,215.496 72.3428,215.829 57.5,215.5C 55.7354,214.539 53.7354,214.205 51.5,214.5C 58.591,210.784 65.591,206.784 72.5,202.5C 72.9186,201.328 73.5853,200.328 74.5,199.5C 78.3735,198.764 82.0402,197.431 85.5,195.5C 87.9114,190.418 91.9114,187.751 97.5,187.5C 97.5,186.5 97.5,185.5 97.5,184.5C 98.8221,184.33 99.9887,184.663 101,185.5C 105.744,182.877 110.244,179.877 114.5,176.5C 121.21,174.458 126.877,170.791 131.5,165.5C 136.984,163.509 141.817,160.509 146,156.5C 146.414,156.957 146.914,157.291 147.5,157.5C 148.685,156.147 150.019,154.98 151.5,154C 157.747,151.925 163.08,148.425 167.5,143.5C 168.167,143.833 168.833,144.167 169.5,144.5C 173.774,141.897 177.774,138.897 181.5,135.5C 189.456,131.187 197.456,126.854 205.5,122.5C 207.167,120.833 208.833,119.167 210.5,117.5C 211.167,117.833 211.833,118.167 212.5,118.5C 219.542,112.657 226.875,107.324 234.5,102.5C 235.417,103.127 236.417,103.461 237.5,103.5 Z"/></g><g><path style="opacity:1" fill="#ff7161" d="M 237.5,108.5 C 237.5,111.5 237.5,114.5 237.5,117.5C 235.922,118.066 234.588,119.066 233.5,120.5C 231.955,121.452 230.288,121.785 228.5,121.5C 228.5,122.833 228.5,124.167 228.5,125.5C 226.396,125.201 224.396,125.534 222.5,126.5C 220.618,128.31 218.618,129.977 216.5,131.5C 214.105,130.477 213.105,131.477 213.5,134.5C 211.396,134.201 209.396,134.534 207.5,135.5C 203.539,138.585 199.372,141.585 195,144.5C 194.228,144.355 193.561,144.022 193,143.5C 192.261,145.221 191.427,146.887 190.5,148.5C 189.833,148.167 189.167,147.833 188.5,147.5C 185.661,149.42 182.661,151.087 179.5,152.5C 177.347,155.472 174.347,156.805 170.5,156.5C 170.646,158.942 169.813,159.609 168,158.5C 166.829,159.893 165.329,160.727 163.5,161C 162.449,162.385 161.116,163.385 159.5,164C 160.993,165.156 160.826,165.99 159,166.5C 158.055,166.095 157.388,165.428 157,164.5C 156.5,165.5 156,166.5 155.5,167.5C 144.62,173.865 133.953,180.532 123.5,187.5C 122.833,187.167 122.167,186.833 121.5,186.5C 117.423,189.523 113.423,192.523 109.5,195.5C 106.942,198.799 104.275,201.966 101.5,205C 97.843,207.497 94.1763,209.997 90.5,212.5C 88.9936,213.747 87.4936,213.747 86,212.5C 85.2828,213.044 84.7828,213.711 84.5,214.5C 78.4908,214.666 72.4908,214.499 66.5,214C 68.6922,212.641 70.3589,210.808 71.5,208.5C 73.396,207.534 75.396,207.201 77.5,207.5C 77.281,206.325 77.6143,205.325 78.5,204.5C 85.0164,201.487 91.3498,198.154 97.5,194.5C 99.1667,192.5 100.833,190.5 102.5,188.5C 105.193,190.996 106.859,190.33 107.5,186.5C 109.861,186.326 112.194,185.993 114.5,185.5C 114.5,184.167 114.5,182.833 114.5,181.5C 118.243,179.477 122.243,177.81 126.5,176.5C 127.733,173.551 129.733,172.884 132.5,174.5C 134.351,172.816 136.018,170.983 137.5,169C 141.703,167.256 145.703,165.089 149.5,162.5C 150.829,159.305 152.495,158.972 154.5,161.5C 155.415,160.672 156.081,159.672 156.5,158.5C 161.356,156.24 165.689,153.24 169.5,149.5C 174.476,146.262 179.81,143.929 185.5,142.5C 185.5,141.167 185.5,139.833 185.5,138.5C 187.604,138.799 189.604,138.466 191.5,137.5C 200.626,131.971 209.459,125.971 218,119.5C 219.763,119.306 221.597,119.306 223.5,119.5C 225.796,116.374 228.463,113.707 231.5,111.5C 233.553,110.473 235.553,109.473 237.5,108.5 Z"/></g><g><path style="opacity:1" fill="#ff6c5c" d="M 237.5,117.5 C 237.5,122.833 237.5,128.167 237.5,133.5C 236.417,133.461 235.417,133.127 234.5,132.5C 231.343,136.271 227.343,138.605 222.5,139.5C 220.815,141.017 219.315,142.684 218,144.5C 217.586,144.043 217.086,143.709 216.5,143.5C 214.281,146.574 211.281,147.907 207.5,147.5C 207.5,148.833 207.5,150.167 207.5,151.5C 203.263,152.952 199.263,154.952 195.5,157.5C 194.914,157.291 194.414,156.957 194,156.5C 193.033,157.678 192.533,159.011 192.5,160.5C 191.833,159.833 191.167,159.167 190.5,158.5C 188.833,160.167 187.167,161.833 185.5,163.5C 180.168,165.497 175.501,168.497 171.5,172.5C 167.992,173.37 164.659,174.703 161.5,176.5C 154.993,181.589 147.993,185.922 140.5,189.5C 137.914,191.814 135.248,194.147 132.5,196.5C 131.167,197.833 129.833,197.833 128.5,196.5C 127.5,197.833 126.5,199.167 125.5,200.5C 124.833,200.167 124.167,199.833 123.5,199.5C 117.666,203.155 112.166,207.155 107,211.5C 106.127,211.265 105.293,210.931 104.5,210.5C 103.611,212.007 102.611,213.34 101.5,214.5C 95.8333,214.5 90.1667,214.5 84.5,214.5C 84.7828,213.711 85.2828,213.044 86,212.5C 87.4936,213.747 88.9936,213.747 90.5,212.5C 94.1763,209.997 97.843,207.497 101.5,205C 104.275,201.966 106.942,198.799 109.5,195.5C 113.423,192.523 117.423,189.523 121.5,186.5C 122.167,186.833 122.833,187.167 123.5,187.5C 133.953,180.532 144.62,173.865 155.5,167.5C 156,166.5 156.5,165.5 157,164.5C 157.388,165.428 158.055,166.095 159,166.5C 160.826,165.99 160.993,165.156 159.5,164C 161.116,163.385 162.449,162.385 163.5,161C 165.329,160.727 166.829,159.893 168,158.5C 169.813,159.609 170.646,158.942 170.5,156.5C 174.347,156.805 177.347,155.472 179.5,152.5C 182.661,151.087 185.661,149.42 188.5,147.5C 189.167,147.833 189.833,148.167 190.5,148.5C 191.427,146.887 192.261,145.221 193,143.5C 193.561,144.022 194.228,144.355 195,144.5C 199.372,141.585 203.539,138.585 207.5,135.5C 209.396,134.534 211.396,134.201 213.5,134.5C 213.105,131.477 214.105,130.477 216.5,131.5C 218.618,129.977 220.618,128.31 222.5,126.5C 224.396,125.534 226.396,125.201 228.5,125.5C 228.5,124.167 228.5,122.833 228.5,121.5C 230.288,121.785 231.955,121.452 233.5,120.5C 234.588,119.066 235.922,118.066 237.5,117.5 Z"/></g><g><path style="opacity:1" fill="#fe6958" d="M 237.5,133.5 C 237.5,134.5 237.5,135.5 237.5,136.5C 233.264,138.723 229.264,141.389 225.5,144.5C 224.833,144.167 224.167,143.833 223.5,143.5C 221.878,144.933 220.545,146.599 219.5,148.5C 218.914,148.291 218.414,147.957 218,147.5C 211.798,151.517 205.298,154.851 198.5,157.5C 198.895,160.523 197.895,161.523 195.5,160.5C 186.834,166.503 177.834,171.836 168.5,176.5C 163.49,181.572 157.49,185.072 150.5,187C 147.816,190.187 144.483,192.353 140.5,193.5C 140.833,194.167 141.167,194.833 141.5,195.5C 139.668,196.248 138.001,197.248 136.5,198.5C 135.833,198.167 135.167,197.833 134.5,197.5C 133.455,199.401 132.122,201.067 130.5,202.5C 129.232,201.572 127.899,201.405 126.5,202C 120.933,207.28 114.6,211.28 107.5,214C 113.348,214.173 119.015,214.673 124.5,215.5C 121.615,215.194 118.948,215.527 116.5,216.5C 84.8316,216.667 53.1649,216.5 21.5,216C 20.5842,215.722 19.9175,215.222 19.5,214.5C 32.1365,215.421 44.8032,215.754 57.5,215.5C 72.3428,215.829 87.0095,215.496 101.5,214.5C 102.611,213.34 103.611,212.007 104.5,210.5C 105.293,210.931 106.127,211.265 107,211.5C 112.166,207.155 117.666,203.155 123.5,199.5C 124.167,199.833 124.833,200.167 125.5,200.5C 126.5,199.167 127.5,197.833 128.5,196.5C 129.833,197.833 131.167,197.833 132.5,196.5C 135.248,194.147 137.914,191.814 140.5,189.5C 147.993,185.922 154.993,181.589 161.5,176.5C 164.659,174.703 167.992,173.37 171.5,172.5C 175.501,168.497 180.168,165.497 185.5,163.5C 187.167,161.833 188.833,160.167 190.5,158.5C 191.167,159.167 191.833,159.833 192.5,160.5C 192.533,159.011 193.033,157.678 194,156.5C 194.414,156.957 194.914,157.291 195.5,157.5C 199.263,154.952 203.263,152.952 207.5,151.5C 207.5,150.167 207.5,148.833 207.5,147.5C 211.281,147.907 214.281,146.574 216.5,143.5C 217.086,143.709 217.586,144.043 218,144.5C 219.315,142.684 220.815,141.017 222.5,139.5C 227.343,138.605 231.343,136.271 234.5,132.5C 235.417,133.127 236.417,133.461 237.5,133.5 Z"/></g><g><path style="opacity:1" fill="#ff6654" d="M 237.5,136.5 C 237.5,140.833 237.5,145.167 237.5,149.5C 234.241,151.089 231.241,153.089 228.5,155.5C 226.547,156.156 224.547,156.489 222.5,156.5C 222.343,158.818 221.176,160.484 219,161.5C 214.589,163.62 210.089,165.62 205.5,167.5C 200.754,172.553 195.087,176.219 188.5,178.5C 186.562,181.049 184.062,182.716 181,183.5C 180.667,183.167 180.333,182.833 180,182.5C 179.517,183.448 179.351,184.448 179.5,185.5C 176.512,185.329 174.512,186.662 173.5,189.5C 171.409,188.5 169.743,189.167 168.5,191.5C 166.5,192.167 164.5,192.833 162.5,193.5C 156.394,198.589 149.727,202.922 142.5,206.5C 139.025,210.472 134.692,212.972 129.5,214C 134.5,214.333 139.5,214.667 144.5,215C 137.842,215.5 131.175,215.666 124.5,215.5C 119.015,214.673 113.348,214.173 107.5,214C 114.6,211.28 120.933,207.28 126.5,202C 127.899,201.405 129.232,201.572 130.5,202.5C 132.122,201.067 133.455,199.401 134.5,197.5C 135.167,197.833 135.833,198.167 136.5,198.5C 138.001,197.248 139.668,196.248 141.5,195.5C 141.167,194.833 140.833,194.167 140.5,193.5C 144.483,192.353 147.816,190.187 150.5,187C 157.49,185.072 163.49,181.572 168.5,176.5C 177.834,171.836 186.834,166.503 195.5,160.5C 197.895,161.523 198.895,160.523 198.5,157.5C 205.298,154.851 211.798,151.517 218,147.5C 218.414,147.957 218.914,148.291 219.5,148.5C 220.545,146.599 221.878,144.933 223.5,143.5C 224.167,143.833 224.833,144.167 225.5,144.5C 229.264,141.389 233.264,138.723 237.5,136.5 Z"/></g><g><path style="opacity:1" fill="#fe604e" d="M 237.5,149.5 C 237.5,153.833 237.5,158.167 237.5,162.5C 234.394,164.683 231.394,167.016 228.5,169.5C 224.842,170.047 221.842,171.714 219.5,174.5C 217.836,173.777 216.169,174.11 214.5,175.5C 210.52,179.555 206.02,182.889 201,185.5C 200.228,185.355 199.561,185.022 199,184.5C 196.775,186.366 194.275,187.866 191.5,189C 187.847,194.393 183.013,197.227 177,197.5C 176.044,198.579 175.211,199.745 174.5,201C 167.318,205.088 160.318,209.422 153.5,214C 156.5,214.333 159.5,214.667 162.5,215C 156.652,215.173 150.985,215.673 145.5,216.5C 135.833,216.5 126.167,216.5 116.5,216.5C 118.948,215.527 121.615,215.194 124.5,215.5C 131.175,215.666 137.842,215.5 144.5,215C 139.5,214.667 134.5,214.333 129.5,214C 134.692,212.972 139.025,210.472 142.5,206.5C 149.727,202.922 156.394,198.589 162.5,193.5C 164.5,192.833 166.5,192.167 168.5,191.5C 169.743,189.167 171.409,188.5 173.5,189.5C 174.512,186.662 176.512,185.329 179.5,185.5C 179.351,184.448 179.517,183.448 180,182.5C 180.333,182.833 180.667,183.167 181,183.5C 184.062,182.716 186.562,181.049 188.5,178.5C 195.087,176.219 200.754,172.553 205.5,167.5C 210.089,165.62 214.589,163.62 219,161.5C 221.176,160.484 222.343,158.818 222.5,156.5C 224.547,156.489 226.547,156.156 228.5,155.5C 231.241,153.089 234.241,151.089 237.5,149.5 Z"/></g><g><path style="opacity:1" fill="#fe5a48" d="M 237.5,162.5 C 237.5,167.5 237.5,172.5 237.5,177.5C 236.022,177.238 234.689,177.571 233.5,178.5C 229.152,181.01 225.152,184.01 221.5,187.5C 220.914,187.291 220.414,186.957 220,186.5C 217.773,188.199 215.273,189.532 212.5,190.5C 203.337,197.252 193.67,203.252 183.5,208.5C 182.115,209.551 181.115,210.884 180.5,212.5C 179.271,213.281 177.938,213.781 176.5,214C 179.695,214.181 182.695,214.681 185.5,215.5C 185.5,215.833 185.5,216.167 185.5,216.5C 172.167,216.5 158.833,216.5 145.5,216.5C 150.985,215.673 156.652,215.173 162.5,215C 159.5,214.667 156.5,214.333 153.5,214C 160.318,209.422 167.318,205.088 174.5,201C 175.211,199.745 176.044,198.579 177,197.5C 183.013,197.227 187.847,194.393 191.5,189C 194.275,187.866 196.775,186.366 199,184.5C 199.561,185.022 200.228,185.355 201,185.5C 206.02,182.889 210.52,179.555 214.5,175.5C 216.169,174.11 217.836,173.777 219.5,174.5C 221.842,171.714 224.842,170.047 228.5,169.5C 231.394,167.016 234.394,164.683 237.5,162.5 Z"/></g><g><path style="opacity:1" fill="#ff5542" d="M 237.5,177.5 C 237.5,182.167 237.5,186.833 237.5,191.5C 234.971,193.933 231.971,195.599 228.5,196.5C 228.5,197.5 228.5,198.5 228.5,199.5C 223.902,199.302 220.235,200.968 217.5,204.5C 215.604,205.466 213.604,205.799 211.5,205.5C 211.762,206.978 211.429,208.311 210.5,209.5C 208.246,210.124 206.579,211.457 205.5,213.5C 204.833,212.5 204.167,211.5 203.5,210.5C 201.972,211.861 200.305,213.028 198.5,214C 201.167,214.333 203.833,214.667 206.5,215C 199.508,215.5 192.508,215.666 185.5,215.5C 182.695,214.681 179.695,214.181 176.5,214C 177.938,213.781 179.271,213.281 180.5,212.5C 181.115,210.884 182.115,209.551 183.5,208.5C 193.67,203.252 203.337,197.252 212.5,190.5C 215.273,189.532 217.773,188.199 220,186.5C 220.414,186.957 220.914,187.291 221.5,187.5C 225.152,184.01 229.152,181.01 233.5,178.5C 234.689,177.571 236.022,177.238 237.5,177.5 Z"/></g><g><path style="opacity:1" fill="#fe4f3b" d="M 237.5,191.5 C 237.5,197.5 237.5,203.5 237.5,209.5C 235.912,210.641 234.579,212.141 233.5,214C 231.616,214.216 229.949,214.883 228.5,216C 214.171,216.5 199.837,216.667 185.5,216.5C 185.5,216.167 185.5,215.833 185.5,215.5C 192.508,215.666 199.508,215.5 206.5,215C 203.833,214.667 201.167,214.333 198.5,214C 200.305,213.028 201.972,211.861 203.5,210.5C 204.167,211.5 204.833,212.5 205.5,213.5C 206.579,211.457 208.246,210.124 210.5,209.5C 211.429,208.311 211.762,206.978 211.5,205.5C 213.604,205.799 215.604,205.466 217.5,204.5C 220.235,200.968 223.902,199.302 228.5,199.5C 228.5,198.5 228.5,197.5 228.5,196.5C 231.971,195.599 234.971,193.933 237.5,191.5 Z"/></g><g><path style="opacity:.303" fill="#f37b73" d="M 14.5,213.5 C 16.1765,214.183 16.8432,215.517 16.5,217.5C 15.3263,216.486 14.6596,215.153 14.5,213.5 Z"/></g><g><path style="opacity:1" fill="#ed4136" d="M 237.5,209.5 C 237.634,211.292 237.301,212.958 236.5,214.5C 232.65,216.092 228.65,217.092 224.5,217.5C 190.833,217.5 157.167,217.5 123.5,217.5C 90.165,217.333 56.8317,217.5 23.5,218C 24.2524,218.671 24.5858,219.504 24.5,220.5C 21.4064,220.403 18.7398,219.403 16.5,217.5C 16.8432,215.517 16.1765,214.183 14.5,213.5C 14.5,212.5 14.5,211.5 14.5,210.5C 16.1216,211.122 17.4549,212.122 18.5,213.5C 18.5,214.167 18.8333,214.5 19.5,214.5C 19.9175,215.222 20.5842,215.722 21.5,216C 53.1649,216.5 84.8316,216.667 116.5,216.5C 126.167,216.5 135.833,216.5 145.5,216.5C 158.833,216.5 172.167,216.5 185.5,216.5C 199.837,216.667 214.171,216.5 228.5,216C 229.949,214.883 231.616,214.216 233.5,214C 234.579,212.141 235.912,210.641 237.5,209.5 Z"/></g><g><path style="opacity:1" fill="#e03029" d="M 123.5,217.5 C 157.167,217.5 190.833,217.5 224.5,217.5C 225.11,218.391 225.443,219.391 225.5,220.5C 186.167,220.5 146.833,220.5 107.5,220.5C 107.082,219.778 106.416,219.278 105.5,219C 111.681,218.828 117.681,218.328 123.5,217.5 Z"/></g><g><path style="opacity:1" fill="#e0433d" d="M 236.5,214.5 C 236.52,216.143 235.853,217.476 234.5,218.5C 231.673,219.932 228.673,220.599 225.5,220.5C 225.443,219.391 225.11,218.391 224.5,217.5C 228.65,217.092 232.65,216.092 236.5,214.5 Z"/></g><g><path style="opacity:1" fill="#e72e24" d="M 123.5,217.5 C 117.681,218.328 111.681,218.828 105.5,219C 106.416,219.278 107.082,219.778 107.5,220.5C 79.8333,220.5 52.1667,220.5 24.5,220.5C 24.5858,219.504 24.2524,218.671 23.5,218C 56.8317,217.5 90.165,217.333 123.5,217.5 Z"/></g></svg>