<?xml version="1.0" encoding="UTF-8"?>
<!DOCTYPE svg PUBLIC "-//W3C//DTD SVG 1.1//EN" "http://www.w3.org/Graphics/SVG/1.1/DTD/svg11.dtd">
<svg xmlns="http://www.w3.org/2000/svg" version="1.1" width="250px" height="250px" style="shape-rendering:geometricPrecision; text-rendering:geometricPrecision; image-rendering:optimizeQuality; fill-rule:evenodd; clip-rule:evenodd" xmlns:xlink="http://www.w3.org/1999/xlink">
<g><path style="opacity:1" fill="#19fb36" d="M 23.5,43.5 C 33.6447,44.8321 44.1447,45.4987 55,45.5C 65.8553,45.4987 76.3553,44.8321 86.5,43.5C 87.7079,44.2341 89.0413,44.5674 90.5,44.5C 90.5,45.8333 90.5,47.1667 90.5,48.5C 91.552,48.3505 92.552,48.5172 93.5,49C 92.3463,49.9138 92.513,50.7471 94,51.5C 96.5497,50.02 98.3831,50.6867 99.5,53.5C 97.046,54.6034 94.7127,54.27 92.5,52.5C 88.2085,54.362 84.2085,56.6954 80.5,59.5C 79.8333,59.1667 79.1667,58.8333 78.5,58.5C 76.0388,61.0917 74.3722,64.0917 73.5,67.5C 71.857,67.5198 70.5237,66.8532 69.5,65.5C 67.5,67.5 65.5,69.5 63.5,71.5C 62.2798,70.2889 61.1131,70.2889 60,71.5C 58.9141,69.153 57.5808,69.153 56,71.5C 53.4838,70.2272 50.9838,70.2272 48.5,71.5C 47.2261,69.15 45.8927,69.3167 44.5,72C 33.8384,71.2753 23.8384,73.442 14.5,78.5C 14.3335,69.1607 14.5002,59.8274 15,50.5C 17.1072,47.2208 19.9406,44.8874 23.5,43.5 Z"/></g>
<g><path style="opacity:1" fill="#52fc68" d="M 23.5,43.5 C 44.5,43.5 65.5,43.5 86.5,43.5C 76.3553,44.8321 65.8553,45.4987 55,45.5C 44.1447,45.4987 33.6447,44.8321 23.5,43.5 Z"/></g>
<g><path style="opacity:0.995" fill="#1df637" d="M 90.5,44.5 C 96.3276,46.988 101.328,50.6547 105.5,55.5C 104.916,58.285 105.916,59.9517 108.5,60.5C 109.167,61.5 109.833,62.5 110.5,63.5C 109.965,66.2385 110.965,68.0718 113.5,69C 152.002,69.8312 190.336,69.6645 228.5,68.5C 229.167,68.5 229.833,68.5 230.5,68.5C 230.649,69.552 230.483,70.552 230,71.5C 191.234,70.1707 152.4,70.1707 113.5,71.5C 110.783,71.974 108.45,72.974 106.5,74.5C 98.6206,73.3576 90.6206,73.691 82.5,75.5C 81.8333,75.1667 81.1667,74.8333 80.5,74.5C 65.8793,75.6043 51.2127,76.4376 36.5,77C 32.181,77.7599 27.8477,78.4265 23.5,79C 20.039,79.823 17.039,81.323 14.5,83.5C 14.5,81.8333 14.5,80.1667 14.5,78.5C 23.8384,73.442 33.8384,71.2753 44.5,72C 45.8927,69.3167 47.2261,69.15 48.5,71.5C 50.9838,70.2272 53.4838,70.2272 56,71.5C 57.5808,69.153 58.9141,69.153 60,71.5C 61.1131,70.2889 62.2798,70.2889 63.5,71.5C 65.5,69.5 67.5,67.5 69.5,65.5C 70.5237,66.8532 71.857,67.5198 73.5,67.5C 74.3722,64.0917 76.0388,61.0917 78.5,58.5C 79.1667,58.8333 79.8333,59.1667 80.5,59.5C 84.2085,56.6954 88.2085,54.362 92.5,52.5C 94.7127,54.27 97.046,54.6034 99.5,53.5C 98.3831,50.6867 96.5497,50.02 94,51.5C 92.513,50.7471 92.3463,49.9138 93.5,49C 92.552,48.5172 91.552,48.3505 90.5,48.5C 90.5,47.1667 90.5,45.8333 90.5,44.5 Z"/></g>
<g><path style="opacity:0.137" fill="#76f985" d="M 105.5,55.5 C 107.279,56.6697 108.279,58.3364 108.5,60.5C 105.916,59.9517 104.916,58.285 105.5,55.5 Z"/></g>
<g><path style="opacity:0.09" fill="#33f349" d="M 110.5,63.5 C 111.643,63.9081 112.643,64.5748 113.5,65.5C 152.175,65.8364 190.509,66.8364 228.5,68.5C 190.336,69.6645 152.002,69.8312 113.5,69C 110.965,68.0718 109.965,66.2385 110.5,63.5 Z"/></g>
<g><path style="opacity:1" fill="#3bf44f" d="M 230.5,68.5 C 230.833,68.5 231.167,68.5 231.5,68.5C 231.999,71.2639 233.665,72.9305 236.5,73.5C 237.301,75.0418 237.634,76.7085 237.5,78.5C 235.813,76.8338 233.813,75.5005 231.5,74.5C 231.389,73.8826 231.056,73.3826 230.5,73C 205.502,72.5 180.502,72.3334 155.5,72.5C 141.656,72.171 127.99,72.5043 114.5,73.5C 112.62,73.2291 111.287,73.8958 110.5,75.5C 109.167,76.1667 107.833,76.8333 106.5,77.5C 106.5,76.5 106.5,75.5 106.5,74.5C 108.45,72.974 110.783,71.974 113.5,71.5C 152.4,70.1707 191.234,70.1707 230,71.5C 230.483,70.552 230.649,69.552 230.5,68.5 Z"/></g>
<g><path style="opacity:0.557" fill="#78f486" d="M 231.5,68.5 C 234.5,68.8333 236.167,70.5 236.5,73.5C 233.665,72.9305 231.999,71.2639 231.5,68.5 Z"/></g>
<g><path style="opacity:1" fill="#1bf036" d="M 106.5,74.5 C 106.5,75.5 106.5,76.5 106.5,77.5C 93.9309,77.9337 81.4309,78.6004 69,79.5C 62.2228,79.5035 55.2228,79.1701 48,78.5C 40.5395,79.2291 33.0395,80.0625 25.5,81C 23.5087,81.3736 21.842,82.207 20.5,83.5C 19.6618,83.8417 19.3284,84.5084 19.5,85.5C 19.5,85.8333 19.5,86.1667 19.5,86.5C 18.1667,87.1667 17.1667,88.1667 16.5,89.5C 15.8333,89.5 15.1667,89.5 14.5,89.5C 14.5,87.5 14.5,85.5 14.5,83.5C 17.039,81.323 20.039,79.823 23.5,79C 27.8477,78.4265 32.181,77.7599 36.5,77C 51.2127,76.4376 65.8793,75.6043 80.5,74.5C 81.1667,74.8333 81.8333,75.1667 82.5,75.5C 90.6206,73.691 98.6206,73.3576 106.5,74.5 Z"/></g>
<g><path style="opacity:1" fill="#96fea5" d="M 114.5,73.5 C 128.196,73.2454 141.863,73.7454 155.5,75C 153.942,75.21 152.609,75.71 151.5,76.5C 140.495,76.3335 129.495,76.5002 118.5,77C 116.482,77.5046 114.482,78.0046 112.5,78.5C 113.347,77.0337 114.68,76.2004 116.5,76C 123.5,75.6667 130.5,75.3333 137.5,75C 128.452,74.2225 119.452,74.3892 110.5,75.5C 111.287,73.8958 112.62,73.2291 114.5,73.5 Z"/></g>
<g><path style="opacity:1" fill="#80fe93" d="M 181.5,73.5 C 195.185,73.473 208.851,73.973 222.5,75C 211.81,75.6234 201.143,76.4567 190.5,77.5C 186.123,77.5775 181.79,78.0775 177.5,79C 178.167,79.3333 178.833,79.6667 179.5,80C 172.727,83.3749 166.727,87.7082 161.5,93C 159.89,94.4947 158.224,94.6613 156.5,93.5C 155.585,94.3279 154.919,95.3279 154.5,96.5C 149.637,98.7627 144.971,101.263 140.5,104C 142.03,108.038 141.196,108.538 138,105.5C 137.43,108.844 136.264,109.177 134.5,106.5C 131.753,109.538 128.419,111.538 124.5,112.5C 124.163,115.833 122.496,116.833 119.5,115.5C 118.02,119.716 115.353,121.049 111.5,119.5C 111.5,120.833 111.5,122.167 111.5,123.5C 110.022,123.238 108.689,123.571 107.5,124.5C 104.181,126.828 100.848,129.162 97.5,131.5C 95.4093,130.5 93.7426,131.167 92.5,133.5C 93.6119,134.265 94.2786,135.265 94.5,136.5C 92.5082,136.672 90.8415,136.005 89.5,134.5C 88.5,135.833 87.5,137.167 86.5,138.5C 85.377,136.711 84.0436,136.378 82.5,137.5C 82.8333,138.167 83.1667,138.833 83.5,139.5C 81.1558,140.337 79.1558,141.671 77.5,143.5C 75.9936,144.747 74.4936,144.747 73,143.5C 67.9358,147.285 62.7692,150.951 57.5,154.5C 56.3112,155.429 54.9778,155.762 53.5,155.5C 53.5,156.833 53.5,158.167 53.5,159.5C 51.1727,159.247 49.1727,159.914 47.5,161.5C 45.4093,160.5 43.7426,161.167 42.5,163.5C 40.1065,164.349 37.7731,165.349 35.5,166.5C 32.7698,169.382 29.7698,172.049 26.5,174.5C 24.8651,175.33 23.1984,175.497 21.5,175C 21.9574,175.414 22.2907,175.914 22.5,176.5C 19.5322,177.824 16.8655,179.491 14.5,181.5C 14.5,175.833 14.5,170.167 14.5,164.5C 16.7843,163.113 19.2843,162.113 22,161.5C 23.9823,160.279 25.4823,158.612 26.5,156.5C 32.4853,153.191 38.4853,149.858 44.5,146.5C 45.5217,145.646 46.3551,144.646 47,143.5C 47.414,143.957 47.914,144.291 48.5,144.5C 55.871,140.152 62.871,135.319 69.5,130C 71.2072,129.805 72.8739,129.805 74.5,130C 74.0426,129.586 73.7093,129.086 73.5,128.5C 78.4922,126.004 83.1588,123.004 87.5,119.5C 89.0709,120.309 90.7376,120.643 92.5,120.5C 92.2148,118.712 92.5481,117.045 93.5,115.5C 94.1667,115.833 94.8333,116.167 95.5,116.5C 107.118,109.009 118.784,101.342 130.5,93.5C 131.167,93.8333 131.833,94.1667 132.5,94.5C 133.545,92.5995 134.878,90.9328 136.5,89.5C 137.167,89.8333 137.833,90.1667 138.5,90.5C 140.698,88.1399 143.365,86.8066 146.5,86.5C 146.5,85.1667 146.5,83.8333 146.5,82.5C 149.487,81.7422 152.487,80.9089 155.5,80C 154.5,79.6667 153.5,79.3333 152.5,79C 169.121,77.2276 185.788,75.8942 202.5,75C 195.321,74.8285 188.321,74.3285 181.5,73.5 Z"/></g>
<g><path style="opacity:1" fill="#78fe8c" d="M 155.5,72.5 C 180.502,72.3334 205.502,72.5 230.5,73C 231.056,73.3826 231.389,73.8826 231.5,74.5C 229.747,77.21 227.414,77.8767 224.5,76.5C 219.99,78.3337 215.99,81.0003 212.5,84.5C 211.571,83.3112 211.238,81.9778 211.5,80.5C 204.831,83.5013 198.164,86.5013 191.5,89.5C 191.5,91.1667 191.5,92.8333 191.5,94.5C 192.552,94.3505 193.552,94.5172 194.5,95C 192.348,96.4127 190.014,97.2461 187.5,97.5C 187.759,100.48 186.426,102.313 183.5,103C 181.597,103.774 179.93,103.44 178.5,102C 180.531,101.368 182.198,100.201 183.5,98.5C 182.833,98.1667 182.167,97.8333 181.5,97.5C 178.41,99.6722 175.077,101.339 171.5,102.5C 170.614,103.325 170.281,104.325 170.5,105.5C 167.066,106.983 163.399,108.316 159.5,109.5C 156.117,112.969 152.45,115.969 148.5,118.5C 147.558,118.392 146.725,118.059 146,117.5C 140.13,121.215 134.63,125.548 129.5,130.5C 127.647,131.76 125.814,131.76 124,130.5C 123.517,131.448 123.351,132.448 123.5,133.5C 117.273,135.286 111.94,138.62 107.5,143.5C 104.611,143.876 102.611,145.376 101.5,148C 100.101,148.595 98.7678,148.428 97.5,147.5C 94.0026,150.083 90.3359,152.416 86.5,154.5C 85.9236,157.124 84.5902,157.791 82.5,156.5C 81.8003,159.015 80.4669,159.682 78.5,158.5C 76.1639,161.177 73.4973,163.51 70.5,165.5C 60.5889,170.298 51.2556,175.965 42.5,182.5C 41.3112,183.429 39.9778,183.762 38.5,183.5C 38.4019,189.373 37.4019,189.706 35.5,184.5C 34.3333,186.167 33.1667,187.833 32,189.5C 31.586,189.043 31.086,188.709 30.5,188.5C 29.5,189.5 28.5,190.5 27.5,191.5C 23.0503,193.039 18.7169,194.705 14.5,196.5C 14.5,192.833 14.5,189.167 14.5,185.5C 16.6665,183.657 18.9999,181.99 21.5,180.5C 26.1955,179.808 29.8622,177.475 32.5,173.5C 33.451,174.326 34.451,174.492 35.5,174C 34.5494,173.282 34.3828,172.449 35,171.5C 36.2562,170.97 37.7562,170.97 39.5,171.5C 40.3857,170.675 40.719,169.675 40.5,168.5C 42.5412,168.146 44.3745,168.146 46,168.5C 46.4922,167.451 46.3256,166.451 45.5,165.5C 50.6211,162.862 55.4544,159.862 60,156.5C 61.4936,157.747 62.9936,157.747 64.5,156.5C 74.5555,149.753 84.5555,143.086 94.5,136.5C 98.5492,135.804 101.882,133.804 104.5,130.5C 105.167,130.833 105.833,131.167 106.5,131.5C 110.772,126.374 116.105,122.874 122.5,121C 122.727,119.865 123.06,118.698 123.5,117.5C 124.333,118.5 125.167,119.5 126,120.5C 126.36,118.579 127.194,116.912 128.5,115.5C 129.167,115.833 129.833,116.167 130.5,116.5C 132.167,114.833 133.833,113.167 135.5,111.5C 141.774,108.854 147.774,105.854 153.5,102.5C 153.343,101.127 153.51,99.7932 154,98.5C 154.561,99.0219 155.228,99.3552 156,99.5C 157.654,98.3467 159.154,97.0134 160.5,95.5C 161.167,96.1667 161.833,96.8333 162.5,97.5C 164.213,96.1218 165.547,94.4552 166.5,92.5C 171.02,90.7376 175.353,88.7376 179.5,86.5C 179.5,85.1667 179.5,83.8333 179.5,82.5C 183.845,82.1583 187.512,80.4916 190.5,77.5C 201.143,76.4567 211.81,75.6234 222.5,75C 208.851,73.973 195.185,73.473 181.5,73.5C 172.651,73.8264 163.984,73.493 155.5,72.5 Z"/></g>
<g><path style="opacity:1" fill="#86fe98" d="M 114.5,73.5 C 127.99,72.5043 141.656,72.171 155.5,72.5C 163.984,73.493 172.651,73.8264 181.5,73.5C 188.321,74.3285 195.321,74.8285 202.5,75C 185.788,75.8942 169.121,77.2276 152.5,79C 153.5,79.3333 154.5,79.6667 155.5,80C 152.487,80.9089 149.487,81.7422 146.5,82.5C 146.5,83.8333 146.5,85.1667 146.5,86.5C 143.365,86.8066 140.698,88.1399 138.5,90.5C 137.833,90.1667 137.167,89.8333 136.5,89.5C 134.878,90.9328 133.545,92.5995 132.5,94.5C 131.833,94.1667 131.167,93.8333 130.5,93.5C 118.784,101.342 107.118,109.009 95.5,116.5C 94.8333,116.167 94.1667,115.833 93.5,115.5C 92.5481,117.045 92.2148,118.712 92.5,120.5C 90.7376,120.643 89.0709,120.309 87.5,119.5C 83.1588,123.004 78.4922,126.004 73.5,128.5C 73.7093,129.086 74.0426,129.586 74.5,130C 72.8739,129.805 71.2072,129.805 69.5,130C 62.871,135.319 55.871,140.152 48.5,144.5C 47.914,144.291 47.414,143.957 47,143.5C 46.3551,144.646 45.5217,145.646 44.5,146.5C 38.4853,149.858 32.4853,153.191 26.5,156.5C 25.4823,158.612 23.9823,160.279 22,161.5C 19.2843,162.113 16.7843,163.113 14.5,164.5C 14.5,158.833 14.5,153.167 14.5,147.5C 18.3557,149.15 20.5224,147.816 21,143.5C 21.414,143.957 21.914,144.291 22.5,144.5C 25.8726,141.822 29.2059,139.156 32.5,136.5C 33.1667,137.167 33.8333,137.833 34.5,138.5C 38.2039,135.626 41.5373,132.293 44.5,128.5C 49.6424,125.518 54.6424,122.351 59.5,119C 57.7295,118.465 57.3961,117.631 58.5,116.5C 59.5,117.167 60.5,117.833 61.5,118.5C 62.1997,115.985 63.5331,115.318 65.5,116.5C 68.2478,114.147 70.9145,111.814 73.5,109.5C 76.8765,108.43 80.2098,107.264 83.5,106C 86.2402,102.544 89.9069,100.711 94.5,100.5C 97.5225,97.7075 100.856,95.3741 104.5,93.5C 105.167,93.8333 105.833,94.1667 106.5,94.5C 107.545,92.5995 108.878,90.9328 110.5,89.5C 111.086,89.7093 111.586,90.0426 112,90.5C 116.602,86.2419 121.769,82.7419 127.5,80C 127.167,79.6667 126.833,79.3333 126.5,79C 134.961,78.0007 143.295,77.1674 151.5,76.5C 152.609,75.71 153.942,75.21 155.5,75C 141.863,73.7454 128.196,73.2454 114.5,73.5 Z"/></g>
<g><path style="opacity:1" fill="#73fe88" d="M 231.5,74.5 C 233.813,75.5005 235.813,76.8338 237.5,78.5C 237.5,79.5 237.5,80.5 237.5,81.5C 235.94,81.4809 234.44,81.1476 233,80.5C 231.606,81.6133 230.439,82.9466 229.5,84.5C 227.286,82.0762 226.286,82.7429 226.5,86.5C 222.748,87.0687 219.915,89.0687 218,92.5C 217.586,92.0426 217.086,91.7093 216.5,91.5C 215.8,94.0149 214.467,94.6816 212.5,93.5C 208.226,96.103 204.226,99.103 200.5,102.5C 199.311,103.429 197.978,103.762 196.5,103.5C 196.367,106.896 195.367,107.229 193.5,104.5C 188.732,109.269 183.399,113.269 177.5,116.5C 176.833,116.167 176.167,115.833 175.5,115.5C 173.022,118.103 170.356,120.436 167.5,122.5C 165.01,124.083 162.343,125.083 159.5,125.5C 159.62,128.205 158.62,128.872 156.5,127.5C 155.147,128.685 153.98,130.019 153,131.5C 152.282,130.549 151.449,130.383 150.5,131C 137.282,140.776 123.282,149.276 108.5,156.5C 107.833,157.833 107.167,159.167 106.5,160.5C 105.833,159.833 105.167,159.167 104.5,158.5C 100.818,161.954 96.8179,164.954 92.5,167.5C 89.143,168.968 85.9763,170.634 83,172.5C 82.6667,172.167 82.3333,171.833 82,171.5C 81.7978,173.256 81.2978,174.922 80.5,176.5C 78.4098,175.209 77.0764,175.876 76.5,178.5C 69.1747,180.19 63.1747,183.857 58.5,189.5C 57.8333,189.167 57.1667,188.833 56.5,188.5C 53.6612,190.42 50.6612,192.087 47.5,193.5C 45.4377,195.403 44.1044,197.737 43.5,200.5C 41.5,200.167 39.5,199.833 37.5,199.5C 32.0697,203.27 26.403,206.603 20.5,209.5C 20.33,210.822 20.6634,211.989 21.5,213C 20.552,213.483 19.552,213.649 18.5,213.5C 17.4549,212.122 16.1216,211.122 14.5,210.5C 14.5,205.833 14.5,201.167 14.5,196.5C 18.7169,194.705 23.0503,193.039 27.5,191.5C 28.5,190.5 29.5,189.5 30.5,188.5C 31.086,188.709 31.586,189.043 32,189.5C 33.1667,187.833 34.3333,186.167 35.5,184.5C 37.4019,189.706 38.4019,189.373 38.5,183.5C 39.9778,183.762 41.3112,183.429 42.5,182.5C 51.2556,175.965 60.5889,170.298 70.5,165.5C 73.4973,163.51 76.1639,161.177 78.5,158.5C 80.4669,159.682 81.8003,159.015 82.5,156.5C 84.5902,157.791 85.9236,157.124 86.5,154.5C 90.3359,152.416 94.0026,150.083 97.5,147.5C 98.7678,148.428 100.101,148.595 101.5,148C 102.611,145.376 104.611,143.876 107.5,143.5C 111.94,138.62 117.273,135.286 123.5,133.5C 123.351,132.448 123.517,131.448 124,130.5C 125.814,131.76 127.647,131.76 129.5,130.5C 134.63,125.548 140.13,121.215 146,117.5C 146.725,118.059 147.558,118.392 148.5,118.5C 152.45,115.969 156.117,112.969 159.5,109.5C 163.399,108.316 167.066,106.983 170.5,105.5C 170.281,104.325 170.614,103.325 171.5,102.5C 175.077,101.339 178.41,99.6722 181.5,97.5C 182.167,97.8333 182.833,98.1667 183.5,98.5C 182.198,100.201 180.531,101.368 178.5,102C 179.93,103.44 181.597,103.774 183.5,103C 186.426,102.313 187.759,100.48 187.5,97.5C 190.014,97.2461 192.348,96.4127 194.5,95C 193.552,94.5172 192.552,94.3505 191.5,94.5C 191.5,92.8333 191.5,91.1667 191.5,89.5C 198.164,86.5013 204.831,83.5013 211.5,80.5C 211.238,81.9778 211.571,83.3112 212.5,84.5C 215.99,81.0003 219.99,78.3337 224.5,76.5C 227.414,77.8767 229.747,77.21 231.5,74.5 Z"/></g>
<g><path style="opacity:1" fill="#1cea35" d="M 106.5,77.5 C 105.833,78.1667 105.167,78.8333 104.5,79.5C 102.833,80.1667 101.167,80.8333 99.5,81.5C 75.9091,80.6814 52.2425,80.848 28.5,82C 26.6183,82.1981 24.9516,82.6981 23.5,83.5C 22.5,83.5 21.5,83.5 20.5,83.5C 21.842,82.207 23.5087,81.3736 25.5,81C 33.0395,80.0625 40.5395,79.2291 48,78.5C 55.2228,79.1701 62.2228,79.5035 69,79.5C 81.4309,78.6004 93.9309,77.9337 106.5,77.5 Z"/></g>
<g><path style="opacity:1" fill="#16df2e" d="M 99.5,81.5 C 97.5,82.1667 95.5,82.8333 93.5,83.5C 70.1667,83.5 46.8333,83.5 23.5,83.5C 24.9516,82.6981 26.6183,82.1981 28.5,82C 52.2425,80.848 75.9091,80.6814 99.5,81.5 Z"/></g>
<g><path style="opacity:1" fill="#6dfe82" d="M 237.5,81.5 C 237.5,85.1667 237.5,88.8333 237.5,92.5C 235.952,92.8212 235.285,93.8212 235.5,95.5C 234.022,95.238 232.689,95.5713 231.5,96.5C 227.485,99.5045 223.485,102.505 219.5,105.5C 218.914,105.291 218.414,104.957 218,104.5C 217.685,107.147 216.518,107.813 214.5,106.5C 210.745,108.088 207.745,110.588 205.5,114C 201.664,115.416 198.331,117.583 195.5,120.5C 194.707,120.069 193.873,119.735 193,119.5C 189.001,122.668 184.668,125.335 180,127.5C 179.228,127.355 178.561,127.022 178,126.5C 177.122,129.215 175.622,131.549 173.5,133.5C 172.833,133.167 172.167,132.833 171.5,132.5C 165.695,136.242 160.029,140.242 154.5,144.5C 153.914,144.291 153.414,143.957 153,143.5C 148.999,146.34 145.166,149.34 141.5,152.5C 137.039,154.617 132.539,156.617 128,158.5C 125.678,160.322 123.511,162.322 121.5,164.5C 120.167,163.167 118.833,163.167 117.5,164.5C 113.606,168.45 109.272,171.783 104.5,174.5C 100.534,176.378 96.5338,178.045 92.5,179.5C 92.5,180.833 92.5,182.167 92.5,183.5C 89.3908,183.655 86.3908,184.322 83.5,185.5C 79.1524,188.931 74.8191,192.264 70.5,195.5C 68.2933,196.635 65.9599,197.301 63.5,197.5C 63.5,198.5 63.5,199.5 63.5,200.5C 62.1779,200.67 61.0113,200.337 60,199.5C 59.7699,203.213 58.6032,203.88 56.5,201.5C 50.8981,206.273 44.8981,210.44 38.5,214C 44.8246,214.5 51.1579,214.666 57.5,214.5C 45.6279,215.802 33.6279,215.802 21.5,214.5C 20.209,214.737 19.209,214.404 18.5,213.5C 19.552,213.649 20.552,213.483 21.5,213C 20.6634,211.989 20.33,210.822 20.5,209.5C 26.403,206.603 32.0697,203.27 37.5,199.5C 39.5,199.833 41.5,200.167 43.5,200.5C 44.1044,197.737 45.4377,195.403 47.5,193.5C 50.6612,192.087 53.6612,190.42 56.5,188.5C 57.1667,188.833 57.8333,189.167 58.5,189.5C 63.1747,183.857 69.1747,180.19 76.5,178.5C 77.0764,175.876 78.4098,175.209 80.5,176.5C 81.2978,174.922 81.7978,173.256 82,171.5C 82.3333,171.833 82.6667,172.167 83,172.5C 85.9763,170.634 89.143,168.968 92.5,167.5C 96.8179,164.954 100.818,161.954 104.5,158.5C 105.167,159.167 105.833,159.833 106.5,160.5C 107.167,159.167 107.833,157.833 108.5,156.5C 123.282,149.276 137.282,140.776 150.5,131C 151.449,130.383 152.282,130.549 153,131.5C 153.98,130.019 155.147,128.685 156.5,127.5C 158.62,128.872 159.62,128.205 159.5,125.5C 162.343,125.083 165.01,124.083 167.5,122.5C 170.356,120.436 173.022,118.103 175.5,115.5C 176.167,115.833 176.833,116.167 177.5,116.5C 183.399,113.269 188.732,109.269 193.5,104.5C 195.367,107.229 196.367,106.896 196.5,103.5C 197.978,103.762 199.311,103.429 200.5,102.5C 204.226,99.103 208.226,96.103 212.5,93.5C 214.467,94.6816 215.8,94.0149 216.5,91.5C 217.086,91.7093 217.586,92.0426 218,92.5C 219.915,89.0687 222.748,87.0687 226.5,86.5C 226.286,82.7429 227.286,82.0762 229.5,84.5C 230.439,82.9466 231.606,81.6133 233,80.5C 234.44,81.1476 235.94,81.4809 237.5,81.5 Z"/></g>
<g><path style="opacity:1" fill="#3ae24e" d="M 20.5,83.5 C 21.5,83.5 22.5,83.5 23.5,83.5C 46.8333,83.5 70.1667,83.5 93.5,83.5C 68.9311,84.1758 44.2645,84.8424 19.5,85.5C 19.3284,84.5084 19.6618,83.8417 20.5,83.5 Z"/></g>
<g><path style="opacity:1" fill="#8ef79c" d="M 104.5,79.5 C 101.749,82.3394 98.4162,84.3394 94.5,85.5C 69.4553,85.1856 44.4553,85.5189 19.5,86.5C 19.5,86.1667 19.5,85.8333 19.5,85.5C 44.2645,84.8424 68.9311,84.1758 93.5,83.5C 95.5,82.8333 97.5,82.1667 99.5,81.5C 101.167,80.8333 102.833,80.1667 104.5,79.5 Z"/></g>
<g><path style="opacity:1" fill="#b6fec2" d="M 94.5,85.5 C 81.0305,87.1607 67.3639,88.1607 53.5,88.5C 49.8333,88.5 46.1667,88.5 42.5,88.5C 35.4921,88.3337 28.4921,88.5004 21.5,89C 18.9597,91.0438 16.6264,93.2104 14.5,95.5C 14.5,94.1667 14.5,92.8333 14.5,91.5C 15.8333,91.5 16.5,90.8333 16.5,89.5C 17.1667,88.1667 18.1667,87.1667 19.5,86.5C 44.4553,85.5189 69.4553,85.1856 94.5,85.5 Z"/></g>
<g><path style="opacity:1" fill="#8cff9d" d="M 151.5,76.5 C 143.295,77.1674 134.961,78.0007 126.5,79C 126.833,79.3333 127.167,79.6667 127.5,80C 121.769,82.7419 116.602,86.2419 112,90.5C 111.586,90.0426 111.086,89.7093 110.5,89.5C 108.878,90.9328 107.545,92.5995 106.5,94.5C 105.833,94.1667 105.167,93.8333 104.5,93.5C 100.856,95.3741 97.5225,97.7075 94.5,100.5C 89.9069,100.711 86.2402,102.544 83.5,106C 80.2098,107.264 76.8765,108.43 73.5,109.5C 70.9145,111.814 68.2478,114.147 65.5,116.5C 63.5331,115.318 62.1997,115.985 61.5,118.5C 60.5,117.833 59.5,117.167 58.5,116.5C 57.3961,117.631 57.7295,118.465 59.5,119C 54.6424,122.351 49.6424,125.518 44.5,128.5C 41.5373,132.293 38.2039,135.626 34.5,138.5C 33.8333,137.833 33.1667,137.167 32.5,136.5C 29.2059,139.156 25.8726,141.822 22.5,144.5C 21.914,144.291 21.414,143.957 21,143.5C 20.5224,147.816 18.3557,149.15 14.5,147.5C 14.5,142.833 14.5,138.167 14.5,133.5C 17.0026,132.085 19.6693,130.918 22.5,130C 29.2317,125.64 35.565,120.807 41.5,115.5C 43.3671,118.229 44.3671,117.896 44.5,114.5C 50.3049,111.761 55.6383,108.261 60.5,104C 61.549,103.508 62.549,103.674 63.5,104.5C 65.4983,102.666 67.8316,101.666 70.5,101.5C 70.5,100.167 70.5,98.8333 70.5,97.5C 73.9264,97.728 76.593,96.3947 78.5,93.5C 80.6198,94.8715 81.6198,94.2048 81.5,91.5C 83.1092,91.9059 84.4425,91.9059 85.5,91.5C 82.0227,90.8328 78.6893,90.1661 75.5,89.5C 77.099,89.7678 78.4324,89.4345 79.5,88.5C 92.2625,90.565 103.263,87.2316 112.5,78.5C 114.482,78.0046 116.482,77.5046 118.5,77C 129.495,76.5002 140.495,76.3335 151.5,76.5 Z"/></g>
<g><path style="opacity:1" fill="#a0feae" d="M 112.5,78.5 C 103.263,87.2316 92.2625,90.565 79.5,88.5C 70.8333,88.5 62.1667,88.5 53.5,88.5C 67.3639,88.1607 81.0305,87.1607 94.5,85.5C 98.4162,84.3394 101.749,82.3394 104.5,79.5C 105.167,78.8333 105.833,78.1667 106.5,77.5C 107.833,76.8333 109.167,76.1667 110.5,75.5C 119.452,74.3892 128.452,74.2225 137.5,75C 130.5,75.3333 123.5,75.6667 116.5,76C 114.68,76.2004 113.347,77.0337 112.5,78.5 Z"/></g>
<g><path style="opacity:1" fill="#9affab" d="M 42.5,88.5 C 40.0314,89.3171 37.3647,89.8171 34.5,90C 38.5408,90.1735 42.5408,90.6735 46.5,91.5C 45.6086,92.5896 44.6086,92.5896 43.5,91.5C 42.8333,92.5 42.1667,93.5 41.5,94.5C 35.5181,96.8228 30.1848,100.156 25.5,104.5C 23.9936,105.747 22.4936,105.747 21,104.5C 19.0643,106.217 16.8976,107.551 14.5,108.5C 14.5,104.167 14.5,99.8333 14.5,95.5C 16.6264,93.2104 18.9597,91.0438 21.5,89C 28.4921,88.5004 35.4921,88.3337 42.5,88.5 Z"/></g>
<g><path style="opacity:1" fill="#95ffa4" d="M 42.5,88.5 C 46.1667,88.5 49.8333,88.5 53.5,88.5C 62.1667,88.5 70.8333,88.5 79.5,88.5C 78.4324,89.4345 77.099,89.7678 75.5,89.5C 70.4889,89.3341 65.4889,89.5007 60.5,90C 64.211,90.1747 67.8776,90.6747 71.5,91.5C 68.4511,94.5098 64.7844,96.1764 60.5,96.5C 57.5273,98.472 54.8606,100.805 52.5,103.5C 48.9924,104.37 45.6591,105.703 42.5,107.5C 37.5558,110.773 32.8891,114.44 28.5,118.5C 27.8333,118.167 27.1667,117.833 26.5,117.5C 25.8333,118.833 25.1667,120.167 24.5,121.5C 23.1397,119.152 21.4731,118.985 19.5,121C 19.9574,121.414 20.2907,121.914 20.5,122.5C 18.5891,123.477 16.5891,124.143 14.5,124.5C 14.5,119.167 14.5,113.833 14.5,108.5C 16.8976,107.551 19.0643,106.217 21,104.5C 22.4936,105.747 23.9936,105.747 25.5,104.5C 30.1848,100.156 35.5181,96.8228 41.5,94.5C 42.1667,93.5 42.8333,92.5 43.5,91.5C 44.6086,92.5896 45.6086,92.5896 46.5,91.5C 42.5408,90.6735 38.5408,90.1735 34.5,90C 37.3647,89.8171 40.0314,89.3171 42.5,88.5 Z"/></g>
<g><path style="opacity:1" fill="#90ffa0" d="M 75.5,89.5 C 78.6893,90.1661 82.0227,90.8328 85.5,91.5C 84.4425,91.9059 83.1092,91.9059 81.5,91.5C 81.6198,94.2048 80.6198,94.8715 78.5,93.5C 76.593,96.3947 73.9264,97.728 70.5,97.5C 70.5,98.8333 70.5,100.167 70.5,101.5C 67.8316,101.666 65.4983,102.666 63.5,104.5C 62.549,103.674 61.549,103.508 60.5,104C 55.6383,108.261 50.3049,111.761 44.5,114.5C 44.3671,117.896 43.3671,118.229 41.5,115.5C 35.565,120.807 29.2317,125.64 22.5,130C 19.6693,130.918 17.0026,132.085 14.5,133.5C 14.5,130.5 14.5,127.5 14.5,124.5C 16.5891,124.143 18.5891,123.477 20.5,122.5C 20.2907,121.914 19.9574,121.414 19.5,121C 21.4731,118.985 23.1397,119.152 24.5,121.5C 25.1667,120.167 25.8333,118.833 26.5,117.5C 27.1667,117.833 27.8333,118.167 28.5,118.5C 32.8891,114.44 37.5558,110.773 42.5,107.5C 45.6591,105.703 48.9924,104.37 52.5,103.5C 54.8606,100.805 57.5273,98.472 60.5,96.5C 64.7844,96.1764 68.4511,94.5098 71.5,91.5C 67.8776,90.6747 64.211,90.1747 60.5,90C 65.4889,89.5007 70.4889,89.3341 75.5,89.5 Z"/></g>
<g><path style="opacity:1" fill="#83f692" d="M 14.5,89.5 C 15.1667,89.5 15.8333,89.5 16.5,89.5C 16.5,90.8333 15.8333,91.5 14.5,91.5C 14.5,90.8333 14.5,90.1667 14.5,89.5 Z"/></g>
<g><path style="opacity:1" fill="#68ff7e" d="M 237.5,92.5 C 237.5,96.5 237.5,100.5 237.5,104.5C 236.141,105.007 235.141,106.007 234.5,107.5C 232.41,106.209 231.076,106.876 230.5,109.5C 222.599,113.612 214.932,117.945 207.5,122.5C 207.023,123.478 206.357,124.311 205.5,125C 201.273,125.716 197.94,127.883 195.5,131.5C 193.533,130.318 192.2,130.985 191.5,133.5C 190.914,133.291 190.414,132.957 190,132.5C 183.346,136.571 177.18,141.238 171.5,146.5C 169.533,145.318 168.2,145.985 167.5,148.5C 166.232,147.572 164.899,147.405 163.5,148C 159.554,151.95 154.887,154.617 149.5,156C 145.672,159.41 141.672,162.577 137.5,165.5C 135.5,166.167 133.5,166.833 131.5,167.5C 130.101,169.605 128.434,171.438 126.5,173C 124,173.375 121.667,174.208 119.5,175.5C 114.317,180.263 108.317,183.763 101.5,186C 100.929,187.205 100.262,188.372 99.5,189.5C 97.802,188.319 96.1353,188.319 94.5,189.5C 86.854,196.661 78.1874,202.328 68.5,206.5C 67.0963,208.922 65.2629,209.589 63,208.5C 61.6345,211.062 59.8012,213.062 57.5,214.5C 51.1579,214.666 44.8246,214.5 38.5,214C 44.8981,210.44 50.8981,206.273 56.5,201.5C 58.6032,203.88 59.7699,203.213 60,199.5C 61.0113,200.337 62.1779,200.67 63.5,200.5C 63.5,199.5 63.5,198.5 63.5,197.5C 65.9599,197.301 68.2933,196.635 70.5,195.5C 74.8191,192.264 79.1524,188.931 83.5,185.5C 86.3908,184.322 89.3908,183.655 92.5,183.5C 92.5,182.167 92.5,180.833 92.5,179.5C 96.5338,178.045 100.534,176.378 104.5,174.5C 109.272,171.783 113.606,168.45 117.5,164.5C 118.833,163.167 120.167,163.167 121.5,164.5C 123.511,162.322 125.678,160.322 128,158.5C 132.539,156.617 137.039,154.617 141.5,152.5C 145.166,149.34 148.999,146.34 153,143.5C 153.414,143.957 153.914,144.291 154.5,144.5C 160.029,140.242 165.695,136.242 171.5,132.5C 172.167,132.833 172.833,133.167 173.5,133.5C 175.622,131.549 177.122,129.215 178,126.5C 178.561,127.022 179.228,127.355 180,127.5C 184.668,125.335 189.001,122.668 193,119.5C 193.873,119.735 194.707,120.069 195.5,120.5C 198.331,117.583 201.664,115.416 205.5,114C 207.745,110.588 210.745,108.088 214.5,106.5C 216.518,107.813 217.685,107.147 218,104.5C 218.414,104.957 218.914,105.291 219.5,105.5C 223.485,102.505 227.485,99.5045 231.5,96.5C 232.689,95.5713 234.022,95.238 235.5,95.5C 235.285,93.8212 235.952,92.8212 237.5,92.5 Z"/></g>
<g><path style="opacity:1" fill="#64fe7a" d="M 237.5,104.5 C 237.5,105.833 237.5,107.167 237.5,108.5C 235.553,109.473 233.553,110.473 231.5,111.5C 228.463,113.707 225.796,116.374 223.5,119.5C 221.597,119.306 219.763,119.306 218,119.5C 209.459,125.971 200.626,131.971 191.5,137.5C 189.604,138.466 187.604,138.799 185.5,138.5C 185.5,139.833 185.5,141.167 185.5,142.5C 179.81,143.929 174.476,146.262 169.5,149.5C 165.689,153.24 161.356,156.24 156.5,158.5C 156.081,159.672 155.415,160.672 154.5,161.5C 152.495,158.972 150.829,159.305 149.5,162.5C 145.703,165.089 141.703,167.256 137.5,169C 136.018,170.983 134.351,172.816 132.5,174.5C 129.733,172.884 127.733,173.551 126.5,176.5C 122.243,177.81 118.243,179.477 114.5,181.5C 114.5,182.833 114.5,184.167 114.5,185.5C 112.194,185.993 109.861,186.326 107.5,186.5C 106.859,190.33 105.193,190.996 102.5,188.5C 100.833,190.5 99.1667,192.5 97.5,194.5C 91.3498,198.154 85.0164,201.487 78.5,204.5C 77.6143,205.325 77.281,206.325 77.5,207.5C 75.396,207.201 73.396,207.534 71.5,208.5C 70.3589,210.808 68.6922,212.641 66.5,214C 69.4816,214.498 72.4816,214.665 75.5,214.5C 78.5,214.5 81.5,214.5 84.5,214.5C 91.5079,214.334 98.5079,214.5 105.5,215C 89.9945,215.169 74.6612,215.669 59.5,216.5C 47.1622,216.667 34.8288,216.5 22.5,216C 21.944,215.617 21.6107,215.117 21.5,214.5C 33.6279,215.802 45.6279,215.802 57.5,214.5C 59.8012,213.062 61.6345,211.062 63,208.5C 65.2629,209.589 67.0963,208.922 68.5,206.5C 78.1874,202.328 86.854,196.661 94.5,189.5C 96.1353,188.319 97.802,188.319 99.5,189.5C 100.262,188.372 100.929,187.205 101.5,186C 108.317,183.763 114.317,180.263 119.5,175.5C 121.667,174.208 124,173.375 126.5,173C 128.434,171.438 130.101,169.605 131.5,167.5C 133.5,166.833 135.5,166.167 137.5,165.5C 141.672,162.577 145.672,159.41 149.5,156C 154.887,154.617 159.554,151.95 163.5,148C 164.899,147.405 166.232,147.572 167.5,148.5C 168.2,145.985 169.533,145.318 171.5,146.5C 177.18,141.238 183.346,136.571 190,132.5C 190.414,132.957 190.914,133.291 191.5,133.5C 192.2,130.985 193.533,130.318 195.5,131.5C 197.94,127.883 201.273,125.716 205.5,125C 206.357,124.311 207.023,123.478 207.5,122.5C 214.932,117.945 222.599,113.612 230.5,109.5C 231.076,106.876 232.41,106.209 234.5,107.5C 235.141,106.007 236.141,105.007 237.5,104.5 Z"/></g>
<g><path style="opacity:1" fill="#7cfe8f" d="M 190.5,77.5 C 187.512,80.4916 183.845,82.1583 179.5,82.5C 179.5,83.8333 179.5,85.1667 179.5,86.5C 175.353,88.7376 171.02,90.7376 166.5,92.5C 165.547,94.4552 164.213,96.1218 162.5,97.5C 161.833,96.8333 161.167,96.1667 160.5,95.5C 159.154,97.0134 157.654,98.3467 156,99.5C 155.228,99.3552 154.561,99.0219 154,98.5C 153.51,99.7932 153.343,101.127 153.5,102.5C 147.774,105.854 141.774,108.854 135.5,111.5C 133.833,113.167 132.167,114.833 130.5,116.5C 129.833,116.167 129.167,115.833 128.5,115.5C 127.194,116.912 126.36,118.579 126,120.5C 125.167,119.5 124.333,118.5 123.5,117.5C 123.06,118.698 122.727,119.865 122.5,121C 116.105,122.874 110.772,126.374 106.5,131.5C 105.833,131.167 105.167,130.833 104.5,130.5C 101.882,133.804 98.5492,135.804 94.5,136.5C 94.2786,135.265 93.6119,134.265 92.5,133.5C 93.7426,131.167 95.4093,130.5 97.5,131.5C 100.848,129.162 104.181,126.828 107.5,124.5C 108.689,123.571 110.022,123.238 111.5,123.5C 111.5,122.167 111.5,120.833 111.5,119.5C 115.353,121.049 118.02,119.716 119.5,115.5C 122.496,116.833 124.163,115.833 124.5,112.5C 128.419,111.538 131.753,109.538 134.5,106.5C 136.264,109.177 137.43,108.844 138,105.5C 141.196,108.538 142.03,108.038 140.5,104C 144.971,101.263 149.637,98.7627 154.5,96.5C 154.919,95.3279 155.585,94.3279 156.5,93.5C 158.224,94.6613 159.89,94.4947 161.5,93C 166.727,87.7082 172.727,83.3749 179.5,80C 178.833,79.6667 178.167,79.3333 177.5,79C 181.79,78.0775 186.123,77.5775 190.5,77.5 Z"/></g>
<g><path style="opacity:1" fill="#62ff78" d="M 237.5,108.5 C 237.5,111.167 237.5,113.833 237.5,116.5C 236.265,116.721 235.265,117.388 234.5,118.5C 233.833,118.167 233.167,117.833 232.5,117.5C 228.499,121.503 223.832,124.503 218.5,126.5C 218.167,127.167 217.833,127.833 217.5,128.5C 213.945,129.722 210.611,131.389 207.5,133.5C 204.643,136.766 200.976,138.766 196.5,139.5C 194.821,141.346 192.988,143.012 191,144.5C 182.672,148.777 174.506,153.277 166.5,158C 166.833,158.333 167.167,158.667 167.5,159C 159.879,162.12 152.879,166.287 146.5,171.5C 141.063,174.721 135.396,177.721 129.5,180.5C 129.023,181.478 128.357,182.311 127.5,183C 123.234,183.772 119.901,185.938 117.5,189.5C 115.41,188.209 114.076,188.876 113.5,191.5C 109.833,193.833 106.167,196.167 102.5,198.5C 100.38,197.128 99.3802,197.795 99.5,200.5C 96.646,200.924 93.9793,201.924 91.5,203.5C 87.0548,207.453 82.2215,210.787 77,213.5C 75.8932,212.288 75.3932,212.621 75.5,214.5C 72.4816,214.665 69.4816,214.498 66.5,214C 68.6922,212.641 70.3589,210.808 71.5,208.5C 73.396,207.534 75.396,207.201 77.5,207.5C 77.281,206.325 77.6143,205.325 78.5,204.5C 85.0164,201.487 91.3498,198.154 97.5,194.5C 99.1667,192.5 100.833,190.5 102.5,188.5C 105.193,190.996 106.859,190.33 107.5,186.5C 109.861,186.326 112.194,185.993 114.5,185.5C 114.5,184.167 114.5,182.833 114.5,181.5C 118.243,179.477 122.243,177.81 126.5,176.5C 127.733,173.551 129.733,172.884 132.5,174.5C 134.351,172.816 136.018,170.983 137.5,169C 141.703,167.256 145.703,165.089 149.5,162.5C 150.829,159.305 152.495,158.972 154.5,161.5C 155.415,160.672 156.081,159.672 156.5,158.5C 161.356,156.24 165.689,153.24 169.5,149.5C 174.476,146.262 179.81,143.929 185.5,142.5C 185.5,141.167 185.5,139.833 185.5,138.5C 187.604,138.799 189.604,138.466 191.5,137.5C 200.626,131.971 209.459,125.971 218,119.5C 219.763,119.306 221.597,119.306 223.5,119.5C 225.796,116.374 228.463,113.707 231.5,111.5C 233.553,110.473 235.553,109.473 237.5,108.5 Z"/></g>
<g><path style="opacity:1" fill="#5fff75" d="M 237.5,116.5 C 237.5,118.833 237.5,121.167 237.5,123.5C 234.204,123.696 231.871,125.362 230.5,128.5C 220.306,131.968 211.306,137.301 203.5,144.5C 201.38,143.128 200.38,143.795 200.5,146.5C 198.738,146.357 197.071,146.691 195.5,147.5C 191.053,152.709 185.72,155.709 179.5,156.5C 177.311,159.176 174.811,161.509 172,163.5C 171.667,163.167 171.333,162.833 171,162.5C 170.692,163.308 170.192,163.975 169.5,164.5C 168.549,163.674 167.549,163.508 166.5,164C 164.117,168.388 160.451,170.721 155.5,171C 151.009,174.081 146.342,176.914 141.5,179.5C 138.77,182.382 135.77,185.049 132.5,187.5C 130.397,185.12 129.23,185.787 129,189.5C 128.586,189.043 128.086,188.709 127.5,188.5C 125.158,191.286 122.158,192.953 118.5,193.5C 115.9,195.283 113.566,197.283 111.5,199.5C 103.976,202.907 96.9756,207.24 90.5,212.5C 88.9936,213.747 87.4936,213.747 86,212.5C 85.2828,213.044 84.7828,213.711 84.5,214.5C 81.5,214.5 78.5,214.5 75.5,214.5C 75.3932,212.621 75.8932,212.288 77,213.5C 82.2215,210.787 87.0548,207.453 91.5,203.5C 93.9793,201.924 96.646,200.924 99.5,200.5C 99.3802,197.795 100.38,197.128 102.5,198.5C 106.167,196.167 109.833,193.833 113.5,191.5C 114.076,188.876 115.41,188.209 117.5,189.5C 119.901,185.938 123.234,183.772 127.5,183C 128.357,182.311 129.023,181.478 129.5,180.5C 135.396,177.721 141.063,174.721 146.5,171.5C 152.879,166.287 159.879,162.12 167.5,159C 167.167,158.667 166.833,158.333 166.5,158C 174.506,153.277 182.672,148.777 191,144.5C 192.988,143.012 194.821,141.346 196.5,139.5C 200.976,138.766 204.643,136.766 207.5,133.5C 210.611,131.389 213.945,129.722 217.5,128.5C 217.833,127.833 218.167,127.167 218.5,126.5C 223.832,124.503 228.499,121.503 232.5,117.5C 233.167,117.833 233.833,118.167 234.5,118.5C 235.265,117.388 236.265,116.721 237.5,116.5 Z"/></g>
<g><path style="opacity:1" fill="#5afe71" d="M 237.5,123.5 C 237.5,127.833 237.5,132.167 237.5,136.5C 233.264,138.723 229.264,141.389 225.5,144.5C 224.833,144.167 224.167,143.833 223.5,143.5C 221.878,144.933 220.545,146.599 219.5,148.5C 218.914,148.291 218.414,147.957 218,147.5C 211.798,151.517 205.298,154.851 198.5,157.5C 198.895,160.523 197.895,161.523 195.5,160.5C 186.834,166.503 177.834,171.836 168.5,176.5C 163.49,181.572 157.49,185.072 150.5,187C 147.816,190.187 144.483,192.353 140.5,193.5C 140.833,194.167 141.167,194.833 141.5,195.5C 139.668,196.248 138.001,197.248 136.5,198.5C 135.833,198.167 135.167,197.833 134.5,197.5C 133.455,199.401 132.122,201.067 130.5,202.5C 129.232,201.572 127.899,201.405 126.5,202C 120.933,207.28 114.6,211.28 107.5,214C 114.346,214.172 121.013,214.672 127.5,215.5C 123.629,215.185 119.962,215.518 116.5,216.5C 97.5,216.5 78.5,216.5 59.5,216.5C 74.6612,215.669 89.9945,215.169 105.5,215C 98.5079,214.5 91.5079,214.334 84.5,214.5C 84.7828,213.711 85.2828,213.044 86,212.5C 87.4936,213.747 88.9936,213.747 90.5,212.5C 96.9756,207.24 103.976,202.907 111.5,199.5C 113.566,197.283 115.9,195.283 118.5,193.5C 122.158,192.953 125.158,191.286 127.5,188.5C 128.086,188.709 128.586,189.043 129,189.5C 129.23,185.787 130.397,185.12 132.5,187.5C 135.77,185.049 138.77,182.382 141.5,179.5C 146.342,176.914 151.009,174.081 155.5,171C 160.451,170.721 164.117,168.388 166.5,164C 167.549,163.508 168.549,163.674 169.5,164.5C 170.192,163.975 170.692,163.308 171,162.5C 171.333,162.833 171.667,163.167 172,163.5C 174.811,161.509 177.311,159.176 179.5,156.5C 185.72,155.709 191.053,152.709 195.5,147.5C 197.071,146.691 198.738,146.357 200.5,146.5C 200.38,143.795 201.38,143.128 203.5,144.5C 211.306,137.301 220.306,131.968 230.5,128.5C 231.871,125.362 234.204,123.696 237.5,123.5 Z"/></g>
<g><path style="opacity:1" fill="#54ff6d" d="M 237.5,136.5 C 237.5,140.833 237.5,145.167 237.5,149.5C 234.241,151.089 231.241,153.089 228.5,155.5C 226.547,156.156 224.547,156.489 222.5,156.5C 222.343,158.818 221.176,160.484 219,161.5C 214.589,163.62 210.089,165.62 205.5,167.5C 200.754,172.553 195.087,176.219 188.5,178.5C 186.562,181.049 184.062,182.716 181,183.5C 180.667,183.167 180.333,182.833 180,182.5C 179.517,183.448 179.351,184.448 179.5,185.5C 176.512,185.329 174.512,186.662 173.5,189.5C 171.409,188.5 169.743,189.167 168.5,191.5C 166.5,192.167 164.5,192.833 162.5,193.5C 156.394,198.589 149.727,202.922 142.5,206.5C 139.025,210.472 134.692,212.972 129.5,214C 134.5,214.333 139.5,214.667 144.5,215C 138.843,215.499 133.176,215.666 127.5,215.5C 121.013,214.672 114.346,214.172 107.5,214C 114.6,211.28 120.933,207.28 126.5,202C 127.899,201.405 129.232,201.572 130.5,202.5C 132.122,201.067 133.455,199.401 134.5,197.5C 135.167,197.833 135.833,198.167 136.5,198.5C 138.001,197.248 139.668,196.248 141.5,195.5C 141.167,194.833 140.833,194.167 140.5,193.5C 144.483,192.353 147.816,190.187 150.5,187C 157.49,185.072 163.49,181.572 168.5,176.5C 177.834,171.836 186.834,166.503 195.5,160.5C 197.895,161.523 198.895,160.523 198.5,157.5C 205.298,154.851 211.798,151.517 218,147.5C 218.414,147.957 218.914,148.291 219.5,148.5C 220.545,146.599 221.878,144.933 223.5,143.5C 224.167,143.833 224.833,144.167 225.5,144.5C 229.264,141.389 233.264,138.723 237.5,136.5 Z"/></g>
<g><path style="opacity:1" fill="#7cfe8f" d="M 94.5,136.5 C 84.5555,143.086 74.5555,149.753 64.5,156.5C 62.9936,157.747 61.4936,157.747 60,156.5C 55.4544,159.862 50.6211,162.862 45.5,165.5C 46.3256,166.451 46.4922,167.451 46,168.5C 44.3745,168.146 42.5412,168.146 40.5,168.5C 40.719,169.675 40.3857,170.675 39.5,171.5C 37.7562,170.97 36.2562,170.97 35,171.5C 34.3828,172.449 34.5494,173.282 35.5,174C 34.451,174.492 33.451,174.326 32.5,173.5C 29.8622,177.475 26.1955,179.808 21.5,180.5C 18.9999,181.99 16.6665,183.657 14.5,185.5C 14.5,184.167 14.5,182.833 14.5,181.5C 16.8655,179.491 19.5322,177.824 22.5,176.5C 22.2907,175.914 21.9574,175.414 21.5,175C 23.1984,175.497 24.8651,175.33 26.5,174.5C 29.7698,172.049 32.7698,169.382 35.5,166.5C 37.7731,165.349 40.1065,164.349 42.5,163.5C 43.7426,161.167 45.4093,160.5 47.5,161.5C 49.1727,159.914 51.1727,159.247 53.5,159.5C 53.5,158.167 53.5,156.833 53.5,155.5C 54.9778,155.762 56.3112,155.429 57.5,154.5C 62.7692,150.951 67.9358,147.285 73,143.5C 74.4936,144.747 75.9936,144.747 77.5,143.5C 79.1558,141.671 81.1558,140.337 83.5,139.5C 83.1667,138.833 82.8333,138.167 82.5,137.5C 84.0436,136.378 85.377,136.711 86.5,138.5C 87.5,137.167 88.5,135.833 89.5,134.5C 90.8415,136.005 92.5082,136.672 94.5,136.5 Z"/></g>
<g><path style="opacity:1" fill="#4efe67" d="M 237.5,149.5 C 237.5,154.5 237.5,159.5 237.5,164.5C 233.814,165.68 230.814,167.847 228.5,171C 227.207,171.49 225.873,171.657 224.5,171.5C 224.62,174.205 223.62,174.872 221.5,173.5C 216.235,177.381 211.069,181.381 206,185.5C 205.127,185.265 204.293,184.931 203.5,184.5C 202.158,186.005 200.492,186.672 198.5,186.5C 198.5,187.833 198.5,189.167 198.5,190.5C 194.842,189.872 192.342,191.206 191,194.5C 190.586,194.043 190.086,193.709 189.5,193.5C 187.654,195.592 185.321,196.926 182.5,197.5C 181.614,198.325 181.281,199.325 181.5,200.5C 179.857,200.48 178.524,201.147 177.5,202.5C 176.833,202.167 176.167,201.833 175.5,201.5C 174.833,202.833 174.167,204.167 173.5,205.5C 172.833,204.833 172.167,204.167 171.5,203.5C 167.433,207.986 162.767,211.486 157.5,214C 166.833,214.333 176.167,214.667 185.5,215C 171.994,215.169 158.66,215.669 145.5,216.5C 135.833,216.5 126.167,216.5 116.5,216.5C 119.962,215.518 123.629,215.185 127.5,215.5C 133.176,215.666 138.843,215.499 144.5,215C 139.5,214.667 134.5,214.333 129.5,214C 134.692,212.972 139.025,210.472 142.5,206.5C 149.727,202.922 156.394,198.589 162.5,193.5C 164.5,192.833 166.5,192.167 168.5,191.5C 169.743,189.167 171.409,188.5 173.5,189.5C 174.512,186.662 176.512,185.329 179.5,185.5C 179.351,184.448 179.517,183.448 180,182.5C 180.333,182.833 180.667,183.167 181,183.5C 184.062,182.716 186.562,181.049 188.5,178.5C 195.087,176.219 200.754,172.553 205.5,167.5C 210.089,165.62 214.589,163.62 219,161.5C 221.176,160.484 222.343,158.818 222.5,156.5C 224.547,156.489 226.547,156.156 228.5,155.5C 231.241,153.089 234.241,151.089 237.5,149.5 Z"/></g>
<g><path style="opacity:1" fill="#47fe61" d="M 237.5,164.5 C 237.5,169.167 237.5,173.833 237.5,178.5C 235.381,179.738 233.381,181.238 231.5,183C 229.866,183.494 228.199,183.66 226.5,183.5C 226.5,184.5 226.5,185.5 226.5,186.5C 224.345,186.372 222.345,186.872 220.5,188C 217.285,191.088 213.952,193.921 210.5,196.5C 206.898,197.506 203.565,198.839 200.5,200.5C 200.752,203.37 199.752,205.703 197.5,207.5C 195.286,205.076 194.286,205.743 194.5,209.5C 191.813,210.336 189.48,211.836 187.5,214C 193.833,214.333 200.167,214.667 206.5,215C 202.975,215.179 199.641,215.679 196.5,216.5C 179.5,216.5 162.5,216.5 145.5,216.5C 158.66,215.669 171.994,215.169 185.5,215C 176.167,214.667 166.833,214.333 157.5,214C 162.767,211.486 167.433,207.986 171.5,203.5C 172.167,204.167 172.833,204.833 173.5,205.5C 174.167,204.167 174.833,202.833 175.5,201.5C 176.167,201.833 176.833,202.167 177.5,202.5C 178.524,201.147 179.857,200.48 181.5,200.5C 181.281,199.325 181.614,198.325 182.5,197.5C 185.321,196.926 187.654,195.592 189.5,193.5C 190.086,193.709 190.586,194.043 191,194.5C 192.342,191.206 194.842,189.872 198.5,190.5C 198.5,189.167 198.5,187.833 198.5,186.5C 200.492,186.672 202.158,186.005 203.5,184.5C 204.293,184.931 205.127,185.265 206,185.5C 211.069,181.381 216.235,177.381 221.5,173.5C 223.62,174.872 224.62,174.205 224.5,171.5C 225.873,171.657 227.207,171.49 228.5,171C 230.814,167.847 233.814,165.68 237.5,164.5 Z"/></g>
<g><path style="opacity:1" fill="#3dfe59" d="M 237.5,178.5 C 237.5,189.167 237.5,199.833 237.5,210.5C 235.866,211.207 234.532,212.373 233.5,214C 231.392,214.36 229.392,215.027 227.5,216C 217.172,216.5 206.839,216.666 196.5,216.5C 199.641,215.679 202.975,215.179 206.5,215C 200.167,214.667 193.833,214.333 187.5,214C 189.48,211.836 191.813,210.336 194.5,209.5C 194.286,205.743 195.286,205.076 197.5,207.5C 199.752,205.703 200.752,203.37 200.5,200.5C 203.565,198.839 206.898,197.506 210.5,196.5C 213.952,193.921 217.285,191.088 220.5,188C 222.345,186.872 224.345,186.372 226.5,186.5C 226.5,185.5 226.5,184.5 226.5,183.5C 228.199,183.66 229.866,183.494 231.5,183C 233.381,181.238 235.381,179.738 237.5,178.5 Z"/></g>
<g><path style="opacity:1" fill="#55f063" d="M 14.5,213.5 C 16.0541,214.693 17.7208,215.86 19.5,217C 20.2524,217.671 20.5858,218.504 20.5,219.5C 17.1839,218.851 15.1839,216.851 14.5,213.5 Z"/></g>
<g><path style="opacity:1" fill="#36ed49" d="M 14.5,210.5 C 16.1216,211.122 17.4549,212.122 18.5,213.5C 19.209,214.404 20.209,214.737 21.5,214.5C 21.6107,215.117 21.944,215.617 22.5,216C 34.8288,216.5 47.1622,216.667 59.5,216.5C 78.5,216.5 97.5,216.5 116.5,216.5C 126.167,216.5 135.833,216.5 145.5,216.5C 162.5,216.5 179.5,216.5 196.5,216.5C 206.839,216.666 217.172,216.5 227.5,216C 229.392,215.027 231.392,214.36 233.5,214C 234.532,212.373 235.866,211.207 237.5,210.5C 237.371,212.216 237.038,213.883 236.5,215.5C 233.336,215.558 230.336,216.224 227.5,217.5C 208.5,217.5 189.5,217.5 170.5,217.5C 121.499,217.333 72.4989,217.5 23.5,218C 24.2524,218.671 24.5858,219.504 24.5,220.5C 23.0413,220.567 21.7079,220.234 20.5,219.5C 20.5858,218.504 20.2524,217.671 19.5,217C 17.7208,215.86 16.0541,214.693 14.5,213.5C 14.5,212.5 14.5,211.5 14.5,210.5 Z"/></g>
<g><path style="opacity:1" fill="#25e536" d="M 170.5,217.5 C 173.353,218.954 176.353,219.954 179.5,220.5C 127.833,220.5 76.1667,220.5 24.5,220.5C 24.5858,219.504 24.2524,218.671 23.5,218C 72.4989,217.5 121.499,217.333 170.5,217.5 Z"/></g>
<g><path style="opacity:1" fill="#2bde39" d="M 170.5,217.5 C 189.5,217.5 208.5,217.5 227.5,217.5C 227.5,218.5 227.5,219.5 227.5,220.5C 211.5,220.5 195.5,220.5 179.5,220.5C 176.353,219.954 173.353,218.954 170.5,217.5 Z"/></g>
<g><path style="opacity:0.867" fill="#46e250" d="M 236.5,215.5 C 234.626,218.942 231.626,220.609 227.5,220.5C 227.5,219.5 227.5,218.5 227.5,217.5C 230.336,216.224 233.336,215.558 236.5,215.5 Z"/></g>
</svg>
