<svg xmlns="http://www.w3.org/2000/svg" xmlns:xlink="http://www.w3.org/1999/xlink" width="250" height="250" version="1.1" style="shape-rendering:geometricPrecision;text-rendering:geometricPrecision;image-rendering:optimizeQuality;fill-rule:evenodd;clip-rule:evenodd"><g><path style="opacity:1" fill="#fdb933" d="M 23.5,43.5 C 45.0065,43.1694 66.3399,43.5027 87.5,44.5C 87.5,44.8333 87.5,45.1667 87.5,45.5C 65.8072,46.1555 44.4738,45.4888 23.5,43.5 Z"/></g><g><path style="opacity:.997" fill="#fca40a" d="M 23.5,43.5 C 44.4738,45.4888 65.8072,46.1555 87.5,45.5C 88.7122,47.2637 88.3788,48.9303 86.5,50.5C 85.5224,50.0233 84.6891,49.3567 84,48.5C 83.8333,49 83.6667,49.5 83.5,50C 85.2009,51.8603 86.2009,54.027 86.5,56.5C 84.0069,56.0238 82.0069,54.6904 80.5,52.5C 80.9471,56.9196 78.7805,59.5863 74,60.5C 72.2841,60.2517 70.7841,59.585 69.5,58.5C 68.8333,59.1667 68.1667,59.8333 67.5,60.5C 65.3251,55.6367 64.3251,56.3034 64.5,62.5C 67.3678,63.0168 70.0345,63.3501 72.5,63.5C 69.8426,65.4878 67.1759,67.4878 64.5,69.5C 64.1667,68.1667 63.8333,66.8333 63.5,65.5C 59.5654,66.7225 55.8987,68.3892 52.5,70.5C 51.1973,69.2822 50.1973,69.6155 49.5,71.5C 48.8333,69.5 48.1667,67.5 47.5,65.5C 45.6369,67.8929 44.3035,70.5596 43.5,73.5C 42.8333,72.8333 42.1667,72.1667 41.5,71.5C 32.2219,72.4474 23.2219,74.4474 14.5,77.5C 14.3336,68.4938 14.5002,59.4938 15,50.5C 17.1072,47.2208 19.9406,44.8874 23.5,43.5 Z"/></g><g><path style="opacity:.99" fill="#faa00b" d="M 87.5,45.5 C 87.5,45.1667 87.5,44.8333 87.5,44.5C 88.5,44.5 89.5,44.5 90.5,44.5C 90.5,45.5 90.5,46.5 90.5,47.5C 92.1998,47.6261 93.6998,48.2927 95,49.5C 96.0299,49.1639 96.5299,48.4972 96.5,47.5C 99.729,49.9416 102.729,52.6082 105.5,55.5C 105.5,56.8333 105.5,58.1667 105.5,59.5C 106.5,59.5 107.5,59.5 108.5,59.5C 108.733,61.0618 109.4,62.3951 110.5,63.5C 110.028,66.3579 111.028,68.3579 113.5,69.5C 113.5,69.8333 113.5,70.1667 113.5,70.5C 111.002,71.627 108.336,72.2937 105.5,72.5C 102.871,71.5054 100.704,71.8388 99,73.5C 98.2753,72.9415 97.4419,72.6082 96.5,72.5C 91.8088,73.1075 87.1422,73.7741 82.5,74.5C 77.4668,73.5963 72.4668,73.9297 67.5,75.5C 66.8333,75.1667 66.1667,74.8333 65.5,74.5C 54.1933,75.3026 42.8599,76.136 31.5,77C 28.4294,77.1466 25.5961,77.9799 23,79.5C 22.6667,79.1667 22.3333,78.8333 22,78.5C 19.8428,80.495 17.3428,81.8283 14.5,82.5C 14.5,80.8333 14.5,79.1667 14.5,77.5C 23.2219,74.4474 32.2219,72.4474 41.5,71.5C 42.1667,72.1667 42.8333,72.8333 43.5,73.5C 44.3035,70.5596 45.6369,67.8929 47.5,65.5C 48.1667,67.5 48.8333,69.5 49.5,71.5C 50.1973,69.6155 51.1973,69.2822 52.5,70.5C 55.8987,68.3892 59.5654,66.7225 63.5,65.5C 63.8333,66.8333 64.1667,68.1667 64.5,69.5C 67.1759,67.4878 69.8426,65.4878 72.5,63.5C 70.0345,63.3501 67.3678,63.0168 64.5,62.5C 64.3251,56.3034 65.3251,55.6367 67.5,60.5C 68.1667,59.8333 68.8333,59.1667 69.5,58.5C 70.7841,59.585 72.2841,60.2517 74,60.5C 78.7805,59.5863 80.9471,56.9196 80.5,52.5C 82.0069,54.6904 84.0069,56.0238 86.5,56.5C 86.2009,54.027 85.2009,51.8603 83.5,50C 83.6667,49.5 83.8333,49 84,48.5C 84.6891,49.3567 85.5224,50.0233 86.5,50.5C 88.3788,48.9303 88.7122,47.2637 87.5,45.5 Z"/></g><g><path style="opacity:.645" fill="#fcaf25" d="M 90.5,44.5 C 92.7844,45.0292 94.7844,46.0292 96.5,47.5C 96.5299,48.4972 96.0299,49.1639 95,49.5C 93.6998,48.2927 92.1998,47.6261 90.5,47.5C 90.5,46.5 90.5,45.5 90.5,44.5 Z"/></g><g><path style="opacity:.137" fill="#fcc55b" d="M 105.5,55.5 C 106.878,56.5451 107.878,57.8784 108.5,59.5C 107.5,59.5 106.5,59.5 105.5,59.5C 105.5,58.1667 105.5,56.8333 105.5,55.5 Z"/></g><g><path style="opacity:1" fill="#f6a11a" d="M 110.5,63.5 C 111.643,63.9081 112.643,64.5748 113.5,65.5C 152.175,65.8364 190.509,66.8364 228.5,68.5C 190.337,69.4985 152.004,69.8319 113.5,69.5C 111.028,68.3579 110.028,66.3579 110.5,63.5 Z"/></g><g><path style="opacity:1" fill="#f5970c" d="M 228.5,68.5 C 229.167,68.5 229.833,68.5 230.5,68.5C 230.649,69.552 230.483,70.552 230,71.5C 191.239,70.5035 152.406,70.1702 113.5,70.5C 113.5,70.1667 113.5,69.8333 113.5,69.5C 152.004,69.8319 190.337,69.4985 228.5,68.5 Z"/></g><g><path style="opacity:1" fill="#f39910" d="M 113.5,70.5 C 113.5,71.1667 113.5,71.8333 113.5,72.5C 113.5,72.8333 113.5,73.1667 113.5,73.5C 112.508,73.3284 111.842,73.6618 111.5,74.5C 109.205,75.1355 107.539,76.4689 106.5,78.5C 104.938,78.7329 103.605,79.3995 102.5,80.5C 102.586,79.5041 102.252,78.6708 101.5,78C 77.8285,78.0982 54.1619,78.7648 30.5,80C 29.2625,80.2321 28.2625,80.7321 27.5,81.5C 26.234,82.0899 24.9007,82.5899 23.5,83C 46.831,83.5 70.1643,83.6666 93.5,83.5C 69.3368,84.3321 45.0034,84.8321 20.5,85C 19.944,85.3826 19.6107,85.8826 19.5,86.5C 18.1667,87.1667 17.1667,88.1667 16.5,89.5C 15.8333,89.5 15.1667,89.5 14.5,89.5C 14.5,87.1667 14.5,84.8333 14.5,82.5C 17.3428,81.8283 19.8428,80.495 22,78.5C 22.3333,78.8333 22.6667,79.1667 23,79.5C 25.5961,77.9799 28.4294,77.1466 31.5,77C 42.8599,76.136 54.1933,75.3026 65.5,74.5C 66.1667,74.8333 66.8333,75.1667 67.5,75.5C 72.4668,73.9297 77.4668,73.5963 82.5,74.5C 87.1422,73.7741 91.8088,73.1075 96.5,72.5C 97.4419,72.6082 98.2753,72.9415 99,73.5C 100.704,71.8388 102.871,71.5054 105.5,72.5C 108.336,72.2937 111.002,71.627 113.5,70.5 Z"/></g><g><path style="opacity:1" fill="#f69f17" d="M 230.5,68.5 C 231.167,68.5 231.833,68.5 232.5,68.5C 232.369,71.3667 233.703,73.0334 236.5,73.5C 237.301,75.0418 237.634,76.7085 237.5,78.5C 236.391,78.4431 235.391,78.1098 234.5,77.5C 233.089,75.086 231.089,73.4194 228.5,72.5C 190.264,71.1708 151.931,71.1708 113.5,72.5C 113.5,71.8333 113.5,71.1667 113.5,70.5C 152.406,70.1702 191.239,70.5035 230,71.5C 230.483,70.552 230.649,69.552 230.5,68.5 Z"/></g><g><path style="opacity:.276" fill="#f7be5a" d="M 232.5,68.5 C 234.929,69.2648 236.262,70.9315 236.5,73.5C 233.703,73.0334 232.369,71.3667 232.5,68.5 Z"/></g><g><path style="opacity:1" fill="#fab435" d="M 228.5,72.5 C 213.5,72.5 198.5,72.5 183.5,72.5C 160.661,72.1692 137.994,72.5025 115.5,73.5C 114.833,73.5 114.167,73.5 113.5,73.5C 113.5,73.1667 113.5,72.8333 113.5,72.5C 151.931,71.1708 190.264,71.1708 228.5,72.5 Z"/></g><g><path style="opacity:1" fill="#fcc556" d="M 111.5,74.5 C 110.833,75.8333 109.833,76.8333 108.5,77.5C 107.833,77.8333 107.167,78.1667 106.5,78.5C 107.539,76.4689 109.205,75.1355 111.5,74.5 Z"/></g><g><path style="opacity:1" fill="#fedb81" d="M 113.5,73.5 C 114.167,73.5 114.833,73.5 115.5,73.5C 124.5,73.5 133.5,73.5 142.5,73.5C 142.918,74.2216 143.584,74.7216 144.5,75C 135.167,75.3333 125.833,75.6667 116.5,76C 114.064,76.9299 111.731,78.0966 109.5,79.5C 108.702,79.0431 108.369,78.3764 108.5,77.5C 109.833,76.8333 110.833,75.8333 111.5,74.5C 111.842,73.6618 112.508,73.3284 113.5,73.5 Z"/></g><g><path style="opacity:1" fill="#fed266" d="M 115.5,73.5 C 137.994,72.5025 160.661,72.1692 183.5,72.5C 185.265,73.4614 187.265,73.7947 189.5,73.5C 191.631,74.3138 193.964,74.8138 196.5,75C 184.215,76.5204 171.882,77.5204 159.5,78C 153.326,82.922 146.66,87.0887 139.5,90.5C 138.354,91.7187 137.354,93.0521 136.5,94.5C 135.833,94.1667 135.167,93.8333 134.5,93.5C 132.833,95.1667 131.167,96.8333 129.5,98.5C 125.258,100.406 121.258,102.739 117.5,105.5C 116.833,105.167 116.167,104.833 115.5,104.5C 114.476,105.853 113.143,106.52 111.5,106.5C 111.5,107.833 111.5,109.167 111.5,110.5C 109.396,110.201 107.396,110.534 105.5,111.5C 103.955,113.44 101.955,114.606 99.5,115C 98.9288,116.205 98.2621,117.372 97.5,118.5C 95.5331,117.318 94.1997,117.985 93.5,120.5C 86.825,121.615 81.4917,124.949 77.5,130.5C 69.1984,133.313 61.865,137.646 55.5,143.5C 52.9881,144.795 50.3214,145.461 47.5,145.5C 47.8808,147.942 47.2141,148.609 45.5,147.5C 42.4756,149.013 39.8089,151.013 37.5,153.5C 35.677,154.747 33.677,155.414 31.5,155.5C 31.5,156.833 31.5,158.167 31.5,159.5C 29.5082,159.328 27.8415,159.995 26.5,161.5C 25.8333,161.167 25.1667,160.833 24.5,160.5C 21.4285,163.032 18.0952,165.032 14.5,166.5C 14.5,160.167 14.5,153.833 14.5,147.5C 18.3557,149.15 20.5224,147.816 21,143.5C 21.414,143.957 21.914,144.291 22.5,144.5C 25.8726,141.822 29.2059,139.156 32.5,136.5C 33.1667,137.167 33.8333,137.833 34.5,138.5C 37.2302,135.618 40.2302,132.951 43.5,130.5C 45.5902,131.791 46.9236,131.124 47.5,128.5C 52.8321,126.503 57.4987,123.503 61.5,119.5C 62.1667,119.833 62.8333,120.167 63.5,120.5C 64.5446,118.599 65.8779,116.933 67.5,115.5C 68.1667,115.833 68.8333,116.167 69.5,116.5C 81.2478,109.12 92.9145,101.454 104.5,93.5C 105.167,93.8333 105.833,94.1667 106.5,94.5C 107.545,92.5995 108.878,90.9328 110.5,89.5C 111.086,89.7093 111.586,90.0426 112,90.5C 116.602,86.2419 121.769,82.7419 127.5,80C 127.167,79.6667 126.833,79.3333 126.5,79C 128.382,78.8019 130.048,78.3019 131.5,77.5C 148.809,76.8018 166.142,75.9685 183.5,75C 169.859,73.8104 156.192,73.3104 142.5,73.5C 133.5,73.5 124.5,73.5 115.5,73.5 Z"/></g><g><path style="opacity:1" fill="#fed060" d="M 189.5,73.5 C 198.513,73.7151 207.513,74.2151 216.5,75C 213.518,75.498 210.518,75.6646 207.5,75.5C 202.482,76.1015 197.482,76.7682 192.5,77.5C 187.448,77.4502 182.448,77.9502 177.5,79C 178.167,79.3333 178.833,79.6667 179.5,80C 172.727,83.3749 166.727,87.7082 161.5,93C 159.89,94.4947 158.224,94.6613 156.5,93.5C 155.585,94.3279 154.919,95.3279 154.5,96.5C 149.003,98.7454 144.003,101.745 139.5,105.5C 138.914,105.291 138.414,104.957 138,104.5C 137.653,108.116 136.486,108.783 134.5,106.5C 131.753,109.538 128.419,111.538 124.5,112.5C 124.163,115.833 122.496,116.833 119.5,115.5C 118.02,119.716 115.353,121.049 111.5,119.5C 111.5,120.833 111.5,122.167 111.5,123.5C 110.022,123.238 108.689,123.571 107.5,124.5C 104.181,126.828 100.848,129.162 97.5,131.5C 96.8333,131.167 96.1667,130.833 95.5,130.5C 92.2302,132.951 89.2302,135.618 86.5,138.5C 85.377,136.711 84.0436,136.378 82.5,137.5C 82.8333,138.167 83.1667,138.833 83.5,139.5C 81.1558,140.337 79.1558,141.671 77.5,143.5C 75.9936,144.747 74.4936,144.747 73,143.5C 67.9358,147.285 62.7692,150.951 57.5,154.5C 56.3112,155.429 54.9778,155.762 53.5,155.5C 53.5,156.833 53.5,158.167 53.5,159.5C 51.0637,159.317 48.897,159.984 47,161.5C 46.586,161.043 46.086,160.709 45.5,160.5C 42.7919,163.522 39.4586,165.522 35.5,166.5C 32.7698,169.382 29.7698,172.049 26.5,174.5C 24.8651,175.33 23.1984,175.497 21.5,175C 21.9574,175.414 22.2907,175.914 22.5,176.5C 19.5322,177.824 16.8655,179.491 14.5,181.5C 14.5,176.5 14.5,171.5 14.5,166.5C 18.0952,165.032 21.4285,163.032 24.5,160.5C 25.1667,160.833 25.8333,161.167 26.5,161.5C 27.8415,159.995 29.5082,159.328 31.5,159.5C 31.5,158.167 31.5,156.833 31.5,155.5C 33.677,155.414 35.677,154.747 37.5,153.5C 39.8089,151.013 42.4756,149.013 45.5,147.5C 47.2141,148.609 47.8808,147.942 47.5,145.5C 50.3214,145.461 52.9881,144.795 55.5,143.5C 61.865,137.646 69.1984,133.313 77.5,130.5C 81.4917,124.949 86.825,121.615 93.5,120.5C 94.1997,117.985 95.5331,117.318 97.5,118.5C 98.2621,117.372 98.9288,116.205 99.5,115C 101.955,114.606 103.955,113.44 105.5,111.5C 107.396,110.534 109.396,110.201 111.5,110.5C 111.5,109.167 111.5,107.833 111.5,106.5C 113.143,106.52 114.476,105.853 115.5,104.5C 116.167,104.833 116.833,105.167 117.5,105.5C 121.258,102.739 125.258,100.406 129.5,98.5C 131.167,96.8333 132.833,95.1667 134.5,93.5C 135.167,93.8333 135.833,94.1667 136.5,94.5C 137.354,93.0521 138.354,91.7187 139.5,90.5C 146.66,87.0887 153.326,82.922 159.5,78C 171.882,77.5204 184.215,76.5204 196.5,75C 193.964,74.8138 191.631,74.3138 189.5,73.5 Z"/></g><g><path style="opacity:1" fill="#fecc54" d="M 183.5,72.5 C 198.5,72.5 213.5,72.5 228.5,72.5C 231.089,73.4194 233.089,75.086 234.5,77.5C 234.225,79.7583 233.225,80.0916 231.5,78.5C 226.581,82.4555 221.581,86.4555 216.5,90.5C 215.833,90.1667 215.167,89.8333 214.5,89.5C 208.849,93.9172 202.849,97.5839 196.5,100.5C 194.815,102.017 193.315,103.684 192,105.5C 191.586,105.043 191.086,104.709 190.5,104.5C 189.8,107.015 188.467,107.682 186.5,106.5C 185.395,108.969 183.562,110.636 181,111.5C 180.667,111.167 180.333,110.833 180,110.5C 176.169,114.076 172.169,117.409 168,120.5C 166.612,119.446 165.112,119.28 163.5,120C 158.534,123.958 153.534,127.958 148.5,132C 143.713,131.957 140.38,134.123 138.5,138.5C 136.672,136.193 135.006,136.526 133.5,139.5C 132.311,140.429 130.978,140.762 129.5,140.5C 129.5,141.833 129.5,143.167 129.5,144.5C 126.136,143.789 123.803,144.956 122.5,148C 121.451,148.492 120.451,148.326 119.5,147.5C 113.575,151.085 107.908,155.085 102.5,159.5C 99.8026,157.955 97.8026,158.621 96.5,161.5C 94.01,163.083 91.3433,164.083 88.5,164.5C 88.5,165.833 88.5,167.167 88.5,168.5C 84.273,168.949 80.9397,170.949 78.5,174.5C 76.9291,173.691 75.2624,173.357 73.5,173.5C 73.5,174.833 73.5,176.167 73.5,177.5C 70.4359,177.928 67.4359,178.594 64.5,179.5C 64.5,180.833 64.5,182.167 64.5,183.5C 60.1892,182.822 57.1892,184.488 55.5,188.5C 49.5075,189.496 44.8408,192.496 41.5,197.5C 39.2262,197.97 37.2262,198.97 35.5,200.5C 33.422,197.105 32.0887,197.772 31.5,202.5C 28.8316,202.666 26.4983,203.666 24.5,205.5C 23.4206,207.543 21.754,208.876 19.5,209.5C 18.6143,210.325 18.281,211.325 18.5,212.5C 17.1667,211.833 15.8333,211.167 14.5,210.5C 14.5,205.5 14.5,200.5 14.5,195.5C 17.9191,194.109 20.9191,192.109 23.5,189.5C 28.3734,187.039 33.3734,185.039 38.5,183.5C 38.238,182.022 38.5713,180.689 39.5,179.5C 42.5257,177.305 45.859,175.805 49.5,175C 50.6184,173.926 51.6184,172.76 52.5,171.5C 53.1667,171.833 53.8333,172.167 54.5,172.5C 56.0009,171.248 57.6675,170.248 59.5,169.5C 60.1152,167.884 61.1152,166.551 62.5,165.5C 66.5935,163.302 70.9269,161.802 75.5,161C 79.4124,157.035 83.7458,153.535 88.5,150.5C 90.813,149.727 93.1463,149.06 95.5,148.5C 96.5177,146.388 98.0177,144.721 100,143.5C 100.873,143.735 101.707,144.069 102.5,144.5C 106.788,140.355 111.455,136.689 116.5,133.5C 118.396,132.534 120.396,132.201 122.5,132.5C 122.281,131.325 122.614,130.325 123.5,129.5C 125.838,131.011 126.504,130.677 125.5,128.5C 129.327,126.163 132.993,123.663 136.5,121C 138.207,120.805 139.874,120.805 141.5,121C 148.536,114.696 156.203,109.196 164.5,104.5C 165.086,104.709 165.586,105.043 166,105.5C 169.864,102.145 174.031,99.1446 178.5,96.5C 182.121,96.2594 184.788,94.5927 186.5,91.5C 189.427,90.7032 192.094,89.3699 194.5,87.5C 198.117,83.213 202.451,80.213 207.5,78.5C 207.5,77.5 207.5,76.5 207.5,75.5C 210.518,75.6646 213.518,75.498 216.5,75C 207.513,74.2151 198.513,73.7151 189.5,73.5C 187.265,73.7947 185.265,73.4614 183.5,72.5 Z"/></g><g><path style="opacity:1" fill="#ffcd59" d="M 207.5,75.5 C 207.5,76.5 207.5,77.5 207.5,78.5C 202.451,80.213 198.117,83.213 194.5,87.5C 192.094,89.3699 189.427,90.7032 186.5,91.5C 184.788,94.5927 182.121,96.2594 178.5,96.5C 174.031,99.1446 169.864,102.145 166,105.5C 165.586,105.043 165.086,104.709 164.5,104.5C 156.203,109.196 148.536,114.696 141.5,121C 139.874,120.805 138.207,120.805 136.5,121C 132.993,123.663 129.327,126.163 125.5,128.5C 126.504,130.677 125.838,131.011 123.5,129.5C 122.614,130.325 122.281,131.325 122.5,132.5C 120.396,132.201 118.396,132.534 116.5,133.5C 111.455,136.689 106.788,140.355 102.5,144.5C 101.707,144.069 100.873,143.735 100,143.5C 98.0177,144.721 96.5177,146.388 95.5,148.5C 93.1463,149.06 90.813,149.727 88.5,150.5C 83.7458,153.535 79.4124,157.035 75.5,161C 70.9269,161.802 66.5935,163.302 62.5,165.5C 61.1152,166.551 60.1152,167.884 59.5,169.5C 57.6675,170.248 56.0009,171.248 54.5,172.5C 53.8333,172.167 53.1667,171.833 52.5,171.5C 51.6184,172.76 50.6184,173.926 49.5,175C 45.859,175.805 42.5257,177.305 39.5,179.5C 38.5713,180.689 38.238,182.022 38.5,183.5C 33.3734,185.039 28.3734,187.039 23.5,189.5C 20.9191,192.109 17.9191,194.109 14.5,195.5C 14.5,192.5 14.5,189.5 14.5,186.5C 15.8333,186.5 17.1667,186.5 18.5,186.5C 18.4802,184.857 19.1468,183.524 20.5,182.5C 23.2302,180.589 26.2302,179.255 29.5,178.5C 30.7515,176.999 31.7515,175.332 32.5,173.5C 33.1667,174.167 33.8333,174.833 34.5,175.5C 35.0959,174.284 35.2626,172.951 35,171.5C 37.1212,171.079 39.6212,171.079 42.5,171.5C 43.8333,170.167 45.1667,168.833 46.5,167.5C 45.4616,164.212 46.1282,163.879 48.5,166.5C 49.4287,165.311 49.762,163.978 49.5,162.5C 52.7895,161.251 56.1228,159.917 59.5,158.5C 61.7427,157.526 64.076,157.192 66.5,157.5C 66.2864,153.743 67.2864,153.076 69.5,155.5C 71.5772,154.012 72.5772,152.012 72.5,149.5C 77.0802,148.208 81.0802,145.875 84.5,142.5C 86.2972,145.096 87.6305,144.763 88.5,141.5C 89.6888,140.571 91.0222,140.238 92.5,140.5C 92.281,139.325 92.6143,138.325 93.5,137.5C 104.13,131.698 114.63,125.698 125,119.5C 125.308,120.308 125.808,120.975 126.5,121.5C 126.723,120.033 127.056,118.533 127.5,117C 131.614,115.443 135.614,113.61 139.5,111.5C 143.169,108.178 147.169,105.178 151.5,102.5C 152.086,102.709 152.586,103.043 153,103.5C 155.317,100.683 157.817,98.0159 160.5,95.5C 161.167,96.1667 161.833,96.8333 162.5,97.5C 164.213,96.1218 165.547,94.4552 166.5,92.5C 171.078,90.8942 175.411,88.8942 179.5,86.5C 179.5,85.1667 179.5,83.8333 179.5,82.5C 181.492,82.3285 183.158,82.9951 184.5,84.5C 185.337,82.1558 186.671,80.1558 188.5,78.5C 189.524,79.8532 190.857,80.5198 192.5,80.5C 192.5,79.5 192.5,78.5 192.5,77.5C 197.482,76.7682 202.482,76.1015 207.5,75.5 Z"/></g><g><path style="opacity:1" fill="#ffd56d" d="M 131.5,77.5 C 130.048,78.3019 128.382,78.8019 126.5,79C 126.833,79.3333 127.167,79.6667 127.5,80C 121.769,82.7419 116.602,86.2419 112,90.5C 111.586,90.0426 111.086,89.7093 110.5,89.5C 108.878,90.9328 107.545,92.5995 106.5,94.5C 105.833,94.1667 105.167,93.8333 104.5,93.5C 92.9145,101.454 81.2478,109.12 69.5,116.5C 68.8333,116.167 68.1667,115.833 67.5,115.5C 65.8779,116.933 64.5446,118.599 63.5,120.5C 62.8333,120.167 62.1667,119.833 61.5,119.5C 57.4987,123.503 52.8321,126.503 47.5,128.5C 46.9236,131.124 45.5902,131.791 43.5,130.5C 40.2302,132.951 37.2302,135.618 34.5,138.5C 33.8333,137.833 33.1667,137.167 32.5,136.5C 29.2059,139.156 25.8726,141.822 22.5,144.5C 21.914,144.291 21.414,143.957 21,143.5C 20.5224,147.816 18.3557,149.15 14.5,147.5C 14.5,143.167 14.5,138.833 14.5,134.5C 24.6156,128.711 34.9489,123.378 45.5,118.5C 45.3505,117.448 45.5172,116.448 46,115.5C 46.3333,115.833 46.6667,116.167 47,116.5C 51.9172,113.625 56.7505,110.625 61.5,107.5C 63.8948,108.523 64.8948,107.523 64.5,104.5C 67.9,104.968 70.2333,103.635 71.5,100.5C 73.5,99.8333 75.5,99.1667 77.5,98.5C 80.6492,96.5144 83.4825,94.181 86,91.5C 86.8928,92.7112 87.7261,92.7112 88.5,91.5C 85.5535,90.6786 82.5535,90.1786 79.5,90C 85.1667,89.6667 90.8333,89.3333 96.5,89C 102.832,85.8879 108.832,82.2212 114.5,78C 120.157,77.5006 125.824,77.3339 131.5,77.5 Z"/></g><g><path style="opacity:1" fill="#ffcf5c" d="M 192.5,77.5 C 192.5,78.5 192.5,79.5 192.5,80.5C 190.857,80.5198 189.524,79.8532 188.5,78.5C 186.671,80.1558 185.337,82.1558 184.5,84.5C 183.158,82.9951 181.492,82.3285 179.5,82.5C 179.5,83.8333 179.5,85.1667 179.5,86.5C 175.411,88.8942 171.078,90.8942 166.5,92.5C 165.547,94.4552 164.213,96.1218 162.5,97.5C 161.833,96.8333 161.167,96.1667 160.5,95.5C 157.817,98.0159 155.317,100.683 153,103.5C 152.586,103.043 152.086,102.709 151.5,102.5C 147.169,105.178 143.169,108.178 139.5,111.5C 135.614,113.61 131.614,115.443 127.5,117C 127.056,118.533 126.723,120.033 126.5,121.5C 125.808,120.975 125.308,120.308 125,119.5C 114.63,125.698 104.13,131.698 93.5,137.5C 92.6143,138.325 92.281,139.325 92.5,140.5C 91.0222,140.238 89.6888,140.571 88.5,141.5C 87.6305,144.763 86.2972,145.096 84.5,142.5C 81.0802,145.875 77.0802,148.208 72.5,149.5C 72.5772,152.012 71.5772,154.012 69.5,155.5C 67.2864,153.076 66.2864,153.743 66.5,157.5C 64.076,157.192 61.7427,157.526 59.5,158.5C 56.1228,159.917 52.7895,161.251 49.5,162.5C 49.762,163.978 49.4287,165.311 48.5,166.5C 46.1282,163.879 45.4616,164.212 46.5,167.5C 45.1667,168.833 43.8333,170.167 42.5,171.5C 39.6212,171.079 37.1212,171.079 35,171.5C 35.2626,172.951 35.0959,174.284 34.5,175.5C 33.8333,174.833 33.1667,174.167 32.5,173.5C 31.7515,175.332 30.7515,176.999 29.5,178.5C 26.2302,179.255 23.2302,180.589 20.5,182.5C 19.1468,183.524 18.4802,184.857 18.5,186.5C 17.1667,186.5 15.8333,186.5 14.5,186.5C 14.5,184.833 14.5,183.167 14.5,181.5C 16.8655,179.491 19.5322,177.824 22.5,176.5C 22.2907,175.914 21.9574,175.414 21.5,175C 23.1984,175.497 24.8651,175.33 26.5,174.5C 29.7698,172.049 32.7698,169.382 35.5,166.5C 39.4586,165.522 42.7919,163.522 45.5,160.5C 46.086,160.709 46.586,161.043 47,161.5C 48.897,159.984 51.0637,159.317 53.5,159.5C 53.5,158.167 53.5,156.833 53.5,155.5C 54.9778,155.762 56.3112,155.429 57.5,154.5C 62.7692,150.951 67.9358,147.285 73,143.5C 74.4936,144.747 75.9936,144.747 77.5,143.5C 79.1558,141.671 81.1558,140.337 83.5,139.5C 83.1667,138.833 82.8333,138.167 82.5,137.5C 84.0436,136.378 85.377,136.711 86.5,138.5C 89.2302,135.618 92.2302,132.951 95.5,130.5C 96.1667,130.833 96.8333,131.167 97.5,131.5C 100.848,129.162 104.181,126.828 107.5,124.5C 108.689,123.571 110.022,123.238 111.5,123.5C 111.5,122.167 111.5,120.833 111.5,119.5C 115.353,121.049 118.02,119.716 119.5,115.5C 122.496,116.833 124.163,115.833 124.5,112.5C 128.419,111.538 131.753,109.538 134.5,106.5C 136.486,108.783 137.653,108.116 138,104.5C 138.414,104.957 138.914,105.291 139.5,105.5C 144.003,101.745 149.003,98.7454 154.5,96.5C 154.919,95.3279 155.585,94.3279 156.5,93.5C 158.224,94.6613 159.89,94.4947 161.5,93C 166.727,87.7082 172.727,83.3749 179.5,80C 178.833,79.6667 178.167,79.3333 177.5,79C 182.448,77.9502 187.448,77.4502 192.5,77.5 Z"/></g><g><path style="opacity:1" fill="#f0930b" d="M 102.5,80.5 C 100.938,80.7329 99.6049,81.3995 98.5,82.5C 96.8333,82.5 95.1667,82.5 93.5,82.5C 94.9516,81.6981 96.6183,81.1981 98.5,81C 74.8501,81.3774 51.1834,81.544 27.5,81.5C 28.2625,80.7321 29.2625,80.2321 30.5,80C 54.1619,78.7648 77.8285,78.0982 101.5,78C 102.252,78.6708 102.586,79.5041 102.5,80.5 Z"/></g><g><path style="opacity:1" fill="#fec94e" d="M 234.5,77.5 C 235.391,78.1098 236.391,78.4431 237.5,78.5C 237.5,83.1667 237.5,87.8333 237.5,92.5C 235.952,92.8212 235.285,93.8212 235.5,95.5C 234.022,95.238 232.689,95.5713 231.5,96.5C 224.391,102.004 217.058,106.337 209.5,109.5C 206.047,113.246 202.047,116.246 197.5,118.5C 191.668,121.333 185.835,124.333 180,127.5C 179.228,127.355 178.561,127.022 178,126.5C 177.654,128.848 176.487,130.681 174.5,132C 167.403,135.387 160.737,139.553 154.5,144.5C 153.914,144.291 153.414,143.957 153,143.5C 148.999,146.34 145.166,149.34 141.5,152.5C 137.039,154.617 132.539,156.617 128,158.5C 125.678,160.322 123.511,162.322 121.5,164.5C 120.167,163.167 118.833,163.167 117.5,164.5C 113.606,168.45 109.272,171.783 104.5,174.5C 100.534,176.378 96.5338,178.045 92.5,179.5C 92.5,180.833 92.5,182.167 92.5,183.5C 89.3908,183.655 86.3908,184.322 83.5,185.5C 79.1473,188.966 74.814,192.299 70.5,195.5C 66.9255,196.238 63.9255,197.904 61.5,200.5C 60.914,200.291 60.414,199.957 60,199.5C 59.7699,203.213 58.6032,203.88 56.5,201.5C 50.8981,206.273 44.8981,210.44 38.5,214C 45.5,214.333 52.5,214.667 59.5,215C 47.1712,215.5 34.8378,215.667 22.5,215.5C 20.847,215.34 19.5137,214.674 18.5,213.5C 18.5,213.167 18.5,212.833 18.5,212.5C 18.281,211.325 18.6143,210.325 19.5,209.5C 21.754,208.876 23.4206,207.543 24.5,205.5C 26.4983,203.666 28.8316,202.666 31.5,202.5C 32.0887,197.772 33.422,197.105 35.5,200.5C 37.2262,198.97 39.2262,197.97 41.5,197.5C 44.8408,192.496 49.5075,189.496 55.5,188.5C 57.1892,184.488 60.1892,182.822 64.5,183.5C 64.5,182.167 64.5,180.833 64.5,179.5C 67.4359,178.594 70.4359,177.928 73.5,177.5C 73.5,176.167 73.5,174.833 73.5,173.5C 75.2624,173.357 76.9291,173.691 78.5,174.5C 80.9397,170.949 84.273,168.949 88.5,168.5C 88.5,167.167 88.5,165.833 88.5,164.5C 91.3433,164.083 94.01,163.083 96.5,161.5C 97.8026,158.621 99.8026,157.955 102.5,159.5C 107.908,155.085 113.575,151.085 119.5,147.5C 120.451,148.326 121.451,148.492 122.5,148C 123.803,144.956 126.136,143.789 129.5,144.5C 129.5,143.167 129.5,141.833 129.5,140.5C 130.978,140.762 132.311,140.429 133.5,139.5C 135.006,136.526 136.672,136.193 138.5,138.5C 140.38,134.123 143.713,131.957 148.5,132C 153.534,127.958 158.534,123.958 163.5,120C 165.112,119.28 166.612,119.446 168,120.5C 172.169,117.409 176.169,114.076 180,110.5C 180.333,110.833 180.667,111.167 181,111.5C 183.562,110.636 185.395,108.969 186.5,106.5C 188.467,107.682 189.8,107.015 190.5,104.5C 191.086,104.709 191.586,105.043 192,105.5C 193.315,103.684 194.815,102.017 196.5,100.5C 202.849,97.5839 208.849,93.9172 214.5,89.5C 215.167,89.8333 215.833,90.1667 216.5,90.5C 221.581,86.4555 226.581,82.4555 231.5,78.5C 233.225,80.0916 234.225,79.7583 234.5,77.5 Z"/></g><g><path style="opacity:1" fill="#e88607" d="M 93.5,82.5 C 93.5,82.8333 93.5,83.1667 93.5,83.5C 70.1643,83.6666 46.831,83.5 23.5,83C 24.9007,82.5899 26.234,82.0899 27.5,81.5C 51.1834,81.544 74.8501,81.3774 98.5,81C 96.6183,81.1981 94.9516,81.6981 93.5,82.5 Z"/></g><g><path style="opacity:1" fill="#f9cd73" d="M 93.5,82.5 C 95.1667,82.5 96.8333,82.5 98.5,82.5C 98.5,82.8333 98.5,83.1667 98.5,83.5C 96.8967,83.3118 95.5634,83.8118 94.5,85C 85.1726,85.4998 75.8393,85.6665 66.5,85.5C 51.0888,85.1832 35.7554,85.5166 20.5,86.5C 20.1667,86.5 19.8333,86.5 19.5,86.5C 19.6107,85.8826 19.944,85.3826 20.5,85C 45.0034,84.8321 69.3368,84.3321 93.5,83.5C 93.5,83.1667 93.5,82.8333 93.5,82.5 Z"/></g><g><path style="opacity:1" fill="#fee9a9" d="M 66.5,85.5 C 51.508,87.024 36.3413,88.024 21,88.5C 19.3164,88.3166 19.1498,87.6499 20.5,86.5C 35.7554,85.5166 51.0888,85.1832 66.5,85.5 Z"/></g><g><path style="opacity:1" fill="#fee192" d="M 98.5,83.5 C 100.028,83.5173 100.528,84.184 100,85.5C 98.6012,86.2266 97.1012,86.7266 95.5,87C 89.4516,87.2524 83.4516,87.7524 77.5,88.5C 69.5,88.5 61.5,88.5 53.5,88.5C 43.4944,88.3335 33.4944,88.5002 23.5,89C 20.1484,90.3385 17.1484,92.1719 14.5,94.5C 14.5,93.5 14.5,92.5 14.5,91.5C 15.8333,91.5 16.5,90.8333 16.5,89.5C 17.1667,88.1667 18.1667,87.1667 19.5,86.5C 19.8333,86.5 20.1667,86.5 20.5,86.5C 19.1498,87.6499 19.3164,88.3166 21,88.5C 36.3413,88.024 51.508,87.024 66.5,85.5C 75.8393,85.6665 85.1726,85.4998 94.5,85C 95.5634,83.8118 96.8967,83.3118 98.5,83.5 Z"/></g><g><path style="opacity:1" fill="#ffd979" d="M 53.5,88.5 C 61.5,88.5 69.5,88.5 77.5,88.5C 71.0126,89.3283 64.346,89.8283 57.5,90C 60.5,90.3333 63.5,90.6667 66.5,91C 65.2298,91.8996 64.2298,93.0663 63.5,94.5C 62.8333,94.1667 62.1667,93.8333 61.5,93.5C 55.601,96.7306 50.2676,100.731 45.5,105.5C 44.8333,105.167 44.1667,104.833 43.5,104.5C 39.3884,108.906 34.7217,112.573 29.5,115.5C 24.0057,117.434 19.0057,120.101 14.5,123.5C 14.5,117.833 14.5,112.167 14.5,106.5C 15.7348,106.279 16.7348,105.612 17.5,104.5C 18.1667,104.833 18.8333,105.167 19.5,105.5C 24.2817,99.932 30.2817,96.0987 37.5,94C 38.1667,92.6667 39.1667,91.6667 40.5,91C 37.5,90.6667 34.5,90.3333 31.5,90C 39.0115,89.8288 46.3448,89.3288 53.5,88.5 Z"/></g><g><path style="opacity:1" fill="#fed673" d="M 142.5,73.5 C 156.192,73.3104 169.859,73.8104 183.5,75C 166.142,75.9685 148.809,76.8018 131.5,77.5C 125.824,77.3339 120.157,77.5006 114.5,78C 108.832,82.2212 102.832,85.8879 96.5,89C 90.8333,89.3333 85.1667,89.6667 79.5,90C 82.5535,90.1786 85.5535,90.6786 88.5,91.5C 87.7261,92.7112 86.8928,92.7112 86,91.5C 83.4825,94.181 80.6492,96.5144 77.5,98.5C 75.5,99.1667 73.5,99.8333 71.5,100.5C 70.2333,103.635 67.9,104.968 64.5,104.5C 64.8948,107.523 63.8948,108.523 61.5,107.5C 56.7505,110.625 51.9172,113.625 47,116.5C 46.6667,116.167 46.3333,115.833 46,115.5C 45.5172,116.448 45.3505,117.448 45.5,118.5C 34.9489,123.378 24.6156,128.711 14.5,134.5C 14.5,130.833 14.5,127.167 14.5,123.5C 19.0057,120.101 24.0057,117.434 29.5,115.5C 34.7217,112.573 39.3884,108.906 43.5,104.5C 44.1667,104.833 44.8333,105.167 45.5,105.5C 50.2676,100.731 55.601,96.7306 61.5,93.5C 62.1667,93.8333 62.8333,94.1667 63.5,94.5C 64.2298,93.0663 65.2298,91.8996 66.5,91C 63.5,90.6667 60.5,90.3333 57.5,90C 64.346,89.8283 71.0126,89.3283 77.5,88.5C 83.4516,87.7524 89.4516,87.2524 95.5,87C 97.1012,86.7266 98.6012,86.2266 100,85.5C 100.528,84.184 100.028,83.5173 98.5,83.5C 98.5,83.1667 98.5,82.8333 98.5,82.5C 99.6049,81.3995 100.938,80.7329 102.5,80.5C 103.605,79.3995 104.938,78.7329 106.5,78.5C 107.167,78.1667 107.833,77.8333 108.5,77.5C 108.369,78.3764 108.702,79.0431 109.5,79.5C 111.731,78.0966 114.064,76.9299 116.5,76C 125.833,75.6667 135.167,75.3333 144.5,75C 143.584,74.7216 142.918,74.2216 142.5,73.5 Z"/></g><g><path style="opacity:1" fill="#ffdb7f" d="M 53.5,88.5 C 46.3448,89.3288 39.0115,89.8288 31.5,90C 34.5,90.3333 37.5,90.6667 40.5,91C 39.1667,91.6667 38.1667,92.6667 37.5,94C 30.2817,96.0987 24.2817,99.932 19.5,105.5C 18.8333,105.167 18.1667,104.833 17.5,104.5C 16.7348,105.612 15.7348,106.279 14.5,106.5C 14.5,102.5 14.5,98.5 14.5,94.5C 17.1484,92.1719 20.1484,90.3385 23.5,89C 33.4944,88.5002 43.4944,88.3335 53.5,88.5 Z"/></g><g><path style="opacity:1" fill="#f9c664" d="M 14.5,89.5 C 15.1667,89.5 15.8333,89.5 16.5,89.5C 16.5,90.8333 15.8333,91.5 14.5,91.5C 14.5,90.8333 14.5,90.1667 14.5,89.5 Z"/></g><g><path style="opacity:1" fill="#fec647" d="M 237.5,92.5 C 237.5,97.1667 237.5,101.833 237.5,106.5C 232.987,109.119 228.653,112.119 224.5,115.5C 219.871,117.767 215.205,120.1 210.5,122.5C 209.614,123.325 209.281,124.325 209.5,125.5C 205.464,126.193 202.131,128.193 199.5,131.5C 198.833,131.167 198.167,130.833 197.5,130.5C 186.595,138.436 175.261,145.77 163.5,152.5C 161.01,154.083 158.343,155.083 155.5,155.5C 155.714,159.257 154.714,159.924 152.5,157.5C 151.5,158.833 150.5,160.167 149.5,161.5C 147.5,161.833 145.5,162.167 143.5,162.5C 136.621,168.362 128.954,173.029 120.5,176.5C 116.854,178.482 113.854,181.149 111.5,184.5C 109.604,185.466 107.604,185.799 105.5,185.5C 105.404,190.11 104.404,190.444 102.5,186.5C 100.658,191.012 97.3249,193.012 92.5,192.5C 92.005,195.997 90.1717,196.997 87,195.5C 86.3162,196.784 86.4829,197.951 87.5,199C 78.3634,202.696 70.0301,207.696 62.5,214C 69.8258,214.5 77.1591,214.666 84.5,214.5C 90.1764,214.334 95.8431,214.501 101.5,215C 90.3257,215.17 79.3257,215.67 68.5,216.5C 53.1667,216.5 37.8333,216.5 22.5,216.5C 22.5,216.167 22.5,215.833 22.5,215.5C 34.8378,215.667 47.1712,215.5 59.5,215C 52.5,214.667 45.5,214.333 38.5,214C 44.8981,210.44 50.8981,206.273 56.5,201.5C 58.6032,203.88 59.7699,203.213 60,199.5C 60.414,199.957 60.914,200.291 61.5,200.5C 63.9255,197.904 66.9255,196.238 70.5,195.5C 74.814,192.299 79.1473,188.966 83.5,185.5C 86.3908,184.322 89.3908,183.655 92.5,183.5C 92.5,182.167 92.5,180.833 92.5,179.5C 96.5338,178.045 100.534,176.378 104.5,174.5C 109.272,171.783 113.606,168.45 117.5,164.5C 118.833,163.167 120.167,163.167 121.5,164.5C 123.511,162.322 125.678,160.322 128,158.5C 132.539,156.617 137.039,154.617 141.5,152.5C 145.166,149.34 148.999,146.34 153,143.5C 153.414,143.957 153.914,144.291 154.5,144.5C 160.737,139.553 167.403,135.387 174.5,132C 176.487,130.681 177.654,128.848 178,126.5C 178.561,127.022 179.228,127.355 180,127.5C 185.835,124.333 191.668,121.333 197.5,118.5C 202.047,116.246 206.047,113.246 209.5,109.5C 217.058,106.337 224.391,102.004 231.5,96.5C 232.689,95.5713 234.022,95.238 235.5,95.5C 235.285,93.8212 235.952,92.8212 237.5,92.5 Z"/></g><g><path style="opacity:1" fill="#ffc441" d="M 237.5,106.5 C 237.5,112.167 237.5,117.833 237.5,123.5C 234.204,123.696 231.871,125.362 230.5,128.5C 220.306,131.968 211.306,137.301 203.5,144.5C 201.38,143.128 200.38,143.795 200.5,146.5C 198.738,146.357 197.071,146.691 195.5,147.5C 191.053,152.709 185.72,155.709 179.5,156.5C 177.311,159.176 174.811,161.509 172,163.5C 171.667,163.167 171.333,162.833 171,162.5C 170.692,163.308 170.192,163.975 169.5,164.5C 168.549,163.674 167.549,163.508 166.5,164C 164.117,168.388 160.451,170.721 155.5,171C 151.009,174.081 146.342,176.914 141.5,179.5C 138.77,182.382 135.77,185.049 132.5,187.5C 130.397,185.12 129.23,185.787 129,189.5C 128.586,189.043 128.086,188.709 127.5,188.5C 125.158,191.286 122.158,192.953 118.5,193.5C 115.9,195.283 113.566,197.283 111.5,199.5C 103.976,202.907 96.9756,207.24 90.5,212.5C 88.9936,213.747 87.4936,213.747 86,212.5C 85.2828,213.044 84.7828,213.711 84.5,214.5C 77.1591,214.666 69.8258,214.5 62.5,214C 70.0301,207.696 78.3634,202.696 87.5,199C 86.4829,197.951 86.3162,196.784 87,195.5C 90.1717,196.997 92.005,195.997 92.5,192.5C 97.3249,193.012 100.658,191.012 102.5,186.5C 104.404,190.444 105.404,190.11 105.5,185.5C 107.604,185.799 109.604,185.466 111.5,184.5C 113.854,181.149 116.854,178.482 120.5,176.5C 128.954,173.029 136.621,168.362 143.5,162.5C 145.5,162.167 147.5,161.833 149.5,161.5C 150.5,160.167 151.5,158.833 152.5,157.5C 154.714,159.924 155.714,159.257 155.5,155.5C 158.343,155.083 161.01,154.083 163.5,152.5C 175.261,145.77 186.595,138.436 197.5,130.5C 198.167,130.833 198.833,131.167 199.5,131.5C 202.131,128.193 205.464,126.193 209.5,125.5C 209.281,124.325 209.614,123.325 210.5,122.5C 215.205,120.1 219.871,117.767 224.5,115.5C 228.653,112.119 232.987,109.119 237.5,106.5 Z"/></g><g><path style="opacity:1" fill="#fec23b" d="M 237.5,123.5 C 237.5,127.833 237.5,132.167 237.5,136.5C 231.947,138.279 226.947,141.112 222.5,145C 219.632,146.383 216.632,147.216 213.5,147.5C 213.5,148.833 213.5,150.167 213.5,151.5C 207.741,153.471 202.074,155.804 196.5,158.5C 199.121,160.872 198.788,161.538 195.5,160.5C 193.833,161.833 192.167,163.167 190.5,164.5C 189.833,163.833 189.167,163.167 188.5,162.5C 185.452,166.684 181.452,169.351 176.5,170.5C 176.712,175.443 175.712,176.11 173.5,172.5C 170.872,174.126 168.539,176.126 166.5,178.5C 162.381,179.725 158.714,181.725 155.5,184.5C 153.955,185.452 152.288,185.785 150.5,185.5C 150.5,186.5 150.5,187.5 150.5,188.5C 143.219,191.408 136.219,194.908 129.5,199C 131.405,199.826 131.739,200.993 130.5,202.5C 129.116,199.867 127.782,199.867 126.5,202.5C 123.914,203.48 121.247,203.813 118.5,203.5C 118.357,207.973 116.023,209.973 111.5,209.5C 111.5,210.833 111.5,212.167 111.5,213.5C 109.473,213.338 107.473,213.505 105.5,214C 111.348,214.173 117.015,214.673 122.5,215.5C 122.5,215.833 122.5,216.167 122.5,216.5C 104.5,216.5 86.5,216.5 68.5,216.5C 79.3257,215.67 90.3257,215.17 101.5,215C 95.8431,214.501 90.1764,214.334 84.5,214.5C 84.7828,213.711 85.2828,213.044 86,212.5C 87.4936,213.747 88.9936,213.747 90.5,212.5C 96.9756,207.24 103.976,202.907 111.5,199.5C 113.566,197.283 115.9,195.283 118.5,193.5C 122.158,192.953 125.158,191.286 127.5,188.5C 128.086,188.709 128.586,189.043 129,189.5C 129.23,185.787 130.397,185.12 132.5,187.5C 135.77,185.049 138.77,182.382 141.5,179.5C 146.342,176.914 151.009,174.081 155.5,171C 160.451,170.721 164.117,168.388 166.5,164C 167.549,163.508 168.549,163.674 169.5,164.5C 170.192,163.975 170.692,163.308 171,162.5C 171.333,162.833 171.667,163.167 172,163.5C 174.811,161.509 177.311,159.176 179.5,156.5C 185.72,155.709 191.053,152.709 195.5,147.5C 197.071,146.691 198.738,146.357 200.5,146.5C 200.38,143.795 201.38,143.128 203.5,144.5C 211.306,137.301 220.306,131.968 230.5,128.5C 231.871,125.362 234.204,123.696 237.5,123.5 Z"/></g><g><path style="opacity:1" fill="#ffbf35" d="M 237.5,136.5 C 237.5,142.167 237.5,147.833 237.5,153.5C 235.583,154.406 233.917,155.739 232.5,157.5C 231.914,157.291 231.414,156.957 231,156.5C 230.685,159.147 229.518,159.813 227.5,158.5C 226.614,159.325 226.281,160.325 226.5,161.5C 222.855,160.68 220.522,162.013 219.5,165.5C 214.005,167.508 209.171,170.508 205,174.5C 203.119,173.646 201.286,173.979 199.5,175.5C 197.104,178.235 194.437,180.568 191.5,182.5C 189.865,183.681 188.198,183.681 186.5,182.5C 185.833,183.833 185.167,185.167 184.5,186.5C 181.365,187.432 178.699,189.099 176.5,191.5C 174.604,192.466 172.604,192.799 170.5,192.5C 170.5,193.833 170.5,195.167 170.5,196.5C 168.179,196.229 166.179,196.896 164.5,198.5C 162.482,197.187 161.315,197.853 161,200.5C 160.667,200.167 160.333,199.833 160,199.5C 158.833,201 157.667,202.5 156.5,204C 155.216,204.684 154.049,204.517 153,203.5C 151.017,205.984 148.85,208.317 146.5,210.5C 144.647,211.76 142.814,211.76 141,210.5C 140.691,211.766 140.191,212.933 139.5,214C 144.833,214.333 150.167,214.667 155.5,215C 144.505,215.5 133.505,215.667 122.5,215.5C 117.015,214.673 111.348,214.173 105.5,214C 107.473,213.505 109.473,213.338 111.5,213.5C 111.5,212.167 111.5,210.833 111.5,209.5C 116.023,209.973 118.357,207.973 118.5,203.5C 121.247,203.813 123.914,203.48 126.5,202.5C 127.782,199.867 129.116,199.867 130.5,202.5C 131.739,200.993 131.405,199.826 129.5,199C 136.219,194.908 143.219,191.408 150.5,188.5C 150.5,187.5 150.5,186.5 150.5,185.5C 152.288,185.785 153.955,185.452 155.5,184.5C 158.714,181.725 162.381,179.725 166.5,178.5C 168.539,176.126 170.872,174.126 173.5,172.5C 175.712,176.11 176.712,175.443 176.5,170.5C 181.452,169.351 185.452,166.684 188.5,162.5C 189.167,163.167 189.833,163.833 190.5,164.5C 192.167,163.167 193.833,161.833 195.5,160.5C 198.788,161.538 199.121,160.872 196.5,158.5C 202.074,155.804 207.741,153.471 213.5,151.5C 213.5,150.167 213.5,148.833 213.5,147.5C 216.632,147.216 219.632,146.383 222.5,145C 226.947,141.112 231.947,138.279 237.5,136.5 Z"/></g><g><path style="opacity:1" fill="#febc2e" d="M 237.5,153.5 C 237.5,157.833 237.5,162.167 237.5,166.5C 234.082,166.577 231.749,168.243 230.5,171.5C 229.311,172.429 227.978,172.762 226.5,172.5C 225.494,176.53 222.827,178.197 218.5,177.5C 218.5,178.833 218.5,180.167 218.5,181.5C 217.5,181.5 216.5,181.5 215.5,181.5C 215.762,182.978 215.429,184.311 214.5,185.5C 213.158,183.995 211.492,183.328 209.5,183.5C 209.5,184.5 209.5,185.5 209.5,186.5C 207.712,186.215 206.045,186.548 204.5,187.5C 199.143,191.531 193.81,195.531 188.5,199.5C 186.232,198.456 183.899,198.289 181.5,199C 183.405,199.826 183.739,200.993 182.5,202.5C 179.916,201.607 177.249,201.274 174.5,201.5C 174.5,203.5 174.5,205.5 174.5,207.5C 171.446,207.704 168.946,209.038 167,211.5C 166.05,210.978 165.216,210.311 164.5,209.5C 163.646,210.948 162.646,212.281 161.5,213.5C 170.81,214.498 180.143,214.832 189.5,214.5C 195.509,214.334 201.509,214.501 207.5,215C 199.989,215.171 192.655,215.671 185.5,216.5C 164.5,216.5 143.5,216.5 122.5,216.5C 122.5,216.167 122.5,215.833 122.5,215.5C 133.505,215.667 144.505,215.5 155.5,215C 150.167,214.667 144.833,214.333 139.5,214C 140.191,212.933 140.691,211.766 141,210.5C 142.814,211.76 144.647,211.76 146.5,210.5C 148.85,208.317 151.017,205.984 153,203.5C 154.049,204.517 155.216,204.684 156.5,204C 157.667,202.5 158.833,201 160,199.5C 160.333,199.833 160.667,200.167 161,200.5C 161.315,197.853 162.482,197.187 164.5,198.5C 166.179,196.896 168.179,196.229 170.5,196.5C 170.5,195.167 170.5,193.833 170.5,192.5C 172.604,192.799 174.604,192.466 176.5,191.5C 178.699,189.099 181.365,187.432 184.5,186.5C 185.167,185.167 185.833,183.833 186.5,182.5C 188.198,183.681 189.865,183.681 191.5,182.5C 194.437,180.568 197.104,178.235 199.5,175.5C 201.286,173.979 203.119,173.646 205,174.5C 209.171,170.508 214.005,167.508 219.5,165.5C 220.522,162.013 222.855,160.68 226.5,161.5C 226.281,160.325 226.614,159.325 227.5,158.5C 229.518,159.813 230.685,159.147 231,156.5C 231.414,156.957 231.914,157.291 232.5,157.5C 233.917,155.739 235.583,154.406 237.5,153.5 Z"/></g><g><path style="opacity:1" fill="#ffba29" d="M 237.5,166.5 C 237.5,173.5 237.5,180.5 237.5,187.5C 236.417,187.461 235.417,187.127 234.5,186.5C 228.697,190.456 222.697,194.123 216.5,197.5C 215.924,200.124 214.59,200.791 212.5,199.5C 211.8,202.015 210.467,202.682 208.5,201.5C 202.554,207.237 196.22,211.57 189.5,214.5C 180.143,214.832 170.81,214.498 161.5,213.5C 162.646,212.281 163.646,210.948 164.5,209.5C 165.216,210.311 166.05,210.978 167,211.5C 168.946,209.038 171.446,207.704 174.5,207.5C 174.5,205.5 174.5,203.5 174.5,201.5C 177.249,201.274 179.916,201.607 182.5,202.5C 183.739,200.993 183.405,199.826 181.5,199C 183.899,198.289 186.232,198.456 188.5,199.5C 193.81,195.531 199.143,191.531 204.5,187.5C 206.045,186.548 207.712,186.215 209.5,186.5C 209.5,185.5 209.5,184.5 209.5,183.5C 211.492,183.328 213.158,183.995 214.5,185.5C 215.429,184.311 215.762,182.978 215.5,181.5C 216.5,181.5 217.5,181.5 218.5,181.5C 218.5,180.167 218.5,178.833 218.5,177.5C 222.827,178.197 225.494,176.53 226.5,172.5C 227.978,172.762 229.311,172.429 230.5,171.5C 231.749,168.243 234.082,166.577 237.5,166.5 Z"/></g><g><path style="opacity:1" fill="#feb722" d="M 237.5,187.5 C 237.5,195.167 237.5,202.833 237.5,210.5C 235.833,211.5 234.5,212.833 233.5,214.5C 217.61,216.374 201.61,217.04 185.5,216.5C 192.655,215.671 199.989,215.171 207.5,215C 201.509,214.501 195.509,214.334 189.5,214.5C 196.22,211.57 202.554,207.237 208.5,201.5C 210.467,202.682 211.8,202.015 212.5,199.5C 214.59,200.791 215.924,200.124 216.5,197.5C 222.697,194.123 228.697,190.456 234.5,186.5C 235.417,187.127 236.417,187.461 237.5,187.5 Z"/></g><g><path style="opacity:1" fill="#f29b1c" d="M 233.5,214.5 C 232.571,215.315 231.571,216.148 230.5,217C 182.501,217.5 134.501,217.667 86.5,217.5C 64.9935,217.831 43.6601,217.497 22.5,216.5C 37.8333,216.5 53.1667,216.5 68.5,216.5C 86.5,216.5 104.5,216.5 122.5,216.5C 143.5,216.5 164.5,216.5 185.5,216.5C 201.61,217.04 217.61,216.374 233.5,214.5 Z"/></g><g><path style="opacity:1" fill="#ef8e10" d="M 18.5,213.5 C 19.5137,214.674 20.847,215.34 22.5,215.5C 22.5,215.833 22.5,216.167 22.5,216.5C 43.6601,217.497 64.9935,217.831 86.5,217.5C 86.7751,219.758 87.7751,220.092 89.5,218.5C 93.6347,219.109 97.6347,219.776 101.5,220.5C 74.4259,220.824 47.4259,220.491 20.5,219.5C 19.7372,217.433 18.4039,215.766 16.5,214.5C 16.9569,213.702 17.6236,213.369 18.5,213.5 Z"/></g><g><path style="opacity:1" fill="#e98715" d="M 237.5,210.5 C 237.698,215.627 235.364,218.793 230.5,220C 187.501,220.5 144.501,220.667 101.5,220.5C 97.6347,219.776 93.6347,219.109 89.5,218.5C 87.7751,220.092 86.7751,219.758 86.5,217.5C 134.501,217.667 182.501,217.5 230.5,217C 231.571,216.148 232.571,215.315 233.5,214.5C 234.5,212.833 235.833,211.5 237.5,210.5 Z"/></g><g><path style="opacity:.075" fill="#f4a62f" d="M 14.5,210.5 C 15.8333,211.167 17.1667,211.833 18.5,212.5C 18.5,212.833 18.5,213.167 18.5,213.5C 17.6236,213.369 16.9569,213.702 16.5,214.5C 18.4039,215.766 19.7372,217.433 20.5,219.5C 15.7855,218.423 13.7855,215.423 14.5,210.5 Z"/></g></svg>