<svg xmlns="http://www.w3.org/2000/svg" width="133.333" height="133.333" preserveAspectRatio="xMidYMid meet" version="1.0" viewBox="0 0 100 100"><g fill="#A7A7A7" stroke="none"><path d="M476 740 c-62 -19 -125 -108 -126 -177 0 -28 -4 -33 -24 -33 -52 0 -56 -15 -56 -230 0 -167 2 -201 16 -214 23 -24 455 -24 478 0 14 13 16 47 16 214 0 212 -4 230 -51 230 -15 0 -19 7 -19 30 0 72 -65 162 -130 180 -41 12 -64 11 -104 0z m98 -54 c43 -18 76 -65 79 -113 l2 -38 -125 0 -125 0 2 38 c3 47 36 95 77 113 40 17 49 17 90 0z" transform="translate(0.000000,100.000000) scale(0.100000,-0.100000)"/></g></svg>