<?xml version="1.0" standalone="no"?>
<!DOCTYPE svg PUBLIC "-//W3C//DTD SVG 20010904//EN"
 "http://www.w3.org/TR/2001/REC-SVG-20010904/DTD/svg10.dtd">
<svg version="1.0" xmlns="http://www.w3.org/2000/svg"
 width="100.000000pt" height="100.000000pt" viewBox="0 0 100.000000 100.000000"
 preserveAspectRatio="xMidYMid meet">

<g transform="translate(0.000000,100.000000) scale(0.100000,-0.100000)"
fill="#000000" stroke="none">
<path d="M310 599 l0 -141 -25 16 c-24 16 -25 16 -25 -9 l0 -25 -100 0 -100 0
0 -60 0 -60 100 0 100 0 0 -25 c0 -25 1 -25 25 -9 l25 16 0 -126 0 -126 275 0
275 0 0 226 0 226 -92 105 c-51 57 -97 111 -101 119 -6 11 -42 14 -182 14
l-175 0 0 -141z m310 -14 l0 -125 105 0 105 0 0 -190 0 -190 -245 0 -245 0 0
119 0 120 50 28 c27 15 50 30 50 33 0 3 -23 18 -50 33 l-50 28 0 135 0 134
140 0 140 0 0 -125z m162 -37 l50 -58 -91 0 -91 0 0 103 1 102 41 -45 c22 -25
63 -71 90 -102z"/>
</g>
</svg>
