<svg xmlns="http://www.w3.org/2000/svg" width="133.333" height="133.333" preserveAspectRatio="xMidYMid meet" version="1.0" viewBox="0 0 100 100"><g fill="#CACACA" stroke="none"><path d="M373 983 l-193 -3 0 -176 0 -176 -25 16 -25 16 0 -70 0 -70 -65 0 -65 0 0 -80 0 -80 65 0 65 0 0 -65 0 -65 25 16 25 16 0 -81 0 -81 375 0 375 0 0 280 0 279 -67 55 c-38 30 -119 104 -181 165 -62 61 -114 110 -115 109 -1 -2 -89 -4 -194 -5z m137 -218 l0 -165 183 -2 182 -3 3 -223 2 -222 -325 0 -326 0 3 72 3 72 120 72 c66 40 119 76 117 81 -1 4 -55 40 -120 79 l-117 70 -3 167 -2 167 140 0 140 0 0 -165z m245 -20 l100 -94 -147 -1 -148 0 0 136 0 136 48 -41 c26 -22 92 -84 147 -136z" transform="translate(0.000000,100.000000) scale(0.100000,-0.100000)"/></g></svg>