<?xml version="1.0" standalone="no"?>
<!DOCTYPE svg PUBLIC "-//W3C//DTD SVG 20010904//EN"
 "http://www.w3.org/TR/2001/REC-SVG-20010904/DTD/svg10.dtd">
<svg version="1.0" xmlns="http://www.w3.org/2000/svg"
 width="100.000000pt" height="100.000000pt" viewBox="0 0 100.000000 100.000000"
 preserveAspectRatio="xMidYMid meet">

<g transform="translate(0.000000,100.000000) scale(0.100000,-0.100000)"
fill="#000000" stroke="none">
<path d="M233 934 c-62 -31 -79 -122 -33 -172 19 -20 20 -36 20 -367 l0 -345
65 0 64 0 3 62 3 62 135 109 c74 60 152 122 173 139 l37 31 0 111 c0 105 2
112 25 134 53 51 37 145 -32 177 -96 46 -194 -52 -148 -149 10 -20 21 -36 26
-36 5 0 9 -42 9 -92 l0 -93 -109 -87 c-59 -49 -111 -88 -115 -88 -3 0 -6 92
-6 205 0 192 1 207 20 227 47 51 29 142 -35 172 -41 20 -61 20 -102 0z m104
-46 c47 -44 14 -128 -51 -128 -40 0 -76 35 -76 74 0 66 78 100 127 54z m360
-60 c47 -44 14 -128 -51 -128 -40 0 -76 35 -76 74 0 66 78 100 127 54z"/>
</g>
</svg>
