<?xml version="1.0" encoding="UTF-8"?>
<!DOCTYPE svg PUBLIC "-//W3C//DTD SVG 1.1//EN" "http://www.w3.org/Graphics/SVG/1.1/DTD/svg11.dtd">
<svg xmlns="http://www.w3.org/2000/svg" version="1.1" width="250px" height="250px" style="shape-rendering:geometricPrecision; text-rendering:geometricPrecision; image-rendering:optimizeQuality; fill-rule:evenodd; clip-rule:evenodd" xmlns:xlink="http://www.w3.org/1999/xlink">
<g><path style="opacity:0.955" fill="#c1c1c1" d="M 237.5,66.5 C 237.657,67.8734 237.49,69.2068 237,70.5C 188.293,123.704 139.793,177.037 91.5,230.5C 91.0296,231.693 90.0296,232.36 88.5,232.5C 66.4807,236.225 44.4807,240.059 22.5,244C 19.366,244.79 16.366,244.457 13.5,243C 12.16,217.914 11.4933,192.747 11.5,167.5C 60.934,115.404 109.267,62.4042 156.5,8.5C 158.629,4.83489 161.629,2.66823 165.5,2C 189.695,23.3655 213.695,44.8655 237.5,66.5 Z M 164.5,23.5 C 181.833,38.8333 199.167,54.1667 216.5,69.5C 213.138,73.1925 209.805,76.8592 206.5,80.5C 188.475,65.4703 170.475,50.4703 152.5,35.5C 156.5,31.5 160.5,27.5 164.5,23.5 Z M 141.5,48.5 C 148.958,54.1195 156.292,59.9528 163.5,66C 128.035,105.134 92.2013,143.967 56,182.5C 55.3333,183.5 55.3333,184.5 56,185.5C 58.1667,187.667 60.3333,189.833 62.5,192C 63.5,192.667 64.5,192.667 65.5,192C 102.016,153.118 138.182,113.952 174,74.5C 181.105,80.627 188.272,86.627 195.5,92.5C 157.599,133.978 119.933,175.644 82.5,217.5C 64.4552,220.242 46.4552,223.242 28.5,226.5C 27.9042,208.839 27.5709,191.173 27.5,173.5C 65.5283,131.807 103.528,90.1408 141.5,48.5 Z"/></g>
<g><path style="opacity:0.389" fill="#f1f1f1" d="M 164.5,23.5 C 160.5,27.5 156.5,31.5 152.5,35.5C 154.51,30.9111 157.843,26.7445 162.5,23C 163.437,22.3083 164.103,22.475 164.5,23.5 Z"/></g>
<g><path style="opacity:0.385" fill="#f2f2f2" d="M 216.5,69.5 C 217.525,69.8966 217.692,70.5632 217,71.5C 214.049,74.5724 211.216,77.7391 208.5,81C 207.563,81.6917 206.897,81.525 206.5,80.5C 209.805,76.8592 213.138,73.1925 216.5,69.5 Z"/></g>
<g><path style="opacity:0.384" fill="#f1f1f1" d="M 141.5,48.5 C 103.528,90.1408 65.5283,131.807 27.5,173.5C 26.9569,173.44 26.6236,173.107 26.5,172.5C 64.1127,130.051 102.279,88.0512 141,46.5C 141.464,47.0944 141.631,47.7611 141.5,48.5 Z"/></g>
<g><path style="opacity:0.387" fill="#f2f2f2" d="M 156.5,8.5 C 109.267,62.4042 60.934,115.404 11.5,167.5C 14.4289,163.394 17.5956,159.394 21,155.5C 66.0327,106.304 111.199,57.3037 156.5,8.5 Z"/></g>
<g><path style="opacity:0.961" fill="#f2f2f2" d="M 195.5,92.5 C 196.043,92.56 196.376,92.8933 196.5,93.5C 160.482,133.017 124.648,172.684 89,212.5C 87.2228,214.79 85.0562,216.457 82.5,217.5C 119.933,175.644 157.599,133.978 195.5,92.5 Z"/></g>
<g><path style="opacity:0.396" fill="#f1f1f1" d="M 237.5,66.5 C 239.273,67.3143 239.773,68.6476 239,70.5C 192.333,121.833 145.667,173.167 99,224.5C 96.8943,227.118 94.3943,229.118 91.5,230.5C 139.793,177.037 188.293,123.704 237,70.5C 237.49,69.2068 237.657,67.8734 237.5,66.5 Z"/></g>
</svg>
