<?xml version="1.0" standalone="no"?>
<!DOCTYPE svg PUBLIC "-//W3C//DTD SVG 20010904//EN"
 "http://www.w3.org/TR/2001/REC-SVG-20010904/DTD/svg10.dtd">
<svg version="1.0" xmlns="http://www.w3.org/2000/svg"
 width="250.000000pt" height="250.000000pt" viewBox="0 0 250.000000 250.000000"
 preserveAspectRatio="xMidYMid meet">

<g transform="translate(0.000000,250.000000) scale(0.100000,-0.100000)"
fill="#000000" stroke="none">
<path d="M1060 2347 c-8 -7 -47 -23 -86 -35 -284 -88 -506 -393 -586 -806 -39
-203 -36 -335 13 -571 32 -149 112 -335 197 -455 98 -138 275 -279 385 -306
15 -3 30 -10 33 -15 3 -5 217 -9 489 -9 l483 0 46 45 46 44 0 471 0 471 -26
35 c-15 19 -33 34 -40 34 -8 0 -14 5 -14 10 0 6 -38 10 -95 10 -52 0 -95 2
-95 5 0 3 57 96 126 206 69 111 128 208 131 215 4 11 -14 14 -95 14 l-100 0
-13 38 c-20 62 -88 193 -141 269 -106 153 -282 281 -425 309 -18 4 -38 13 -44
20 -15 19 -169 19 -189 1z m211 -198 c164 -53 288 -167 384 -353 l45 -86 -90
0 c-50 0 -90 -3 -90 -6 0 -4 57 -100 127 -213 69 -113 128 -209 130 -213 2 -5
-275 -8 -617 -8 -569 0 -621 1 -627 17 -8 21 12 176 38 283 32 132 124 312
206 400 124 134 230 187 374 189 47 1 101 -4 120 -10z m-177 -1085 c14 -5 16
-27 16 -140 l0 -135 133 3 132 3 2 129 c1 140 4 146 58 146 57 0 56 11 53
-341 l-3 -324 -52 -3 c-38 -2 -53 1 -53 10 -1 7 -2 74 -3 148 l-2 135 -132 3
-132 3 -3 -148 -3 -148 -55 0 -55 0 -3 324 c-2 253 1 326 10 333 15 9 70 11
92 2z"/>
</g>
</svg>
